Sarpanch_0.ufo
<glyph name="exclam" format="1">
  <advance width="279"/>
  <unicode hex="0021"/>
  <outline>
    <contour>
      <point x="88" y="622" type="line"/>
      <point x="104" y="198" type="line"/>
      <point x="176" y="198" type="line"/>
      <point x="192" y="622" type="line"/>
    </contour>
    <contour>
      <point x="90" y="0" type="line"/>
      <point x="189" y="0" type="line"/>
      <point x="189" y="116" type="line"/>
      <point x="90" y="116" type="line"/>
    </contour>
  </outline>
</glyph>
<glyph name="numbersign" format="1">
  <advance width="948"/>
  <unicode hex="0023"/>
  <outline>
    <contour>
      <point x="373" y="622" type="line"/>
      <point x="168" y="0" type="line"/>
      <point x="245" y="0" type="line"/>
      <point x="450" y="622" type="line"/>
    </contour>
    <contour>
      <point x="888" y="459" type="line"/>
      <point x="104" y="459" type="line"/>
      <point x="104" y="396" type="line"/>
      <point x="888" y="396" type="line"/>
    </contour>
    <contour>
      <point x="593" y="0" type="line"/>
      <point x="798" y="622" type="line"/>
      <point x="721" y="622" type="line"/>
      <point x="516" y="0" type="line"/>
    </contour>
    <contour>
      <point x="60" y="163" type="line"/>
      <point x="844" y="163" type="line"/>
      <point x="844" y="226" type="line"/>
      <point x="60" y="226" type="line"/>
    </contour>
  </outline>
</glyph>
<glyph name="percent" format="1">
  <advance width="1075"/>
  <unicode hex="0025"/>
  <outline>
    <contour>
      <point x="1015" y="262" type="line"/>
      <point x="1015" y="309"/>
      <point x="995" y="331"/>
      <point x="950" y="331" type="curve" smooth="yes"/>
      <point x="728" y="331" type="line" smooth="yes"/>
      <point x="684" y="331"/>
      <point x="663" y="309"/>
      <point x="663" y="262" type="curve" smooth="yes"/>
      <point x="663" y="69" type="line" smooth="yes"/>
      <point x="663" y="22"/>
      <point x="684" y="0"/>
      <point x="728" y="0" type="curve" smooth="yes"/>
      <point x="950" y="0" type="line" smooth="yes"/>
      <point x="995" y="0"/>
      <point x="1015" y="22"/>
      <point x="1015" y="69" type="curve" smooth="yes"/>
    </contour>
    <contour>
      <point x="945" y="81" type="line"/>
      <point x="945" y="57"/>
      <point x="942" y="52"/>
      <point x="918" y="52" type="curve" smooth="yes"/>
      <point x="761" y="52" type="line" smooth="yes"/>
      <point x="737" y="52"/>
      <point x="734" y="57"/>
      <point x="734" y="81" type="curve" smooth="yes"/>
      <point x="734" y="250" type="line" smooth="yes"/>
      <point x="734" y="274"/>
      <point x="737" y="279"/>
      <point x="761" y="279" type="curve" smooth="yes"/>
      <point x="918" y="279" type="line" smooth="yes"/>
      <point x="942" y="279"/>
      <point x="945" y="274"/>
      <point x="945" y="250" type="curve" smooth="yes"/>
    </contour>
    <contour>
      <point x="728" y="622" type="line"/>
      <point x="262" y="0" type="line"/>
      <point x="343" y="0" type="line"/>
      <point x="810" y="622" type="line"/>
    </contour>
    <contour>
      <point x="412" y="552" type="line"/>
      <point x="412" y="599"/>
      <point x="392" y="621"/>
      <point x="347" y="621" type="curve" smooth="yes"/>
      <point x="125" y="621" type="line" smooth="yes"/>
      <point x="81" y="621"/>
      <point x="60" y="599"/>
      <point x="60" y="552" type="curve" smooth="yes"/>
      <point x="60" y="359" type="line" smooth="yes"/>
      <point x="60" y="312"/>
      <point x="81" y="290"/>
      <point x="125" y="290" type="curve" smooth="yes"/>
      <point x="347" y="290" type="line" smooth="yes"/>
      <point x="392" y="290"/>
      <point x="412" y="312"/>
      <point x="412" y="359" type="curve" smooth="yes"/>
    </contour>
    <contour>
      <point x="342" y="371" type="line"/>
      <point x="342" y="347"/>
      <point x="339" y="342"/>
      <point x="315" y="342" type="curve" smooth="yes"/>
      <point x="158" y="342" type="line" smooth="yes"/>
      <point x="134" y="342"/>
      <point x="131" y="347"/>
      <point x="131" y="371" type="curve" smooth="yes"/>
      <point x="131" y="540" type="line" smooth="yes"/>
      <point x="131" y="564"/>
      <point x="134" y="569"/>
      <point x="158" y="569" type="curve" smooth="yes"/>
      <point x="315" y="569" type="line" smooth="yes"/>
      <point x="339" y="569"/>
      <point x="342" y="564"/>
      <point x="342" y="540" type="curve" smooth="yes"/>
    </contour>
  </outline>
</glyph>
<glyph name="ampersand" format="1">
  <advance width="836"/>
  <unicode hex="0026"/>
  <outline>
    <contour>
      <point x="799" y="-45" type="line"/>
      <point x="339" y="339" type="line" smooth="yes"/>
      <point x="281" y="387"/>
      <point x="249" y="406"/>
      <point x="249" y="453" type="curve" smooth="yes"/>
      <point x="249" y="532" type="line" smooth="yes"/>
      <point x="249" y="558"/>
      <point x="254" y="563"/>
      <point x="280" y="563" type="curve" smooth="yes"/>
      <point x="501" y="563" type="line" smooth="yes"/>
      <point x="527" y="563"/>
      <point x="532" y="558"/>
      <point x="532" y="532" type="curve" smooth="yes"/>
      <point x="532" y="451" type="line" smooth="yes"/>
      <point x="532" y="409"/>
      <point x="517" y="390"/>
      <point x="473" y="374" type="curve" smooth="yes"/>
      <point x="147" y="254" type="line" smooth="yes"/>
      <point x="98" y="236"/>
      <point x="80" y="214"/>
      <point x="80" y="162" type="curve" smooth="yes"/>
      <point x="80" y="79" type="line" smooth="yes"/>
      <point x="80" y="26"/>
      <point x="106" y="0"/>
      <point x="159" y="0" type="curve" smooth="yes"/>
      <point x="695" y="0" type="line" smooth="yes"/>
      <point x="749" y="0"/>
      <point x="776" y="27"/>
      <point x="776" y="81" type="curve" smooth="yes"/>
      <point x="776" y="226" type="line"/>
      <point x="706" y="226" type="line"/>
      <point x="706" y="90" type="line" smooth="yes"/>
      <point x="706" y="64"/>
      <point x="701" y="59"/>
      <point x="675" y="59" type="curve" smooth="yes"/>
      <point x="196" y="59" type="line" smooth="yes"/>
      <point x="170" y="59"/>
      <point x="165" y="64"/>
      <point x="165" y="90" type="curve" smooth="yes"/>
      <point x="165" y="146" type="line" smooth="yes"/>
      <point x="165" y="179"/>
      <point x="174" y="196"/>
      <point x="209" y="209" type="curve" smooth="yes"/>
      <point x="539" y="330" type="line" smooth="yes"/>
      <point x="594" y="350"/>
      <point x="617" y="383"/>
      <point x="617" y="454" type="curve" smooth="yes"/>
      <point x="617" y="543" type="line" smooth="yes"/>
      <point x="617" y="596"/>
      <point x="591" y="622"/>
      <point x="538" y="622" type="curve" smooth="yes"/>
      <point x="243" y="622" type="line" smooth="yes"/>
      <point x="190" y="622"/>
      <point x="164" y="596"/>
      <point x="164" y="543" type="curve" smooth="yes"/>
      <point x="164" y="441" type="line" smooth="yes"/>
      <point x="164" y="384"/>
      <point x="206" y="357"/>
      <point x="259" y="314" type="curve" smooth="yes"/>
      <point x="694" y="-45" type="line"/>
    </contour>
  </outline>
</glyph>
<glyph name="parenright" format="1">
  <advance width="336"/>
  <unicode hex="0029"/>
  <outline>
    <contour>
      <point x="236" y="156" type="line"/>
      <point x="236" y="-120"/>
      <point x="136" y="-219"/>
      <point x="-16" y="-219" type="curve" smooth="yes"/>
      <point x="-50" y="-219" type="line"/>
      <point x="-50" y="-160" type="line"/>
      <point x="-20" y="-160" type="line"/>
      <point x="90" y="-153"/>
      <point x="150" y="-58"/>
      <point x="150" y="150" type="curve" smooth="yes"/>
      <point x="150" y="348" type="line" smooth="yes"/>
      <point x="150" y="555"/>
      <point x="90" y="651"/>
      <point x="-20" y="658" type="curve"/>
      <point x="-50" y="658" type="line"/>
      <point x="-50" y="717" type="line"/>
      <point x="-16" y="717" type="line" smooth="yes"/>
      <point x="136" y="717"/>
      <point x="236" y="618"/>
      <point x="236" y="342" type="curve" smooth="yes"/>
    </contour>
  </outline>
</glyph>
<glyph name="asterisk" format="1">
  <advance width="454"/>
  <unicode hex="002A"/>
  <outline>
    <contour>
      <point x="191" y="649" type="line"/>
      <point x="191" y="584" type="line" smooth="yes"/>
      <point x="191" y="560"/>
      <point x="194" y="539"/>
      <point x="198" y="523" type="curve"/>
      <point x="183" y="532"/>
      <point x="164" y="541"/>
      <point x="141" y="549" type="curve" smooth="yes"/>
      <point x="80" y="569" type="line"/>
      <point x="57" y="499" type="line"/>
      <point x="119" y="479" type="line" smooth="yes"/>
      <point x="139" y="473"/>
      <point x="159" y="468"/>
      <point x="179" y="467" type="curve"/>
      <point x="166" y="456"/>
      <point x="151" y="441"/>
      <point x="137" y="421" type="curve" smooth="yes"/>
      <point x="99" y="369" type="line"/>
      <point x="158" y="326" type="line"/>
      <point x="196" y="378" type="line" smooth="yes"/>
      <point x="210" y="398"/>
      <point x="220" y="417"/>
      <point x="226" y="432" type="curve"/>
      <point x="233" y="417"/>
      <point x="243" y="398"/>
      <point x="257" y="378" type="curve" smooth="yes"/>
      <point x="295" y="325" type="line"/>
      <point x="354" y="368" type="line"/>
      <point x="316" y="420" type="line" smooth="yes"/>
      <point x="302" y="440"/>
      <point x="287" y="455"/>
      <point x="275" y="466" type="curve"/>
      <point x="291" y="467"/>
      <point x="312" y="470"/>
      <point x="335" y="478" type="curve" smooth="yes"/>
      <point x="397" y="498" type="line"/>
      <point x="375" y="568" type="line"/>
      <point x="313" y="547" type="line" smooth="yes"/>
      <point x="290" y="539"/>
      <point x="271" y="530"/>
      <point x="257" y="521" type="curve"/>
      <point x="261" y="538"/>
      <point x="264" y="559"/>
      <point x="264" y="584" type="curve" smooth="yes"/>
      <point x="264" y="649" type="line"/>
    </contour>
  </outline>
</glyph>
<glyph name="plus" format="1">
  <advance width="640"/>
  <unicode hex="002B"/>
  <outline>
    <contour>
      <point x="60" y="277" type="line"/>
      <point x="580" y="277" type="line"/>
      <point x="580" y="345" type="line"/>
      <point x="60" y="345" type="line"/>
    </contour>
    <contour>
      <point x="277" y="504" type="line"/>
      <point x="277" y="118" type="line"/>
      <point x="363" y="118" type="line"/>
      <point x="363" y="504" type="line"/>
    </contour>
  </outline>
</glyph>
<glyph name="comma" format="1">
  <advance width="209"/>
  <unicode hex="002C"/>
  <outline>
    <contour>
      <point x="60" y="118" type="line"/>
      <point x="159" y="118" type="line"/>
      <point x="159" y="56" type="line"/>
      <point x="93" y="-137" type="line"/>
      <point x="60" y="-137" type="line"/>
    </contour>
  </outline>
</glyph>
<glyph name="period" format="1">
  <advance width="219"/>
  <unicode hex="002E"/>
  <outline>
    <contour>
      <point x="60" y="0" type="line"/>
      <point x="159" y="0" type="line"/>
      <point x="159" y="116" type="line"/>
      <point x="60" y="116" type="line"/>
    </contour>
  </outline>
</glyph>
<glyph name="zero" format="1">
  <advance width="677"/>
  <unicode hex="0030"/>
  <outline>
    <contour>
      <point x="587" y="543" type="line"/>
      <point x="587" y="596"/>
      <point x="561" y="622"/>
      <point x="508" y="622" type="curve" smooth="yes"/>
      <point x="169" y="622" type="line" smooth="yes"/>
      <point x="116" y="622"/>
      <point x="90" y="596"/>
      <point x="90" y="543" type="curve" smooth="yes"/>
      <point x="90" y="79" type="line" smooth="yes"/>
      <point x="90" y="26"/>
      <point x="116" y="0"/>
      <point x="169" y="0" type="curve" smooth="yes"/>
      <point x="508" y="0" type="line" smooth="yes"/>
      <point x="561" y="0"/>
      <point x="587" y="26"/>
      <point x="587" y="79" type="curve" smooth="yes"/>
    </contour>
    <contour>
      <point x="500" y="90" type="line"/>
      <point x="500" y="64"/>
      <point x="495" y="59"/>
      <point x="469" y="59" type="curve" smooth="yes"/>
      <point x="209" y="59" type="line" smooth="yes"/>
      <point x="183" y="59"/>
      <point x="178" y="64"/>
      <point x="178" y="90" type="curve" smooth="yes"/>
      <point x="178" y="532" type="line" smooth="yes"/>
      <point x="178" y="558"/>
      <point x="183" y="563"/>
      <point x="209" y="563" type="curve" smooth="yes"/>
      <point x="469" y="563" type="line" smooth="yes"/>
      <point x="495" y="563"/>
      <point x="500" y="558"/>
      <point x="500" y="532" type="curve" smooth="yes"/>
    </contour>
  </outline>
</glyph>
<glyph name="one" format="1">
  <advance width="334"/>
  <unicode hex="0031"/>
  <outline>
    <contour>
      <point x="197" y="622" type="line"/>
      <point x="30" y="622" type="line"/>
      <point x="30" y="563" type="line"/>
      <point x="197" y="563" type="line"/>
    </contour>
    <contour>
      <point x="156" y="622" type="line"/>
      <point x="156" y="0" type="line"/>
      <point x="244" y="0" type="line"/>
      <point x="244" y="622" type="line"/>
    </contour>
  </outline>
</glyph>
<glyph name="four" format="1">
  <advance width="651"/>
  <unicode hex="0034"/>
  <outline>
    <contour>
      <point x="77" y="101" type="line"/>
      <point x="631" y="101" type="line"/>
      <point x="631" y="160" type="line"/>
      <point x="77" y="160" type="line"/>
    </contour>
    <contour>
      <point x="40" y="101" type="line"/>
      <point x="100" y="101" type="line"/>
      <point x="428" y="622" type="line"/>
      <point x="335" y="622" type="line"/>
      <point x="40" y="159" type="line"/>
    </contour>
    <contour>
      <point x="431" y="328" type="line"/>
      <point x="431" y="0" type="line"/>
      <point x="514" y="0" type="line"/>
      <point x="514" y="328" type="line"/>
    </contour>
  </outline>
</glyph>
<glyph name="five" format="1">
  <advance width="634"/>
  <unicode hex="0035"/>
  <outline>
    <contour>
      <point x="178" y="195" type="line"/>
      <point x="90" y="195" type="line"/>
      <point x="90" y="79" type="line" smooth="yes"/>
      <point x="90" y="26"/>
      <point x="116" y="0"/>
      <point x="169" y="0" type="curve" smooth="yes"/>
      <point x="495" y="0" type="line" smooth="yes"/>
      <point x="548" y="0"/>
      <point x="574" y="26"/>
      <point x="574" y="79" type="curve" smooth="yes"/>
      <point x="574" y="300" type="line" smooth="yes"/>
      <point x="574" y="353"/>
      <point x="548" y="379"/>
      <point x="495" y="379" type="curve" smooth="yes"/>
      <point x="150" y="379" type="line"/>
      <point x="150" y="320" type="line"/>
      <point x="456" y="320" type="line" smooth="yes"/>
      <point x="482" y="320"/>
      <point x="487" y="315"/>
      <point x="487" y="289" type="curve" smooth="yes"/>
      <point x="487" y="90" type="line" smooth="yes"/>
      <point x="487" y="64"/>
      <point x="482" y="59"/>
      <point x="456" y="59" type="curve" smooth="yes"/>
      <point x="209" y="59" type="line" smooth="yes"/>
      <point x="183" y="59"/>
      <point x="178" y="64"/>
      <point x="178" y="90" type="curve" smooth="yes"/>
    </contour>
    <contour>
      <point x="180" y="320" type="line"/>
      <point x="180" y="563" type="line"/>
      <point x="565" y="563" type="line"/>
      <point x="565" y="622" type="line"/>
      <point x="91" y="622" type="line"/>
      <point x="91" y="320" type="line"/>
    </contour>
  </outline>
</glyph>
<glyph name="seven" format="1">
  <advance width="514"/>
  <unicode hex="0037"/>
  <outline>
    <contour>
      <point x="464" y="622" type="line"/>
      <point x="40" y="622" type="line"/>
      <point x="40" y="563" type="line"/>
      <point x="464" y="563" type="line"/>
    </contour>
    <contour>
      <point x="494" y="622" type="line"/>
      <point x="424" y="622" type="line"/>
      <point x="128" y="0" type="line"/>
      <point x="221" y="0" type="line"/>
      <point x="494" y="571" type="line"/>
    </contour>
  </outline>
</glyph>
<glyph name="less" format="1">
  <advance width="661"/>
  <unicode hex="003C"/>
  <outline>
    <contour>
      <point x="601" y="407" type="line"/>
      <point x="601" y="482" type="line"/>
      <point x="40" y="354" type="line"/>
      <point x="40" y="269" type="line"/>
      <point x="601" y="140" type="line"/>
      <point x="601" y="215" type="line"/>
      <point x="116" y="311" type="line"/>
    </contour>
  </outline>
</glyph>
<glyph name="greater" format="1">
  <advance width="661"/>
  <unicode hex="003E"/>
  <outline>
    <contour>
      <point x="545" y="311" type="line"/>
      <point x="60" y="215" type="line"/>
      <point x="60" y="140" type="line"/>
      <point x="621" y="269" type="line"/>
      <point x="621" y="354" type="line"/>
      <point x="60" y="482" type="line"/>
      <point x="60" y="407" type="line"/>
    </contour>
  </outline>
</glyph>
<glyph name="at" format="1">
  <advance width="1102"/>
  <unicode hex="0040"/>
  <outline>
    <contour>
      <point x="408" y="426" type="line"/>
      <point x="356" y="426"/>
      <point x="331" y="401"/>
      <point x="331" y="349" type="curve" smooth="yes"/>
      <point x="331" y="155" type="line" smooth="yes"/>
      <point x="331" y="103"/>
      <point x="356" y="78"/>
      <point x="408" y="78" type="curve" smooth="yes"/>
      <point x="598" y="78" type="line" smooth="yes"/>
      <point x="629" y="78"/>
      <point x="655" y="90"/>
      <point x="659" y="124" type="curve"/>
      <point x="659" y="59" type="line"/>
      <point x="945" y="59" type="line" smooth="yes"/>
      <point x="997" y="59"/>
      <point x="1022" y="84"/>
      <point x="1022" y="136" type="curve" smooth="yes"/>
      <point x="1022" y="486" type="line" smooth="yes"/>
      <point x="1022" y="538"/>
      <point x="997" y="563"/>
      <point x="945" y="563" type="curve" smooth="yes"/>
      <point x="167" y="563" type="line" smooth="yes"/>
      <point x="115" y="563"/>
      <point x="90" y="538"/>
      <point x="90" y="486" type="curve" smooth="yes"/>
      <point x="90" y="5" type="line" smooth="yes"/>
      <point x="90" y="-47"/>
      <point x="115" y="-72"/>
      <point x="167" y="-72" type="curve" smooth="yes"/>
      <point x="884" y="-72" type="line"/>
      <point x="884" y="-11" type="line"/>
      <point x="202" y="-11" type="line" smooth="yes"/>
      <point x="176" y="-11"/>
      <point x="171" y="-6"/>
      <point x="171" y="19" type="curve" smooth="yes"/>
      <point x="171" y="471" type="line" smooth="yes"/>
      <point x="171" y="496"/>
      <point x="176" y="502"/>
      <point x="202" y="502" type="curve" smooth="yes"/>
      <point x="912" y="502" type="line" smooth="yes"/>
      <point x="937" y="502"/>
      <point x="942" y="496"/>
      <point x="942" y="471" type="curve" smooth="yes"/>
      <point x="942" y="148" type="line" smooth="yes"/>
      <point x="942" y="123"/>
      <point x="937" y="118"/>
      <point x="912" y="118" type="curve" smooth="yes"/>
      <point x="733" y="118" type="line"/>
      <point x="733" y="426" type="line"/>
      <point x="652" y="426" type="line"/>
      <point x="652" y="393" type="line"/>
      <point x="644" y="416"/>
      <point x="624" y="426"/>
      <point x="598" y="426" type="curve" smooth="yes"/>
    </contour>
    <contour>
      <point x="412" y="337" type="line"/>
      <point x="412" y="362"/>
      <point x="417" y="367"/>
      <point x="442" y="367" type="curve" smooth="yes"/>
      <point x="619" y="367" type="line" smooth="yes"/>
      <point x="642" y="367"/>
      <point x="652" y="358"/>
      <point x="652" y="333" type="curve" smooth="yes"/>
      <point x="652" y="171" type="line" smooth="yes"/>
      <point x="652" y="145"/>
      <point x="642" y="137"/>
      <point x="619" y="137" type="curve" smooth="yes"/>
      <point x="442" y="137" type="line" smooth="yes"/>
      <point x="417" y="137"/>
      <point x="412" y="142"/>
      <point x="412" y="167" type="curve" smooth="yes"/>
    </contour>
  </outline>
</glyph>
<glyph name="E" format="1">
  <advance width="587"/>
  <unicode hex="0045"/>
  <outline>
    <contour>
      <point x="100" y="622" type="line"/>
      <point x="100" y="0" type="line"/>
      <point x="189" y="0" type="line"/>
      <point x="189" y="622" type="line"/>
    </contour>
    <contour>
      <point x="482" y="348" type="line"/>
      <point x="151" y="348" type="line"/>
      <point x="151" y="289" type="line"/>
      <point x="482" y="289" type="line"/>
    </contour>
    <contour>
      <point x="523" y="622" type="line"/>
      <point x="149" y="622" type="line"/>
      <point x="149" y="563" type="line"/>
      <point x="523" y="563" type="line"/>
    </contour>
    <contour>
      <point x="537" y="59" type="line"/>
      <point x="149" y="59" type="line"/>
      <point x="149" y="0" type="line"/>
      <point x="537" y="0" type="line"/>
    </contour>
  </outline>
</glyph>
<glyph name="H" format="1">
  <advance width="744"/>
  <unicode hex="0048"/>
  <outline>
    <contour>
      <point x="588" y="341" type="line"/>
      <point x="160" y="341" type="line"/>
      <point x="160" y="282" type="line"/>
      <point x="588" y="282" type="line"/>
    </contour>
    <contour>
      <point x="100" y="622" type="line"/>
      <point x="100" y="0" type="line"/>
      <point x="188" y="0" type="line"/>
      <point x="188" y="622" type="line"/>
    </contour>
    <contour>
      <point x="556" y="622" type="line"/>
      <point x="556" y="0" type="line"/>
      <point x="644" y="0" type="line"/>
      <point x="644" y="622" type="line"/>
    </contour>
  </outline>
</glyph>
<glyph name="L" format="1">
  <advance width="539"/>
  <unicode hex="004C"/>
  <outline>
    <contour>
      <point x="100" y="622" type="line"/>
      <point x="100" y="0" type="line"/>
      <point x="187" y="0" type="line"/>
      <point x="187" y="622" type="line"/>
    </contour>
    <contour>
      <point x="146" y="0" type="line"/>
      <point x="509" y="0" type="line"/>
      <point x="509" y="59" type="line"/>
      <point x="146" y="59" type="line"/>
    </contour>
  </outline>
</glyph>
<glyph name="M" format="1">
  <advance width="862"/>
  <unicode hex="004D"/>
  <outline>
    <contour>
      <point x="467" y="135" type="line"/>
      <point x="686" y="510" type="line"/>
      <point x="686" y="0" type="line"/>
      <point x="762" y="0" type="line"/>
      <point x="762" y="622" type="line"/>
      <point x="667" y="622" type="line"/>
      <point x="426" y="211" type="line"/>
      <point x="195" y="622" type="line"/>
      <point x="100" y="622" type="line"/>
      <point x="100" y="0" type="line"/>
      <point x="176" y="0" type="line"/>
      <point x="176" y="510" type="line"/>
      <point x="387" y="135" type="line"/>
    </contour>
  </outline>
</glyph>
<glyph name="N" format="1">
  <advance width="719"/>
  <unicode hex="004E"/>
  <outline>
    <contour>
      <point x="539" y="622" type="line"/>
      <point x="539" y="108" type="line"/>
      <point x="193" y="622" type="line"/>
      <point x="100" y="622" type="line"/>
      <point x="100" y="0" type="line"/>
      <point x="180" y="0" type="line"/>
      <point x="180" y="519" type="line"/>
      <point x="531" y="0" type="line"/>
      <point x="619" y="0" type="line"/>
      <point x="619" y="622" type="line"/>
    </contour>
  </outline>
</glyph>
<glyph name="P" format="1">
  <advance width="666"/>
  <unicode hex="0050"/>
  <outline>
    <contour>
      <point x="520" y="293" type="line"/>
      <point x="520" y="267"/>
      <point x="515" y="262"/>
      <point x="489" y="262" type="curve" smooth="yes"/>
      <point x="146" y="262" type="line"/>
      <point x="146" y="203" type="line"/>
      <point x="527" y="203" type="line" smooth="yes"/>
      <point x="580" y="203"/>
      <point x="606" y="229"/>
      <point x="606" y="282" type="curve" smooth="yes"/>
      <point x="606" y="543" type="line" smooth="yes"/>
      <point x="606" y="596"/>
      <point x="580" y="622"/>
      <point x="527" y="622" type="curve" smooth="yes"/>
      <point x="109" y="622" type="line"/>
      <point x="109" y="563" type="line"/>
      <point x="489" y="563" type="line" smooth="yes"/>
      <point x="515" y="563"/>
      <point x="520" y="558"/>
      <point x="520" y="532" type="curve" smooth="yes"/>
    </contour>
    <contour>
      <point x="100" y="622" type="line"/>
      <point x="100" y="0" type="line"/>
      <point x="187" y="0" type="line"/>
      <point x="187" y="622" type="line"/>
    </contour>
  </outline>
</glyph>
<glyph name="R" format="1">
  <advance width="687"/>
  <unicode hex="0052"/>
  <outline>
    <contour>
      <point x="521" y="313" type="line"/>
      <point x="521" y="287"/>
      <point x="516" y="282"/>
      <point x="490" y="282" type="curve" smooth="yes"/>
      <point x="146" y="282" type="line"/>
      <point x="146" y="223" type="line"/>
      <point x="528" y="223" type="line" smooth="yes"/>
      <point x="581" y="223"/>
      <point x="607" y="249"/>
      <point x="607" y="302" type="curve" smooth="yes"/>
      <point x="607" y="543" type="line" smooth="yes"/>
      <point x="607" y="596"/>
      <point x="581" y="622"/>
      <point x="528" y="622" type="curve" smooth="yes"/>
      <point x="109" y="622" type="line"/>
      <point x="109" y="563" type="line"/>
      <point x="490" y="563" type="line" smooth="yes"/>
      <point x="516" y="563"/>
      <point x="521" y="558"/>
      <point x="521" y="532" type="curve" smooth="yes"/>
    </contour>
    <contour>
      <point x="100" y="622" type="line"/>
      <point x="100" y="0" type="line"/>
      <point x="187" y="0" type="line"/>
      <point x="187" y="622" type="line"/>
    </contour>
    <contour>
      <point x="368" y="243" type="line"/>
      <point x="519" y="0" type="line"/>
      <point x="609" y="0" type="line"/>
      <point x="456" y="243" type="line"/>
    </contour>
  </outline>
</glyph>
<glyph name="S" format="1">
  <advance width="648"/>
  <unicode hex="0053"/>
  <outline>
    <contour>
      <point x="481" y="90" type="line"/>
      <point x="481" y="64"/>
      <point x="476" y="59"/>
      <point x="450" y="59" type="curve" smooth="yes"/>
      <point x="201" y="59" type="line" smooth="yes"/>
      <point x="175" y="59"/>
      <point x="170" y="64"/>
      <point x="170" y="90" type="curve" smooth="yes"/>
      <point x="170" y="178" type="line"/>
      <point x="82" y="178" type="line"/>
      <point x="82" y="79" type="line" smooth="yes"/>
      <point x="82" y="26"/>
      <point x="108" y="0"/>
      <point x="161" y="0" type="curve" smooth="yes"/>
      <point x="489" y="0" type="line" smooth="yes"/>
      <point x="542" y="0"/>
      <point x="568" y="26"/>
      <point x="568" y="79" type="curve" smooth="yes"/>
      <point x="568" y="264" type="line" smooth="yes"/>
      <point x="568" y="317"/>
      <point x="542" y="343"/>
      <point x="489" y="343" type="curve" smooth="yes"/>
      <point x="199" y="343" type="line" smooth="yes"/>
      <point x="173" y="343"/>
      <point x="168" y="348"/>
      <point x="168" y="374" type="curve" smooth="yes"/>
      <point x="168" y="532" type="line" smooth="yes"/>
      <point x="168" y="558"/>
      <point x="173" y="563"/>
      <point x="199" y="563" type="curve" smooth="yes"/>
      <point x="446" y="563" type="line" smooth="yes"/>
      <point x="472" y="563"/>
      <point x="477" y="558"/>
      <point x="477" y="532" type="curve" smooth="yes"/>
      <point x="477" y="444" type="line"/>
      <point x="565" y="444" type="line"/>
      <point x="565" y="543" type="line" smooth="yes"/>
      <point x="565" y="596"/>
      <point x="539" y="622"/>
      <point x="486" y="622" type="curve" smooth="yes"/>
      <point x="159" y="622" type="line" smooth="yes"/>
      <point x="106" y="622"/>
      <point x="80" y="596"/>
      <point x="80" y="543" type="curve" smooth="yes"/>
      <point x="80" y="363" type="line" smooth="yes"/>
      <point x="80" y="310"/>
      <point x="106" y="284"/>
      <point x="159" y="284" type="curve" smooth="yes"/>
      <point x="450" y="284" type="line" smooth="yes"/>
      <point x="476" y="284"/>
      <point x="481" y="279"/>
      <point x="481" y="253" type="curve" smooth="yes"/>
    </contour>
  </outline>
</glyph>
<glyph name="T" format="1">
  <advance width="565"/>
  <unicode hex="0054"/>
  <outline>
    <contour>
      <point x="239" y="617" type="line"/>
      <point x="239" y="0" type="line"/>
      <point x="326" y="0" type="line"/>
      <point x="326" y="617" type="line"/>
    </contour>
    <contour>
      <point x="555" y="622" type="line"/>
      <point x="10" y="622" type="line"/>
      <point x="10" y="563" type="line"/>
      <point x="555" y="563" type="line"/>
    </contour>
  </outline>
</glyph>
<glyph name="W" format="1">
  <advance width="1049"/>
  <unicode hex="0057"/>
  <outline>
    <contour>
      <point x="924" y="622" type="line"/>
      <point x="735" y="61" type="line"/>
      <point x="573" y="622" type="line"/>
      <point x="475" y="622" type="line"/>
      <point x="312" y="61" type="line"/>
      <point x="127" y="622" type="line"/>
      <point x="39" y="622" type="line"/>
      <point x="250" y="0" type="line"/>
      <point x="372" y="0" type="line"/>
      <point x="524" y="521" type="line"/>
      <point x="676" y="0" type="line"/>
      <point x="798" y="0" type="line"/>
      <point x="1010" y="622" type="line"/>
    </contour>
  </outline>
</glyph>
<glyph name="X" format="1">
  <advance width="667"/>
  <unicode hex="0058"/>
  <outline>
    <contour>
      <point x="386" y="319" type="line"/>
      <point x="620" y="622" type="line"/>
      <point x="523" y="622" type="line"/>
      <point x="334" y="376" type="line"/>
      <point x="143" y="622" type="line"/>
      <point x="45" y="622" type="line"/>
      <point x="283" y="317" type="line"/>
      <point x="35" y="0" type="line"/>
      <point x="132" y="0" type="line"/>
      <point x="334" y="260" type="line"/>
      <point x="534" y="0" type="line"/>
      <point x="632" y="0" type="line"/>
    </contour>
  </outline>
</glyph>
<glyph name="Y" format="1">
  <advance width="630"/>
  <unicode hex="0059"/>
  <outline>
    <contour>
      <point x="362" y="198" type="line"/>
      <point x="621" y="622" type="line"/>
      <point x="532" y="622" type="line"/>
      <point x="320" y="274" type="line"/>
      <point x="99" y="622" type="line"/>
      <point x="9" y="622" type="line"/>
      <point x="279" y="198" type="line"/>
    </contour>
    <contour>
      <point x="277" y="243" type="line"/>
      <point x="277" y="0" type="line"/>
      <point x="364" y="0" type="line"/>
      <point x="364" y="243" type="line"/>
    </contour>
  </outline>
</glyph>
<glyph name="bracketleft" format="1">
  <advance width="317"/>
  <unicode hex="005B"/>
  <outline>
    <contour>
      <point x="144" y="661" type="line"/>
      <point x="357" y="661" type="line"/>
      <point x="357" y="720" type="line"/>
      <point x="144" y="720" type="line"/>
    </contour>
    <contour>
      <point x="100" y="720" type="line"/>
      <point x="100" y="-220" type="line"/>
      <point x="188" y="-220" type="line"/>
      <point x="188" y="720" type="line"/>
    </contour>
    <contour>
      <point x="134" y="-220" type="line"/>
      <point x="357" y="-220" type="line"/>
      <point x="357" y="-161" type="line"/>
      <point x="134" y="-161" type="line"/>
    </contour>
  </outline>
</glyph>
<glyph name="asciicircum" format="1">
  <advance width="647"/>
  <unicode hex="005E"/>
  <outline>
    <contour>
      <point x="272" y="668" type="line"/>
      <point x="58" y="328" type="line"/>
      <point x="149" y="328" type="line"/>
      <point x="324" y="611" type="line"/>
      <point x="498" y="328" type="line"/>
      <point x="589" y="328" type="line"/>
      <point x="375" y="668" type="line"/>
    </contour>
  </outline>
</glyph>
<glyph name="b" format="1">
  <advance width="627"/>
  <unicode hex="0062"/>
  <outline>
    <contour>
      <point x="461" y="261" type="line"/>
      <point x="461" y="90" type="line" smooth="yes"/>
      <point x="461" y="64"/>
      <point x="456" y="59"/>
      <point x="430" y="59" type="curve" smooth="yes"/>
      <point x="211" y="59" type="line" smooth="yes"/>
      <point x="187" y="59"/>
      <point x="177" y="68"/>
      <point x="177" y="94" type="curve" smooth="yes"/>
      <point x="177" y="118" type="line"/>
      <point x="172" y="117" type="line"/>
      <point x="172" y="64" type="line" smooth="yes"/>
      <point x="172" y="18"/>
      <point x="194" y="0"/>
      <point x="232" y="0" type="curve" smooth="yes"/>
      <point x="468" y="0" type="line" smooth="yes"/>
      <point x="521" y="0"/>
      <point x="547" y="26"/>
      <point x="547" y="79" type="curve" smooth="yes"/>
      <point x="547" y="261" type="line"/>
    </contour>
    <contour>
      <point x="547" y="226" type="line"/>
      <point x="547" y="406" type="line" smooth="yes"/>
      <point x="547" y="459"/>
      <point x="521" y="485"/>
      <point x="468" y="485" type="curve" smooth="yes"/>
      <point x="232" y="485" type="line" smooth="yes"/>
      <point x="194" y="485"/>
      <point x="172" y="467"/>
      <point x="172" y="421" type="curve" smooth="yes"/>
      <point x="172" y="357" type="line"/>
      <point x="177" y="357" type="line"/>
      <point x="177" y="391" type="line" smooth="yes"/>
      <point x="177" y="417"/>
      <point x="187" y="426"/>
      <point x="211" y="426" type="curve" smooth="yes"/>
      <point x="430" y="426" type="line" smooth="yes"/>
      <point x="456" y="426"/>
      <point x="461" y="421"/>
      <point x="461" y="395" type="curve" smooth="yes"/>
      <point x="461" y="226" type="line"/>
    </contour>
    <contour>
      <point x="90" y="669" type="line"/>
      <point x="90" y="0" type="line"/>
      <point x="176" y="0" type="line"/>
      <point x="176" y="669" type="line"/>
    </contour>
  </outline>
</glyph>
<glyph name="e" format="1">
  <advance width="617"/>
  <unicode hex="0065"/>
  <outline>
    <contour>
      <point x="166" y="395" type="line"/>
      <point x="166" y="421"/>
      <point x="171" y="426"/>
      <point x="197" y="426" type="curve" smooth="yes"/>
      <point x="412" y="426" type="line"/>
      <point x="412" y="485" type="line"/>
      <point x="159" y="485" type="line" smooth="yes"/>
      <point x="106" y="485"/>
      <point x="80" y="459"/>
      <point x="80" y="406" type="curve" smooth="yes"/>
      <point x="80" y="79" type="line" smooth="yes"/>
      <point x="80" y="26"/>
      <point x="106" y="0"/>
      <point x="159" y="0" type="curve" smooth="yes"/>
      <point x="405" y="0" type="line"/>
      <point x="405" y="59" type="line"/>
      <point x="197" y="59" type="line" smooth="yes"/>
      <point x="171" y="59"/>
      <point x="166" y="64"/>
      <point x="166" y="90" type="curve" smooth="yes"/>
    </contour>
    <contour>
      <point x="462" y="232" type="line"/>
      <point x="547" y="232" type="line"/>
      <point x="547" y="406" type="line" smooth="yes"/>
      <point x="547" y="459"/>
      <point x="521" y="485"/>
      <point x="468" y="485" type="curve" smooth="yes"/>
      <point x="214" y="485" type="line"/>
      <point x="214" y="426" type="line"/>
      <point x="431" y="426" type="line" smooth="yes"/>
      <point x="457" y="426"/>
      <point x="462" y="421"/>
      <point x="462" y="395" type="curve" smooth="yes"/>
    </contour>
    <contour>
      <point x="459" y="90" type="line"/>
      <point x="459" y="64"/>
      <point x="454" y="59"/>
      <point x="428" y="59" type="curve" smooth="yes"/>
      <point x="214" y="59" type="line"/>
      <point x="214" y="0" type="line"/>
      <point x="465" y="0" type="line" smooth="yes"/>
      <point x="518" y="0"/>
      <point x="544" y="26"/>
      <point x="544" y="79" type="curve" smooth="yes"/>
      <point x="544" y="137" type="line"/>
      <point x="459" y="137" type="line"/>
    </contour>
    <contour>
      <point x="547" y="278" type="line"/>
      <point x="119" y="278" type="line"/>
      <point x="119" y="219" type="line"/>
      <point x="547" y="219" type="line"/>
    </contour>
  </outline>
</glyph>
<glyph name="f" format="1">
  <advance width="372"/>
  <unicode hex="0066"/>
  <outline>
    <contour>
      <point x="218" y="575" type="line"/>
      <point x="218" y="601"/>
      <point x="223" y="606"/>
      <point x="249" y="606" type="curve" smooth="yes"/>
      <point x="362" y="606" type="line"/>
      <point x="362" y="669" type="line"/>
      <point x="211" y="669" type="line" smooth="yes"/>
      <point x="158" y="669"/>
      <point x="132" y="643"/>
      <point x="132" y="590" type="curve" smooth="yes"/>
      <point x="132" y="0" type="line"/>
      <point x="218" y="0" type="line"/>
    </contour>
    <contour>
      <point x="362" y="485" type="line"/>
      <point x="60" y="485" type="line"/>
      <point x="60" y="426" type="line"/>
      <point x="362" y="426" type="line"/>
    </contour>
  </outline>
</glyph>
<glyph name="h" format="1">
  <advance width="628"/>
  <unicode hex="0068"/>
  <outline>
    <contour>
      <point x="548" y="0" type="line"/>
      <point x="548" y="406" type="line" smooth="yes"/>
      <point x="548" y="459"/>
      <point x="522" y="485"/>
      <point x="469" y="485" type="curve" smooth="yes"/>
      <point x="232" y="485" type="line" smooth="yes"/>
      <point x="194" y="485"/>
      <point x="172" y="467"/>
      <point x="172" y="421" type="curve" smooth="yes"/>
      <point x="172" y="360" type="line"/>
      <point x="177" y="360" type="line"/>
      <point x="177" y="391" type="line" smooth="yes"/>
      <point x="177" y="417"/>
      <point x="187" y="426"/>
      <point x="211" y="426" type="curve" smooth="yes"/>
      <point x="431" y="426" type="line" smooth="yes"/>
      <point x="457" y="426"/>
      <point x="462" y="421"/>
      <point x="462" y="395" type="curve" smooth="yes"/>
      <point x="462" y="0" type="line"/>
    </contour>
    <contour>
      <point x="176" y="0" type="line"/>
      <point x="176" y="669" type="line"/>
      <point x="90" y="669" type="line"/>
      <point x="90" y="0" type="line"/>
    </contour>
  </outline>
</glyph>
<glyph name="j" format="1">
  <advance width="277"/>
  <unicode hex="006A"/>
  <outline>
    <contour>
      <point x="100" y="-51" type="line"/>
      <point x="100" y="-77"/>
      <point x="95" y="-82"/>
      <point x="69" y="-82" type="curve" smooth="yes"/>
      <point x="-40" y="-82" type="line"/>
      <point x="-40" y="-141" type="line"/>
      <point x="108" y="-141" type="line" smooth="yes"/>
      <point x="161" y="-141"/>
      <point x="187" y="-115"/>
      <point x="187" y="-62" type="curve" smooth="yes"/>
      <point x="187" y="485" type="line"/>
      <point x="100" y="485" type="line"/>
    </contour>
    <contour>
      <point x="98" y="584" type="line"/>
      <point x="189" y="584" type="line"/>
      <point x="189" y="670" type="line"/>
      <point x="98" y="670" type="line"/>
    </contour>
  </outline>
</glyph>
<glyph name="k" format="1">
  <advance width="603"/>
  <unicode hex="006B"/>
  <outline>
    <contour>
      <point x="176" y="0" type="line"/>
      <point x="176" y="669" type="line"/>
      <point x="90" y="669" type="line"/>
      <point x="90" y="0" type="line"/>
    </contour>
    <contour>
      <point x="206" y="245" type="line"/>
      <point x="468" y="0" type="line"/>
      <point x="582" y="0" type="line"/>
      <point x="316" y="245" type="line"/>
    </contour>
    <contour>
      <point x="316" y="245" type="line"/>
      <point x="582" y="485" type="line"/>
      <point x="468" y="485" type="line"/>
      <point x="206" y="245" type="line"/>
    </contour>
  </outline>
</glyph>
<glyph name="n" format="1">
  <advance width="627"/>
  <unicode hex="006E"/>
  <outline>
    <contour>
      <point x="176" y="0" type="line"/>
      <point x="176" y="485" type="line"/>
      <point x="90" y="485" type="line"/>
      <point x="90" y="0" type="line"/>
    </contour>
    <contour>
      <point x="547" y="0" type="line"/>
      <point x="547" y="406" type="line" smooth="yes"/>
      <point x="547" y="459"/>
      <point x="521" y="485"/>
      <point x="468" y="485" type="curve" smooth="yes"/>
      <point x="232" y="485" type="line" smooth="yes"/>
      <point x="194" y="485"/>
      <point x="172" y="467"/>
      <point x="172" y="421" type="curve" smooth="yes"/>
      <point x="172" y="358" type="line"/>
      <point x="177" y="358" type="line"/>
      <point x="177" y="391" type="line" smooth="yes"/>
      <point x="177" y="417"/>
      <point x="187" y="426"/>
      <point x="211" y="426" type="curve" smooth="yes"/>
      <point x="430" y="426" type="line" smooth="yes"/>
      <point x="456" y="426"/>
      <point x="461" y="421"/>
      <point x="461" y="395" type="curve" smooth="yes"/>
      <point x="461" y="0" type="line"/>
    </contour>
  </outline>
</glyph>
<glyph name="o" format="1">
  <advance width="620"/>
  <unicode hex="006F"/>
  <outline>
    <contour>
      <point x="455" y="90" type="line"/>
      <point x="455" y="64"/>
      <point x="450" y="59"/>
      <point x="424" y="59" type="curve" smooth="yes"/>
      <point x="216" y="59" type="line"/>
      <point x="216" y="0" type="line"/>
      <point x="461" y="0" type="line" smooth="yes"/>
      <point x="514" y="0"/>
      <point x="540" y="26"/>
      <point x="540" y="79" type="curve" smooth="yes"/>
      <point x="540" y="406" type="line" smooth="yes"/>
      <point x="540" y="459"/>
      <point x="514" y="485"/>
      <point x="461" y="485" type="curve" smooth="yes"/>
      <point x="391" y="485" type="line"/>
      <point x="391" y="426" type="line"/>
      <point x="424" y="426" type="line" smooth="yes"/>
      <point x="450" y="426"/>
      <point x="455" y="421"/>
      <point x="455" y="395" type="curve" smooth="yes"/>
    </contour>
    <contour>
      <point x="165" y="395" type="line"/>
      <point x="165" y="421"/>
      <point x="170" y="426"/>
      <point x="196" y="426" type="curve" smooth="yes"/>
      <point x="397" y="426" type="line"/>
      <point x="397" y="485" type="line"/>
      <point x="159" y="485" type="line" smooth="yes"/>
      <point x="106" y="485"/>
      <point x="80" y="459"/>
      <point x="80" y="406" type="curve" smooth="yes"/>
      <point x="80" y="79" type="line" smooth="yes"/>
      <point x="80" y="26"/>
      <point x="106" y="0"/>
      <point x="159" y="0" type="curve" smooth="yes"/>
      <point x="394" y="0" type="line"/>
      <point x="394" y="59" type="line"/>
      <point x="196" y="59" type="line" smooth="yes"/>
      <point x="170" y="59"/>
      <point x="165" y="64"/>
      <point x="165" y="90" type="curve" smooth="yes"/>
    </contour>
  </outline>
</glyph>
<glyph name="t" format="1">
  <advance width="366"/>
  <unicode hex="0074"/>
  <outline>
    <contour>
      <point x="204" y="569" type="line"/>
      <point x="118" y="569" type="line"/>
      <point x="118" y="79" type="line" smooth="yes"/>
      <point x="118" y="26"/>
      <point x="144" y="0"/>
      <point x="197" y="0" type="curve" smooth="yes"/>
      <point x="325" y="0" type="line"/>
      <point x="325" y="64" type="line"/>
      <point x="235" y="64" type="line" smooth="yes"/>
      <point x="209" y="64"/>
      <point x="204" y="69"/>
      <point x="204" y="95" type="curve" smooth="yes"/>
    </contour>
    <contour>
      <point x="326" y="485" type="line"/>
      <point x="40" y="485" type="line"/>
      <point x="40" y="426" type="line"/>
      <point x="326" y="426" type="line"/>
    </contour>
  </outline>
</glyph>
<glyph name="v" format="1">
  <advance width="592"/>
  <unicode hex="0076"/>
  <outline>
    <contour>
      <point x="116" y="485" type="line"/>
      <point x="295" y="58" type="line"/>
      <point x="477" y="485" type="line"/>
      <point x="562" y="485" type="line"/>
      <point x="359" y="0" type="line"/>
      <point x="232" y="0" type="line"/>
      <point x="30" y="485" type="line"/>
    </contour>
  </outline>
</glyph>
<glyph name="w" format="1">
  <advance width="884"/>
  <unicode hex="0077"/>
  <outline>
    <contour>
      <point x="772" y="485" type="line"/>
      <point x="622" y="58" type="line"/>
      <point x="496" y="485" type="line"/>
      <point x="390" y="485" type="line"/>
      <point x="262" y="58" type="line"/>
      <point x="112" y="485" type="line"/>
      <point x="30" y="485" type="line"/>
      <point x="201" y="0" type="line"/>
      <point x="322" y="0" type="line"/>
      <point x="442" y="413" type="line"/>
      <point x="564" y="0" type="line"/>
      <point x="685" y="0" type="line"/>
      <point x="854" y="485" type="line"/>
    </contour>
  </outline>
</glyph>
<glyph name="x" format="1">
  <advance width="602"/>
  <unicode hex="0078"/>
  <outline>
    <contour>
      <point x="357" y="244" type="line"/>
      <point x="572" y="485" type="line"/>
      <point x="473" y="485" type="line"/>
      <point x="308" y="293" type="line"/>
      <point x="147" y="485" type="line"/>
      <point x="46" y="485" type="line"/>
      <point x="254" y="242" type="line"/>
      <point x="34" y="0" type="line"/>
      <point x="132" y="0" type="line"/>
      <point x="304" y="191" type="line"/>
      <point x="470" y="0" type="line"/>
      <point x="568" y="0" type="line"/>
    </contour>
  </outline>
</glyph>
<glyph name="braceleft" format="1">
  <advance width="403"/>
  <unicode hex="007B"/>
  <outline>
    <contour>
      <point x="273" y="619" type="line"/>
      <point x="273" y="648"/>
      <point x="281" y="661"/>
      <point x="311" y="661" type="curve" smooth="yes"/>
      <point x="443" y="661" type="line"/>
      <point x="443" y="720" type="line"/>
      <point x="278" y="720" type="line" smooth="yes"/>
      <point x="209" y="720"/>
      <point x="187" y="688"/>
      <point x="187" y="626" type="curve" smooth="yes"/>
      <point x="187" y="390" type="line" smooth="yes"/>
      <point x="187" y="311"/>
      <point x="160" y="277"/>
      <point x="98" y="277" type="curve" smooth="yes"/>
      <point x="80" y="277" type="line"/>
      <point x="80" y="218" type="line"/>
      <point x="98" y="218" type="line" smooth="yes"/>
      <point x="160" y="218"/>
      <point x="187" y="184"/>
      <point x="187" y="106" type="curve" smooth="yes"/>
      <point x="187" y="-127" type="line" smooth="yes"/>
      <point x="187" y="-189"/>
      <point x="209" y="-221"/>
      <point x="278" y="-221" type="curve" smooth="yes"/>
      <point x="443" y="-221" type="line"/>
      <point x="443" y="-162" type="line"/>
      <point x="311" y="-162" type="line" smooth="yes"/>
      <point x="281" y="-162"/>
      <point x="273" y="-149"/>
      <point x="273" y="-120" type="curve" smooth="yes"/>
      <point x="273" y="127" type="line" smooth="yes"/>
      <point x="273" y="195"/>
      <point x="248" y="241"/>
      <point x="196" y="247" type="curve"/>
      <point x="248" y="253"/>
      <point x="273" y="298"/>
      <point x="273" y="368" type="curve" smooth="yes"/>
    </contour>
  </outline>
</glyph>
<glyph name="bar" format="1">
  <advance width="284"/>
  <unicode hex="007C"/>
  <outline>
    <contour>
      <point x="100" y="728" type="line"/>
      <point x="100" y="-107" type="line"/>
      <point x="184" y="-107" type="line"/>
      <point x="184" y="728" type="line"/>
    </contour>
  </outline>
</glyph>
<glyph name="currency" format="1">
  <advance width="711"/>
  <unicode hex="00A4"/>
  <outline>
    <contour>
      <point x="608" y="398" type="line"/>
      <point x="608" y="456"/>
      <point x="580" y="486"/>
      <point x="514" y="486" type="curve" smooth="yes"/>
      <point x="204" y="486" type="line" smooth="yes"/>
      <point x="138" y="486"/>
      <point x="110" y="456"/>
      <point x="110" y="398" type="curve" smooth="yes"/>
      <point x="110" y="199" type="line" smooth="yes"/>
      <point x="110" y="141"/>
      <point x="138" y="111"/>
      <point x="204" y="111" type="curve" smooth="yes"/>
      <point x="514" y="111" type="line" smooth="yes"/>
      <point x="580" y="111"/>
      <point x="608" y="141"/>
      <point x="608" y="199" type="curve" smooth="yes"/>
    </contour>
    <contour>
      <point x="230" y="170" type="line"/>
      <point x="197" y="170"/>
      <point x="189" y="175"/>
      <point x="189" y="208" type="curve" smooth="yes"/>
      <point x="189" y="387" type="line" smooth="yes"/>
      <point x="189" y="420"/>
      <point x="197" y="427"/>
      <point x="230" y="427" type="curve" smooth="yes"/>
      <point x="489" y="427" type="line" smooth="yes"/>
      <point x="521" y="427"/>
      <point x="530" y="420"/>
      <point x="530" y="387" type="curve" smooth="yes"/>
      <point x="530" y="208" type="line" smooth="yes"/>
      <point x="530" y="175"/>
      <point x="521" y="170"/>
      <point x="489" y="170" type="curve" smooth="yes"/>
    </contour>
    <contour>
      <point x="207" y="451" type="line"/>
      <point x="120" y="537" type="line"/>
      <point x="66" y="483" type="line"/>
      <point x="153" y="397" type="line"/>
    </contour>
    <contour>
      <point x="558" y="397" type="line"/>
      <point x="645" y="483" type="line"/>
      <point x="591" y="537" type="line"/>
      <point x="504" y="451" type="line"/>
    </contour>
    <contour>
      <point x="153" y="201" type="line"/>
      <point x="66" y="115" type="line"/>
      <point x="120" y="62" type="line"/>
      <point x="207" y="147" type="line"/>
    </contour>
    <contour>
      <point x="504" y="147" type="line"/>
      <point x="591" y="62" type="line"/>
      <point x="645" y="115" type="line"/>
      <point x="558" y="201" type="line"/>
    </contour>
  </outline>
</glyph>
<glyph name="yen" format="1">
  <advance width="710"/>
  <unicode hex="00A5"/>
  <outline>
    <contour>
      <point x="316" y="328" type="line"/>
      <point x="108" y="328" type="line"/>
      <point x="108" y="269" type="line"/>
      <point x="316" y="269" type="line"/>
    </contour>
    <contour>
      <point x="611" y="200" type="line"/>
      <point x="108" y="200" type="line"/>
      <point x="108" y="141" type="line"/>
      <point x="611" y="141" type="line"/>
    </contour>
    <contour>
      <point x="402" y="198" type="line"/>
      <point x="661" y="622" type="line"/>
      <point x="572" y="622" type="line"/>
      <point x="360" y="274" type="line"/>
      <point x="139" y="622" type="line"/>
      <point x="49" y="622" type="line"/>
      <point x="319" y="198" type="line"/>
    </contour>
    <contour>
      <point x="317" y="243" type="line"/>
      <point x="317" y="0" type="line"/>
      <point x="404" y="0" type="line"/>
      <point x="404" y="243" type="line"/>
    </contour>
    <contour>
      <point x="403" y="269" type="line"/>
      <point x="611" y="269" type="line"/>
      <point x="611" y="328" type="line"/>
      <point x="403" y="328" type="line"/>
    </contour>
  </outline>
</glyph>
<glyph name="section" format="1">
  <advance width="610"/>
  <unicode hex="00A7"/>
  <outline>
    <contour>
      <point x="480" y="203" type="curve"/>
      <point x="515" y="210"/>
      <point x="530" y="242"/>
      <point x="530" y="288" type="curve" smooth="yes"/>
      <point x="530" y="374" type="line" smooth="yes"/>
      <point x="530" y="427"/>
      <point x="504" y="453"/>
      <point x="451" y="453" type="curve" smooth="yes"/>
      <point x="234" y="453" type="line" smooth="yes"/>
      <point x="208" y="453"/>
      <point x="203" y="458"/>
      <point x="203" y="484" type="curve" smooth="yes"/>
      <point x="203" y="576" type="line" smooth="yes"/>
      <point x="203" y="602"/>
      <point x="208" y="607"/>
      <point x="234" y="607" type="curve" smooth="yes"/>
      <point x="412" y="607" type="line" smooth="yes"/>
      <point x="438" y="607"/>
      <point x="443" y="602"/>
      <point x="443" y="576" type="curve" smooth="yes"/>
      <point x="443" y="536" type="line"/>
      <point x="530" y="536" type="line"/>
      <point x="530" y="587" type="line" smooth="yes"/>
      <point x="530" y="640"/>
      <point x="504" y="666"/>
      <point x="451" y="666" type="curve" smooth="yes"/>
      <point x="195" y="666" type="line" smooth="yes"/>
      <point x="142" y="666"/>
      <point x="116" y="640"/>
      <point x="116" y="587" type="curve" smooth="yes"/>
      <point x="116" y="473" type="line" smooth="yes"/>
      <point x="116" y="452"/>
      <point x="123" y="438"/>
      <point x="130" y="428" type="curve"/>
      <point x="95" y="419"/>
      <point x="80" y="387"/>
      <point x="80" y="342" type="curve" smooth="yes"/>
      <point x="80" y="257" type="line" smooth="yes"/>
      <point x="80" y="204"/>
      <point x="106" y="178"/>
      <point x="159" y="178" type="curve" smooth="yes"/>
      <point x="376" y="178" type="line" smooth="yes"/>
      <point x="401" y="178"/>
      <point x="406" y="173"/>
      <point x="406" y="147" type="curve" smooth="yes"/>
      <point x="406" y="55" type="line" smooth="yes"/>
      <point x="406" y="29"/>
      <point x="401" y="24"/>
      <point x="376" y="24" type="curve" smooth="yes"/>
      <point x="198" y="24" type="line" smooth="yes"/>
      <point x="172" y="24"/>
      <point x="167" y="29"/>
      <point x="167" y="55" type="curve" smooth="yes"/>
      <point x="167" y="95" type="line"/>
      <point x="80" y="95" type="line"/>
      <point x="80" y="44" type="line" smooth="yes"/>
      <point x="80" y="-9"/>
      <point x="106" y="-35"/>
      <point x="159" y="-35" type="curve" smooth="yes"/>
      <point x="414" y="-35" type="line" smooth="yes"/>
      <point x="467" y="-35"/>
      <point x="493" y="-9"/>
      <point x="493" y="44" type="curve" smooth="yes"/>
      <point x="493" y="157" type="line" smooth="yes"/>
      <point x="493" y="177"/>
      <point x="487" y="192"/>
    </contour>
    <contour>
      <point x="412" y="394" type="line"/>
      <point x="438" y="394"/>
      <point x="443" y="389"/>
      <point x="443" y="363" type="curve" smooth="yes"/>
      <point x="443" y="268" type="line" smooth="yes"/>
      <point x="443" y="242"/>
      <point x="438" y="237"/>
      <point x="412" y="237" type="curve" smooth="yes"/>
      <point x="198" y="237" type="line" smooth="yes"/>
      <point x="172" y="237"/>
      <point x="167" y="242"/>
      <point x="167" y="268" type="curve" smooth="yes"/>
      <point x="167" y="363" type="line" smooth="yes"/>
      <point x="167" y="389"/>
      <point x="172" y="394"/>
      <point x="198" y="394" type="curve" smooth="yes"/>
    </contour>
  </outline>
</glyph>
<glyph name="dieresis" format="1">
  <advance width="600"/>
  <unicode hex="00A8"/>
  <outline>
    <contour>
      <point x="368" y="625" type="line"/>
      <point x="368" y="542" type="line"/>
      <point x="491" y="542" type="line"/>
      <point x="491" y="625" type="line"/>
    </contour>
    <contour>
      <point x="108" y="625" type="line"/>
      <point x="108" y="542" type="line"/>
      <point x="231" y="542" type="line"/>
      <point x="231" y="625" type="line"/>
    </contour>
  </outline>
</glyph>
<glyph name="logicalnot" format="1">
  <advance width="745"/>
  <unicode hex="00AC"/>
  <outline>
    <contour>
      <point x="676" y="396" type="line"/>
      <point x="60" y="396" type="line"/>
      <point x="60" y="318" type="line"/>
      <point x="676" y="318" type="line"/>
    </contour>
    <contour>
      <point x="685" y="169" type="line"/>
      <point x="685" y="396" type="line"/>
      <point x="619" y="396" type="line"/>
      <point x="619" y="169" type="line"/>
    </contour>
  </outline>
</glyph>
<glyph name="softhyphen" format="1">
  <advance width="321"/>
  <unicode hex="00AD"/>
  <outline>
    <contour>
      <point x="55" y="261" type="line"/>
      <point x="265" y="261" type="line"/>
      <point x="265" y="319" type="line"/>
      <point x="55" y="319" type="line"/>
    </contour>
  </outline>
</glyph>
<glyph name="registered" format="1">
  <advance width="611"/>
  <unicode hex="00AE"/>
  <outline>
    <contour>
      <point x="551" y="527" type="line"/>
      <point x="551" y="628"/>
      <point x="515" y="682"/>
      <point x="426" y="682" type="curve" smooth="yes"/>
      <point x="185" y="682" type="line" smooth="yes"/>
      <point x="96" y="682"/>
      <point x="60" y="628"/>
      <point x="60" y="527" type="curve" smooth="yes"/>
      <point x="60" y="488" type="line" smooth="yes"/>
      <point x="60" y="387"/>
      <point x="96" y="337"/>
      <point x="185" y="337" type="curve" smooth="yes"/>
      <point x="426" y="337" type="line" smooth="yes"/>
      <point x="515" y="337"/>
      <point x="551" y="387"/>
      <point x="551" y="488" type="curve" smooth="yes"/>
    </contour>
    <contour>
      <point x="189" y="380" type="line"/>
      <point x="131" y="380"/>
      <point x="114" y="425"/>
      <point x="114" y="487" type="curve" smooth="yes"/>
      <point x="114" y="528" type="line" smooth="yes"/>
      <point x="114" y="590"/>
      <point x="131" y="642"/>
      <point x="189" y="642" type="curve" smooth="yes"/>
      <point x="423" y="642" type="line" smooth="yes"/>
      <point x="481" y="642"/>
      <point x="498" y="590"/>
      <point x="498" y="528" type="curve" smooth="yes"/>
      <point x="498" y="487" type="line" smooth="yes"/>
      <point x="498" y="425"/>
      <point x="481" y="380"/>
      <point x="423" y="380" type="curve" smooth="yes"/>
    </contour>
    <contour>
      <point x="212" y="609" type="line"/>
      <point x="212" y="413" type="line"/>
      <point x="259" y="413" type="line"/>
      <point x="259" y="485" type="line"/>
      <point x="301" y="485" type="line"/>
      <point x="348" y="413" type="line"/>
      <point x="400" y="413" type="line"/>
      <point x="352" y="486" type="line"/>
      <point x="360" y="486" type="line" smooth="yes"/>
      <point x="383" y="486"/>
      <point x="391" y="502"/>
      <point x="391" y="520" type="curve" smooth="yes"/>
      <point x="391" y="576" type="line" smooth="yes"/>
      <point x="391" y="598"/>
      <point x="379" y="609"/>
      <point x="356" y="609" type="curve" smooth="yes"/>
    </contour>
    <contour>
      <point x="343" y="535" type="line"/>
      <point x="343" y="527"/>
      <point x="340" y="524"/>
      <point x="332" y="524" type="curve" smooth="yes"/>
      <point x="260" y="524" type="line"/>
      <point x="260" y="573" type="line"/>
      <point x="332" y="573" type="line"/>
      <point x="340" y="573"/>
      <point x="343" y="570"/>
      <point x="343" y="562" type="curve"/>
    </contour>
  </outline>
</glyph>
<glyph name="degree" format="1">
  <advance width="547"/>
  <unicode hex="00B0"/>
  <outline>
    <contour>
      <point x="487" y="545" type="line"/>
      <point x="487" y="597"/>
      <point x="462" y="622"/>
      <point x="410" y="622" type="curve" smooth="yes"/>
      <point x="137" y="622" type="line" smooth="yes"/>
      <point x="85" y="622"/>
      <point x="60" y="597"/>
      <point x="60" y="545" type="curve" smooth="yes"/>
      <point x="60" y="414" type="line" smooth="yes"/>
      <point x="60" y="362"/>
      <point x="85" y="337"/>
      <point x="137" y="337" type="curve" smooth="yes"/>
      <point x="410" y="337" type="line" smooth="yes"/>
      <point x="462" y="337"/>
      <point x="487" y="362"/>
      <point x="487" y="414" type="curve" smooth="yes"/>
    </contour>
    <contour>
      <point x="407" y="424" type="line"/>
      <point x="407" y="398"/>
      <point x="402" y="393"/>
      <point x="376" y="393" type="curve" smooth="yes"/>
      <point x="172" y="393" type="line" smooth="yes"/>
      <point x="146" y="393"/>
      <point x="141" y="398"/>
      <point x="141" y="424" type="curve" smooth="yes"/>
      <point x="141" y="536" type="line" smooth="yes"/>
      <point x="141" y="561"/>
      <point x="146" y="566"/>
      <point x="172" y="566" type="curve" smooth="yes"/>
      <point x="376" y="566" type="line" smooth="yes"/>
      <point x="402" y="566"/>
      <point x="407" y="561"/>
      <point x="407" y="536" type="curve" smooth="yes"/>
    </contour>
  </outline>
</glyph>
<glyph name="twosuperior" format="1">
  <advance width="380"/>
  <unicode hex="00B2"/>
  <outline>
    <contour>
      <point x="127" y="563" type="line"/>
      <point x="127" y="577"/>
      <point x="130" y="580"/>
      <point x="144" y="580" type="curve" smooth="yes"/>
      <point x="255" y="580" type="line" smooth="yes"/>
      <point x="269" y="580"/>
      <point x="272" y="577"/>
      <point x="272" y="563" type="curve" smooth="yes"/>
      <point x="272" y="543" type="line" smooth="yes"/>
      <point x="272" y="507"/>
      <point x="259" y="485"/>
      <point x="238" y="467" type="curve" smooth="yes"/>
      <point x="71" y="324" type="line"/>
      <point x="71" y="280" type="line"/>
      <point x="327" y="280" type="line"/>
      <point x="327" y="325" type="line"/>
      <point x="144" y="325" type="line"/>
      <point x="287" y="442" type="line" smooth="yes"/>
      <point x="315" y="465"/>
      <point x="330" y="495"/>
      <point x="330" y="541" type="curve" smooth="yes"/>
      <point x="330" y="579" type="line" smooth="yes"/>
      <point x="330" y="608"/>
      <point x="316" y="622"/>
      <point x="287" y="622" type="curve" smooth="yes"/>
      <point x="113" y="622" type="line" smooth="yes"/>
      <point x="84" y="622"/>
      <point x="70" y="608"/>
      <point x="70" y="579" type="curve" smooth="yes"/>
      <point x="70" y="511" type="line"/>
      <point x="127" y="511" type="line"/>
    </contour>
  </outline>
</glyph>
<glyph name="acute" format="1">
  <advance width="600"/>
  <unicode hex="00B4"/>
  <outline>
    <contour>
      <point x="170" y="506" type="line"/>
      <point x="258" y="506" type="line"/>
      <point x="420" y="649" type="line"/>
      <point x="310" y="649" type="line"/>
    </contour>
  </outline>
</glyph>
<glyph name="periodcentered" format="1">
  <advance width="259"/>
  <unicode hex="00B7"/>
  <outline>
    <contour>
      <point x="80" y="257" type="line"/>
      <point x="179" y="257" type="line"/>
      <point x="179" y="373" type="line"/>
      <point x="80" y="373" type="line"/>
    </contour>
  </outline>
</glyph>
<glyph name="guillemotright" format="1">
  <advance width="518"/>
  <unicode hex="00BB"/>
  <outline>
    <contour>
      <point x="464" y="260" type="line"/>
      <point x="340" y="415" type="line"/>
      <point x="246" y="415" type="line"/>
      <point x="372" y="259" type="line"/>
      <point x="246" y="105" type="line"/>
      <point x="340" y="105" type="line"/>
    </contour>
    <contour>
      <point x="258" y="260" type="line"/>
      <point x="134" y="415" type="line"/>
      <point x="40" y="415" type="line"/>
      <point x="166" y="259" type="line"/>
      <point x="40" y="105" type="line"/>
      <point x="134" y="105" type="line"/>
    </contour>
  </outline>
</glyph>
<glyph name="onequarter" format="1">
  <advance width="818"/>
  <unicode hex="00BC"/>
  <outline>
    <contour>
      <point x="467" y="56" type="line"/>
      <point x="788" y="56" type="line"/>
      <point x="788" y="98" type="line"/>
      <point x="467" y="98" type="line"/>
    </contour>
    <contour>
      <point x="447" y="56" type="line"/>
      <point x="495" y="56" type="line"/>
      <point x="676" y="343" type="line"/>
      <point x="610" y="343" type="line"/>
      <point x="447" y="88" type="line"/>
    </contour>
    <contour>
      <point x="663" y="181" type="line"/>
      <point x="663" y="0" type="line"/>
      <point x="723" y="0" type="line"/>
      <point x="723" y="181" type="line"/>
    </contour>
    <component base="slash" xOffset="124"/>
    <component base="onesuperior" xOffset="10"/>
  </outline>
</glyph>
<glyph name="questiondown" format="1">
  <advance width="615"/>
  <unicode hex="00BF"/>
  <outline>
    <contour>
      <point x="177" y="127" type="line"/>
      <point x="177" y="151"/>
      <point x="180" y="159"/>
      <point x="205" y="159" type="curve" smooth="yes"/>
      <point x="342" y="159" type="line"/>
      <point x="342" y="219" type="line"/>
      <point x="169" y="219" type="line" smooth="yes"/>
      <point x="114" y="219"/>
      <point x="90" y="188"/>
      <point x="90" y="141" type="curve" smooth="yes"/>
      <point x="90" y="-61" type="line" smooth="yes"/>
      <point x="90" y="-108"/>
      <point x="114" y="-138"/>
      <point x="169" y="-138" type="curve" smooth="yes"/>
      <point x="450" y="-138" type="line"/>
      <point x="450" y="-80" type="line"/>
      <point x="205" y="-80" type="line" smooth="yes"/>
      <point x="180" y="-80"/>
      <point x="177" y="-71"/>
      <point x="177" y="-47" type="curve"/>
    </contour>
    <contour>
      <point x="381" y="159" type="line"/>
      <point x="374" y="286" type="line"/>
      <point x="302" y="286" type="line"/>
      <point x="294" y="159" type="line"/>
    </contour>
    <contour>
      <point x="388" y="484" type="line"/>
      <point x="289" y="484" type="line"/>
      <point x="289" y="368" type="line"/>
      <point x="388" y="368" type="line"/>
    </contour>
    <contour>
      <point x="488" y="-47" type="line"/>
      <point x="488" y="-71"/>
      <point x="485" y="-80"/>
      <point x="459" y="-80" type="curve" smooth="yes"/>
      <point x="217" y="-80" type="line"/>
      <point x="217" y="-138" type="line"/>
      <point x="496" y="-138" type="line" smooth="yes"/>
      <point x="552" y="-138"/>
      <point x="575" y="-108"/>
      <point x="575" y="-61" type="curve" smooth="yes"/>
      <point x="575" y="49" type="line"/>
      <point x="488" y="49" type="line"/>
    </contour>
  </outline>
</glyph>
<glyph name="AE" format="1">
  <advance width="1014"/>
  <unicode hex="00C6"/>
  <outline>
    <contour>
      <point x="579" y="622" type="line"/>
      <point x="487" y="622" type="line"/>
      <point x="31" y="0" type="line"/>
      <point x="126" y="0" type="line"/>
    </contour>
    <contour>
      <point x="549" y="204" type="line"/>
      <point x="205" y="204" type="line"/>
      <point x="205" y="145" type="line"/>
      <point x="549" y="145" type="line"/>
    </contour>
    <contour>
      <point x="528" y="622" type="line"/>
      <point x="528" y="0" type="line"/>
      <point x="616" y="0" type="line"/>
      <point x="616" y="622" type="line"/>
    </contour>
    <contour>
      <point x="954" y="59" type="line"/>
      <point x="575" y="59" type="line"/>
      <point x="575" y="0" type="line"/>
      <point x="954" y="0" type="line"/>
    </contour>
    <contour>
      <point x="910" y="348" type="line"/>
      <point x="577" y="348" type="line"/>
      <point x="577" y="289" type="line"/>
      <point x="910" y="289" type="line"/>
    </contour>
    <contour>
      <point x="941" y="622" type="line"/>
      <point x="575" y="622" type="line"/>
      <point x="575" y="563" type="line"/>
      <point x="941" y="563" type="line"/>
    </contour>
  </outline>
</glyph>
<glyph name="multiply" format="1">
  <advance width="657"/>
  <unicode hex="00D7"/>
  <outline>
    <contour>
      <point x="568" y="197" type="line"/>
      <point x="130" y="499" type="line"/>
      <point x="84" y="440" type="line"/>
      <point x="522" y="138" type="line"/>
    </contour>
    <contour>
      <point x="527" y="499" type="line"/>
      <point x="89" y="197" type="line"/>
      <point x="134" y="138" type="line"/>
      <point x="573" y="440" type="line"/>
    </contour>
  </outline>
</glyph>
<glyph name="germandbls" format="1">
  <advance width="810"/>
  <unicode hex="00DF"/>
  <outline>
    <contour>
      <point x="316" y="150" type="line"/>
      <point x="316" y="79" type="line" smooth="yes"/>
      <point x="316" y="26"/>
      <point x="342" y="0"/>
      <point x="395" y="0" type="curve" smooth="yes"/>
      <point x="671" y="0" type="line" smooth="yes"/>
      <point x="724" y="0"/>
      <point x="750" y="26"/>
      <point x="750" y="79" type="curve" smooth="yes"/>
      <point x="750" y="211" type="line" smooth="yes"/>
      <point x="750" y="264"/>
      <point x="724" y="290"/>
      <point x="671" y="290" type="curve" smooth="yes"/>
      <point x="427" y="290" type="line" smooth="yes"/>
      <point x="401" y="290"/>
      <point x="396" y="295"/>
      <point x="396" y="321" type="curve" smooth="yes"/>
      <point x="396" y="378" type="line" smooth="yes"/>
      <point x="396" y="404"/>
      <point x="401" y="409"/>
      <point x="427" y="409" type="curve" smooth="yes"/>
      <point x="650" y="409" type="line" smooth="yes"/>
      <point x="694" y="409"/>
      <point x="719" y="432"/>
      <point x="719" y="475" type="curve" smooth="yes"/>
      <point x="719" y="543" type="line" smooth="yes"/>
      <point x="719" y="596"/>
      <point x="693" y="622"/>
      <point x="640" y="622" type="curve" smooth="yes"/>
      <point x="179" y="622" type="line" smooth="yes"/>
      <point x="126" y="622"/>
      <point x="100" y="596"/>
      <point x="100" y="543" type="curve" smooth="yes"/>
      <point x="100" y="0" type="line"/>
      <point x="186" y="0" type="line"/>
      <point x="186" y="529" type="line" smooth="yes"/>
      <point x="186" y="555"/>
      <point x="192" y="561"/>
      <point x="218" y="561" type="curve" smooth="yes"/>
      <point x="603" y="561" type="line" smooth="yes"/>
      <point x="629" y="561"/>
      <point x="634" y="555"/>
      <point x="634" y="529" type="curve" smooth="yes"/>
      <point x="634" y="493" type="line" smooth="yes"/>
      <point x="634" y="471"/>
      <point x="628" y="467"/>
      <point x="598" y="467" type="curve" smooth="yes"/>
      <point x="388" y="467" type="line" smooth="yes"/>
      <point x="341" y="467"/>
      <point x="313" y="443"/>
      <point x="313" y="388" type="curve" smooth="yes"/>
      <point x="313" y="311" type="line" smooth="yes"/>
      <point x="313" y="258"/>
      <point x="339" y="232"/>
      <point x="392" y="232" type="curve" smooth="yes"/>
      <point x="635" y="232" type="line" smooth="yes"/>
      <point x="661" y="232"/>
      <point x="666" y="227"/>
      <point x="666" y="201" type="curve" smooth="yes"/>
      <point x="666" y="89" type="line" smooth="yes"/>
      <point x="666" y="63"/>
      <point x="661" y="58"/>
      <point x="635" y="58" type="curve" smooth="yes"/>
      <point x="431" y="58" type="line" smooth="yes"/>
      <point x="405" y="58"/>
      <point x="400" y="63"/>
      <point x="400" y="89" type="curve" smooth="yes"/>
      <point x="400" y="150" type="line"/>
    </contour>
  </outline>
</glyph>
<glyph name="igrave" format="1">
  <advance width="286"/>
  <unicode hex="00EC"/>
  <outline>
    <contour>
      <point x="186" y="0" type="line"/>
      <point x="186" y="485" type="line"/>
      <point x="100" y="485" type="line"/>
      <point x="100" y="0" type="line"/>
    </contour>
    <component base="grave" xOffset="-240" yOffset="26"/>
  </outline>
</glyph>
<glyph name="iacute" format="1">
  <advance width="286"/>
  <unicode hex="00ED"/>
  <outline>
    <contour>
      <point x="186" y="0" type="line"/>
      <point x="186" y="485" type="line"/>
      <point x="100" y="485" type="line"/>
      <point x="100" y="0" type="line"/>
    </contour>
    <component base="acute" xOffset="-65" yOffset="26"/>
  </outline>
</glyph>
<glyph name="eth" format="1">
  <advance width="687"/>
  <unicode hex="00F0"/>
  <outline>
    <contour>
      <point x="188" y="90" type="line"/>
      <point x="188" y="64"/>
      <point x="193" y="59"/>
      <point x="219" y="59" type="curve" smooth="yes"/>
      <point x="444" y="59" type="line"/>
      <point x="444" y="0" type="line"/>
      <point x="181" y="0" type="line" smooth="yes"/>
      <point x="128" y="0"/>
      <point x="102" y="26"/>
      <point x="102" y="79" type="curve" smooth="yes"/>
      <point x="102" y="300" type="line" smooth="yes"/>
      <point x="102" y="353"/>
      <point x="128" y="379"/>
      <point x="181" y="379" type="curve" smooth="yes"/>
      <point x="514" y="379" type="line"/>
      <point x="514" y="320" type="line"/>
      <point x="219" y="320" type="line" smooth="yes"/>
      <point x="193" y="320"/>
      <point x="188" y="315"/>
      <point x="188" y="289" type="curve" smooth="yes"/>
    </contour>
    <contour>
      <point x="498" y="321" type="line" smooth="yes"/>
      <point x="498" y="459"/>
      <point x="356" y="563"/>
      <point x="260" y="622" type="curve"/>
      <point x="375" y="622" type="line"/>
      <point x="450" y="569"/>
      <point x="584" y="457"/>
      <point x="584" y="318" type="curve" smooth="yes"/>
      <point x="584" y="79" type="line" smooth="yes"/>
      <point x="584" y="26"/>
      <point x="558" y="0"/>
      <point x="505" y="0" type="curve" smooth="yes"/>
      <point x="434" y="0" type="line"/>
      <point x="434" y="59" type="line"/>
      <point x="467" y="59" type="line" smooth="yes"/>
      <point x="493" y="59"/>
      <point x="498" y="64"/>
      <point x="498" y="90" type="curve" smooth="yes"/>
    </contour>
    <contour>
      <point x="261" y="434" type="line"/>
      <point x="261" y="488" type="line"/>
      <point x="585" y="579" type="line"/>
      <point x="585" y="525" type="line"/>
    </contour>
  </outline>
</glyph>
<glyph name="oslash" format="1">
  <advance width="640"/>
  <unicode hex="00F8"/>
  <outline>
    <contour>
      <point x="550" y="406" type="line"/>
      <point x="550" y="459"/>
      <point x="524" y="485"/>
      <point x="471" y="485" type="curve" smooth="yes"/>
      <point x="169" y="485" type="line" smooth="yes"/>
      <point x="116" y="485"/>
      <point x="90" y="459"/>
      <point x="90" y="406" type="curve" smooth="yes"/>
      <point x="90" y="79" type="line" smooth="yes"/>
      <point x="90" y="26"/>
      <point x="116" y="0"/>
      <point x="169" y="0" type="curve" smooth="yes"/>
      <point x="471" y="0" type="line" smooth="yes"/>
      <point x="524" y="0"/>
      <point x="550" y="26"/>
      <point x="550" y="79" type="curve" smooth="yes"/>
    </contour>
    <contour>
      <point x="468" y="86" type="line"/>
      <point x="468" y="59"/>
      <point x="463" y="54"/>
      <point x="436" y="54" type="curve" smooth="yes"/>
      <point x="205" y="54" type="line" smooth="yes"/>
      <point x="178" y="54"/>
      <point x="173" y="59"/>
      <point x="173" y="86" type="curve" smooth="yes"/>
      <point x="173" y="400" type="line" smooth="yes"/>
      <point x="173" y="426"/>
      <point x="178" y="431"/>
      <point x="205" y="431" type="curve" smooth="yes"/>
      <point x="436" y="431" type="line" smooth="yes"/>
      <point x="463" y="431"/>
      <point x="468" y="426"/>
      <point x="468" y="400" type="curve" smooth="yes"/>
    </contour>
    <contour>
      <point x="505" y="507" type="line"/>
      <point x="82" y="-22" type="line"/>
      <point x="146" y="-22" type="line"/>
      <point x="569" y="507" type="line"/>
    </contour>
  </outline>
</glyph>
<glyph name="thorn" format="1">
  <advance width="626"/>
  <unicode hex="00FE"/>
  <outline>
    <contour>
      <point x="546" y="234" type="line"/>
      <point x="546" y="415" type="line" smooth="yes"/>
      <point x="546" y="468"/>
      <point x="520" y="494"/>
      <point x="467" y="494" type="curve" smooth="yes"/>
      <point x="231" y="494" type="line" smooth="yes"/>
      <point x="193" y="494"/>
      <point x="171" y="476"/>
      <point x="171" y="430" type="curve" smooth="yes"/>
      <point x="171" y="366" type="line"/>
      <point x="176" y="366" type="line"/>
      <point x="176" y="400" type="line" smooth="yes"/>
      <point x="176" y="426"/>
      <point x="186" y="435"/>
      <point x="210" y="435" type="curve" smooth="yes"/>
      <point x="429" y="435" type="line" smooth="yes"/>
      <point x="455" y="435"/>
      <point x="460" y="430"/>
      <point x="460" y="404" type="curve" smooth="yes"/>
      <point x="460" y="234" type="line"/>
    </contour>
    <contour>
      <point x="176" y="-141" type="line"/>
      <point x="176" y="422" type="line"/>
      <point x="176" y="433" type="line"/>
      <point x="176" y="669" type="line"/>
      <point x="90" y="669" type="line"/>
      <point x="90" y="-141" type="line"/>
    </contour>
    <contour>
      <point x="460" y="270" type="line"/>
      <point x="460" y="100" type="line" smooth="yes"/>
      <point x="460" y="74"/>
      <point x="455" y="69"/>
      <point x="429" y="69" type="curve" smooth="yes"/>
      <point x="210" y="69" type="line" smooth="yes"/>
      <point x="186" y="69"/>
      <point x="176" y="78"/>
      <point x="176" y="104" type="curve" smooth="yes"/>
      <point x="176" y="128" type="line"/>
      <point x="171" y="127" type="line"/>
      <point x="171" y="74" type="line" smooth="yes"/>
      <point x="171" y="28"/>
      <point x="193" y="10"/>
      <point x="231" y="10" type="curve" smooth="yes"/>
      <point x="467" y="10" type="line" smooth="yes"/>
      <point x="520" y="10"/>
      <point x="546" y="36"/>
      <point x="546" y="89" type="curve" smooth="yes"/>
      <point x="546" y="270" type="line"/>
    </contour>
  </outline>
</glyph>
<glyph name="ydieresis" format="1">
  <advance width="577"/>
  <unicode hex="00FF"/>
  <outline>
    <contour>
      <point x="36" y="485" type="line"/>
      <point x="249" y="0" type="line"/>
      <point x="279" y="0" type="line"/>
      <point x="257" y="-45" type="line" smooth="yes"/>
      <point x="243" y="-73"/>
      <point x="221" y="-82"/>
      <point x="185" y="-82" type="curve" smooth="yes"/>
      <point x="119" y="-82" type="line"/>
      <point x="119" y="-141" type="line"/>
      <point x="214" y="-141" type="line" smooth="yes"/>
      <point x="283" y="-141"/>
      <point x="308" y="-108"/>
      <point x="331" y="-55" type="curve" smooth="yes"/>
      <point x="570" y="485" type="line"/>
      <point x="483" y="485" type="line"/>
      <point x="305" y="59" type="line"/>
      <point x="123" y="485" type="line"/>
    </contour>
    <contour>
      <point x="375" y="615" type="line"/>
      <point x="375" y="532" type="line"/>
      <point x="498" y="532" type="line"/>
      <point x="498" y="615" type="line"/>
    </contour>
    <contour>
      <point x="115" y="615" type="line"/>
      <point x="115" y="532" type="line"/>
      <point x="238" y="532" type="line"/>
      <point x="238" y="615" type="line"/>
    </contour>
  </outline>
</glyph>
<glyph name="Dcroat" format="1">
  <advance width="755"/>
  <unicode hex="0110"/>
  <outline>
    <contour>
      <point x="577" y="394" type="line"/>
      <point x="665" y="394" type="line"/>
      <point x="665" y="543" type="line" smooth="yes"/>
      <point x="665" y="596"/>
      <point x="639" y="622"/>
      <point x="586" y="622" type="curve" smooth="yes"/>
      <point x="206" y="622" type="line"/>
      <point x="206" y="563" type="line"/>
      <point x="546" y="563" type="line" smooth="yes"/>
      <point x="572" y="563"/>
      <point x="577" y="558"/>
      <point x="577" y="532" type="curve" smooth="yes"/>
    </contour>
    <contour>
      <point x="577" y="90" type="line" smooth="yes"/>
      <point x="577" y="64"/>
      <point x="572" y="59"/>
      <point x="546" y="59" type="curve" smooth="yes"/>
      <point x="206" y="59" type="line"/>
      <point x="206" y="0" type="line"/>
      <point x="586" y="0" type="line" smooth="yes"/>
      <point x="639" y="0"/>
      <point x="665" y="26"/>
      <point x="665" y="79" type="curve" smooth="yes"/>
      <point x="665" y="417" type="line"/>
      <point x="577" y="417" type="line"/>
    </contour>
    <contour>
      <point x="162" y="622" type="line"/>
      <point x="162" y="0" type="line"/>
      <point x="250" y="0" type="line"/>
      <point x="250" y="622" type="line"/>
    </contour>
    <contour>
      <point x="456" y="343" type="line"/>
      <point x="110" y="343" type="line"/>
      <point x="110" y="283" type="line"/>
      <point x="456" y="283" type="line"/>
    </contour>
  </outline>
</glyph>
<glyph name="dcroat" format="1">
  <advance width="627"/>
  <unicode hex="0111"/>
  <outline>
    <contour>
      <point x="166" y="225" type="line"/>
      <point x="166" y="395" type="line" smooth="yes"/>
      <point x="166" y="421"/>
      <point x="171" y="426"/>
      <point x="197" y="426" type="curve" smooth="yes"/>
      <point x="417" y="426" type="line" smooth="yes"/>
      <point x="441" y="426"/>
      <point x="451" y="417"/>
      <point x="451" y="391" type="curve" smooth="yes"/>
      <point x="451" y="358" type="line"/>
      <point x="456" y="358" type="line"/>
      <point x="456" y="421" type="line" smooth="yes"/>
      <point x="456" y="467"/>
      <point x="434" y="485"/>
      <point x="396" y="485" type="curve" smooth="yes"/>
      <point x="159" y="485" type="line" smooth="yes"/>
      <point x="106" y="485"/>
      <point x="80" y="459"/>
      <point x="80" y="406" type="curve" smooth="yes"/>
      <point x="80" y="225" type="line"/>
    </contour>
    <contour>
      <point x="451" y="669" type="line"/>
      <point x="451" y="0" type="line"/>
      <point x="537" y="0" type="line"/>
      <point x="537" y="669" type="line"/>
    </contour>
    <contour>
      <point x="80" y="261" type="line"/>
      <point x="80" y="79" type="line" smooth="yes"/>
      <point x="80" y="26"/>
      <point x="106" y="0"/>
      <point x="159" y="0" type="curve" smooth="yes"/>
      <point x="396" y="0" type="line" smooth="yes"/>
      <point x="434" y="0"/>
      <point x="456" y="18"/>
      <point x="456" y="64" type="curve" smooth="yes"/>
      <point x="456" y="117" type="line"/>
      <point x="451" y="118" type="line"/>
      <point x="451" y="94" type="line" smooth="yes"/>
      <point x="451" y="68"/>
      <point x="441" y="59"/>
      <point x="417" y="59" type="curve" smooth="yes"/>
      <point x="197" y="59" type="line" smooth="yes"/>
      <point x="171" y="59"/>
      <point x="166" y="64"/>
      <point x="166" y="90" type="curve" smooth="yes"/>
      <point x="166" y="261" type="line"/>
    </contour>
    <contour>
      <point x="605" y="599" type="line"/>
      <point x="186" y="599" type="line"/>
      <point x="186" y="540" type="line"/>
      <point x="605" y="540" type="line"/>
    </contour>
  </outline>
</glyph>
<glyph name="gcommaaccent" format="1">
  <advance width="617"/>
  <unicode hex="0123"/>
  <outline>
    <contour>
      <point x="356" y="700" type="line"/>
      <point x="292" y="575" type="line"/>
      <point x="292" y="531" type="line"/>
      <point x="388" y="531" type="line"/>
      <point x="388" y="700" type="line"/>
    </contour>
    <component base="g"/>
  </outline>
</glyph>
<glyph name="imacron" format="1">
  <advance width="286"/>
  <unicode hex="012B"/>
  <outline>
    <contour>
      <point x="186" y="0" type="line"/>
      <point x="186" y="485" type="line"/>
      <point x="100" y="485" type="line"/>
      <point x="100" y="0" type="line"/>
    </contour>
    <component base="macron" xOffset="-151" yOffset="-18"/>
  </outline>
</glyph>
<glyph name="Lcaron" format="1">
  <advance width="539"/>
  <unicode hex="013D"/>
  <outline>
    <contour>
      <point x="283" y="622" type="line"/>
      <point x="283" y="453" type="line"/>
      <point x="315" y="453" type="line"/>
      <point x="379" y="578" type="line"/>
      <point x="379" y="622" type="line"/>
    </contour>
    <component base="L"/>
  </outline>
</glyph>
<glyph name="Lslash" format="1">
  <advance width="539"/>
  <unicode hex="0141"/>
  <outline>
    <contour>
      <point x="356" y="396" type="line"/>
      <point x="-21" y="270" type="line"/>
      <point x="-21" y="209" type="line"/>
      <point x="356" y="336" type="line"/>
    </contour>
    <component base="L"/>
  </outline>
</glyph>
<glyph name="Ohungarumlaut" format="1">
  <advance width="665"/>
  <unicode hex="0150"/>
  <outline>
    <contour>
      <point x="169" y="622" type="line" smooth="yes"/>
      <point x="116" y="622"/>
      <point x="90" y="596"/>
      <point x="90" y="543" type="curve" smooth="yes"/>
      <point x="90" y="79" type="line" smooth="yes"/>
      <point x="90" y="26"/>
      <point x="116" y="0"/>
      <point x="169" y="0" type="curve" smooth="yes"/>
      <point x="496" y="0" type="line" smooth="yes"/>
      <point x="549" y="0"/>
      <point x="575" y="26"/>
      <point x="575" y="79" type="curve" smooth="yes"/>
      <point x="575" y="543" type="line" smooth="yes"/>
      <point x="575" y="596"/>
      <point x="549" y="622"/>
      <point x="496" y="622" type="curve" smooth="yes"/>
    </contour>
    <contour>
      <point x="489" y="532" type="curve" smooth="yes"/>
      <point x="489" y="90" type="line" smooth="yes"/>
      <point x="489" y="64"/>
      <point x="484" y="59"/>
      <point x="458" y="59" type="curve" smooth="yes"/>
      <point x="208" y="59" type="line" smooth="yes"/>
      <point x="182" y="59"/>
      <point x="177" y="64"/>
      <point x="177" y="90" type="curve" smooth="yes"/>
      <point x="177" y="532" type="line" smooth="yes"/>
      <point x="177" y="558"/>
      <point x="182" y="563"/>
      <point x="208" y="563" type="curve" smooth="yes"/>
      <point x="458" y="563" type="line" smooth="yes"/>
      <point x="484" y="563"/>
      <point x="489" y="558"/>
    </contour>
    <contour>
      <point x="352" y="832" type="line"/>
      <point x="202" y="669" type="line"/>
      <point x="280" y="669" type="line"/>
      <point x="452" y="832" type="line"/>
    </contour>
    <contour>
      <point x="562" y="832" type="line"/>
      <point x="412" y="669" type="line"/>
      <point x="490" y="669" type="line"/>
      <point x="662" y="832" type="line"/>
    </contour>
  </outline>
</glyph>
<glyph name="ohungarumlaut" format="1">
  <advance width="620"/>
  <unicode hex="0151"/>
  <outline>
    <contour>
      <point x="159" y="485" type="line" smooth="yes"/>
      <point x="106" y="485"/>
      <point x="80" y="459"/>
      <point x="80" y="406" type="curve" smooth="yes"/>
      <point x="80" y="79" type="line" smooth="yes"/>
      <point x="80" y="26"/>
      <point x="106" y="0"/>
      <point x="159" y="0" type="curve" smooth="yes"/>
      <point x="461" y="0" type="line" smooth="yes"/>
      <point x="514" y="0"/>
      <point x="540" y="26"/>
      <point x="540" y="79" type="curve" smooth="yes"/>
      <point x="540" y="406" type="line" smooth="yes"/>
      <point x="540" y="459"/>
      <point x="514" y="485"/>
      <point x="461" y="485" type="curve" smooth="yes"/>
    </contour>
    <contour>
      <point x="455" y="395" type="curve" smooth="yes"/>
      <point x="455" y="90" type="line" smooth="yes"/>
      <point x="455" y="64"/>
      <point x="450" y="59"/>
      <point x="424" y="59" type="curve" smooth="yes"/>
      <point x="196" y="59" type="line" smooth="yes"/>
      <point x="170" y="59"/>
      <point x="165" y="64"/>
      <point x="165" y="90" type="curve" smooth="yes"/>
      <point x="165" y="395" type="line" smooth="yes"/>
      <point x="165" y="421"/>
      <point x="170" y="426"/>
      <point x="196" y="426" type="curve" smooth="yes"/>
      <point x="424" y="426" type="line" smooth="yes"/>
      <point x="450" y="426"/>
      <point x="455" y="421"/>
    </contour>
    <contour>
      <point x="325" y="695" type="line"/>
      <point x="175" y="532" type="line"/>
      <point x="253" y="532" type="line"/>
      <point x="425" y="695" type="line"/>
    </contour>
    <contour>
      <point x="535" y="695" type="line"/>
      <point x="385" y="532" type="line"/>
      <point x="463" y="532" type="line"/>
      <point x="635" y="695" type="line"/>
    </contour>
  </outline>
</glyph>
<glyph name="OE" format="1">
  <advance width="955"/>
  <unicode hex="0152"/>
  <outline>
    <contour>
      <point x="534" y="539" type="line"/>
      <point x="534" y="593"/>
      <point x="510" y="622"/>
      <point x="453" y="622" type="curve" smooth="yes"/>
      <point x="169" y="622" type="line" smooth="yes"/>
      <point x="116" y="622"/>
      <point x="90" y="596"/>
      <point x="90" y="543" type="curve" smooth="yes"/>
      <point x="90" y="79" type="line" smooth="yes"/>
      <point x="90" y="26"/>
      <point x="116" y="0"/>
      <point x="169" y="0" type="curve" smooth="yes"/>
      <point x="453" y="0" type="line" smooth="yes"/>
      <point x="511" y="0"/>
      <point x="534" y="29"/>
      <point x="534" y="83" type="curve" smooth="yes"/>
    </contour>
    <contour>
      <point x="491" y="90" type="line"/>
      <point x="491" y="64"/>
      <point x="486" y="59"/>
      <point x="460" y="59" type="curve" smooth="yes"/>
      <point x="208" y="59" type="line" smooth="yes"/>
      <point x="182" y="59"/>
      <point x="177" y="64"/>
      <point x="177" y="90" type="curve" smooth="yes"/>
      <point x="177" y="532" type="line" smooth="yes"/>
      <point x="177" y="558"/>
      <point x="182" y="563"/>
      <point x="208" y="563" type="curve" smooth="yes"/>
      <point x="460" y="563" type="line" smooth="yes"/>
      <point x="486" y="563"/>
      <point x="491" y="558"/>
      <point x="491" y="532" type="curve" smooth="yes"/>
    </contour>
    <contour>
      <point x="511" y="622" type="line"/>
      <point x="511" y="0" type="line"/>
      <point x="583" y="0" type="line"/>
      <point x="583" y="622" type="line"/>
    </contour>
    <contour>
      <point x="851" y="348" type="line"/>
      <point x="548" y="348" type="line"/>
      <point x="548" y="289" type="line"/>
      <point x="851" y="289" type="line"/>
    </contour>
    <contour>
      <point x="883" y="622" type="line"/>
      <point x="543" y="622" type="line"/>
      <point x="543" y="563" type="line"/>
      <point x="883" y="563" type="line"/>
    </contour>
    <contour>
      <point x="895" y="59" type="line"/>
      <point x="543" y="59" type="line"/>
      <point x="543" y="0" type="line"/>
      <point x="895" y="0" type="line"/>
    </contour>
  </outline>
</glyph>
<glyph name="oe" format="1">
  <advance width="957"/>
  <unicode hex="0153"/>
  <outline>
    <contour>
      <point x="80" y="79" type="line"/>
      <point x="80" y="26"/>
      <point x="106" y="0"/>
      <point x="159" y="0" type="curve" smooth="yes"/>
      <point x="417" y="0" type="line" smooth="yes"/>
      <point x="456" y="0"/>
      <point x="476" y="19"/>
      <point x="481" y="38" type="curve"/>
      <point x="487" y="19"/>
      <point x="507" y="0"/>
      <point x="542" y="0" type="curve" smooth="yes"/>
      <point x="806" y="0" type="line" smooth="yes"/>
      <point x="859" y="0"/>
      <point x="885" y="26"/>
      <point x="885" y="79" type="curve" smooth="yes"/>
      <point x="885" y="137" type="line"/>
      <point x="799" y="137" type="line"/>
      <point x="799" y="90" type="line" smooth="yes"/>
      <point x="799" y="64"/>
      <point x="794" y="59"/>
      <point x="768" y="59" type="curve" smooth="yes"/>
      <point x="558" y="59" type="line" smooth="yes"/>
      <point x="532" y="59"/>
      <point x="527" y="64"/>
      <point x="527" y="90" type="curve" smooth="yes"/>
      <point x="527" y="395" type="line" smooth="yes"/>
      <point x="527" y="421"/>
      <point x="532" y="426"/>
      <point x="558" y="426" type="curve" smooth="yes"/>
      <point x="771" y="426" type="line" smooth="yes"/>
      <point x="797" y="426"/>
      <point x="802" y="421"/>
      <point x="802" y="395" type="curve" smooth="yes"/>
      <point x="802" y="223" type="line"/>
      <point x="887" y="223" type="line"/>
      <point x="887" y="406" type="line" smooth="yes"/>
      <point x="887" y="459"/>
      <point x="861" y="485"/>
      <point x="808" y="485" type="curve" smooth="yes"/>
      <point x="543" y="485" type="line" smooth="yes"/>
      <point x="507" y="485"/>
      <point x="487" y="466"/>
      <point x="482" y="447" type="curve"/>
      <point x="476" y="466"/>
      <point x="456" y="485"/>
      <point x="417" y="485" type="curve" smooth="yes"/>
      <point x="159" y="485" type="line" smooth="yes"/>
      <point x="106" y="485"/>
      <point x="80" y="459"/>
      <point x="80" y="406" type="curve" smooth="yes"/>
    </contour>
    <contour>
      <point x="167" y="395" type="line"/>
      <point x="167" y="421"/>
      <point x="172" y="426"/>
      <point x="198" y="426" type="curve" smooth="yes"/>
      <point x="408" y="426" type="line" smooth="yes"/>
      <point x="430" y="426"/>
      <point x="441" y="418"/>
      <point x="441" y="396" type="curve" smooth="yes"/>
      <point x="441" y="89" type="line" smooth="yes"/>
      <point x="441" y="66"/>
      <point x="430" y="59"/>
      <point x="408" y="59" type="curve" smooth="yes"/>
      <point x="198" y="59" type="line" smooth="yes"/>
      <point x="172" y="59"/>
      <point x="167" y="64"/>
      <point x="167" y="90" type="curve" smooth="yes"/>
    </contour>
    <contour>
      <point x="887" y="278" type="line"/>
      <point x="480" y="278" type="line"/>
      <point x="480" y="219" type="line"/>
      <point x="887" y="219" type="line"/>
    </contour>
  </outline>
</glyph>
<glyph name="Ydieresis" format="1">
  <advance width="630"/>
  <unicode hex="0178"/>
  <outline>
    <contour>
      <point x="251" y="752" type="line"/>
      <point x="128" y="752" type="line"/>
      <point x="128" y="669" type="line"/>
      <point x="251" y="669" type="line"/>
    </contour>
    <contour>
      <point x="511" y="752" type="line"/>
      <point x="388" y="752" type="line"/>
      <point x="388" y="669" type="line"/>
      <point x="511" y="669" type="line"/>
    </contour>
    <contour>
      <point x="621" y="622" type="line"/>
      <point x="532" y="622" type="line"/>
      <point x="320" y="274" type="line"/>
      <point x="99" y="622" type="line"/>
      <point x="9" y="622" type="line"/>
      <point x="277" y="201" type="line"/>
      <point x="277" y="0" type="line"/>
      <point x="364" y="0" type="line"/>
      <point x="364" y="201" type="line"/>
    </contour>
  </outline>
</glyph>
<glyph name="circumflex" format="1">
  <advance width="600"/>
  <unicode hex="02C6"/>
  <outline>
    <contour>
      <point x="84" y="506" type="line"/>
      <point x="185" y="506" type="line"/>
      <point x="300" y="607" type="line"/>
      <point x="415" y="506" type="line"/>
      <point x="516" y="506" type="line"/>
      <point x="350" y="649" type="line"/>
      <point x="250" y="649" type="line"/>
    </contour>
  </outline>
</glyph>
<glyph name="caron" format="1">
  <advance width="600"/>
  <unicode hex="02C7"/>
  <outline>
    <contour>
      <point x="250" y="506" type="line"/>
      <point x="350" y="506" type="line"/>
      <point x="516" y="649" type="line"/>
      <point x="415" y="649" type="line"/>
      <point x="300" y="548" type="line"/>
      <point x="185" y="649" type="line"/>
      <point x="84" y="649" type="line"/>
    </contour>
  </outline>
</glyph>
<glyph name="breve" format="1">
  <advance width="600"/>
  <unicode hex="02D8"/>
  <outline>
    <contour>
      <point x="418" y="644" type="line"/>
      <point x="418" y="593" type="line" smooth="yes"/>
      <point x="418" y="567"/>
      <point x="413" y="562"/>
      <point x="387" y="562" type="curve" smooth="yes"/>
      <point x="241" y="562" type="line"/>
      <point x="241" y="506" type="line"/>
      <point x="418" y="506" type="line" smooth="yes"/>
      <point x="471" y="506"/>
      <point x="497" y="532"/>
      <point x="497" y="585" type="curve" smooth="yes"/>
      <point x="497" y="644" type="line"/>
    </contour>
    <contour>
      <point x="102" y="644" type="line"/>
      <point x="102" y="585" type="line" smooth="yes"/>
      <point x="102" y="532"/>
      <point x="128" y="506"/>
      <point x="181" y="506" type="curve" smooth="yes"/>
      <point x="253" y="506" type="line"/>
      <point x="253" y="562" type="line"/>
      <point x="212" y="562" type="line" smooth="yes"/>
      <point x="186" y="562"/>
      <point x="181" y="567"/>
      <point x="181" y="593" type="curve" smooth="yes"/>
      <point x="181" y="644" type="line"/>
    </contour>
  </outline>
</glyph>
<glyph name="dotaccent" format="1">
  <advance width="600"/>
  <unicode hex="02D9"/>
  <outline>
    <contour>
      <point x="246" y="534" type="line"/>
      <point x="353" y="534" type="line"/>
      <point x="353" y="625" type="line"/>
      <point x="246" y="625" type="line"/>
    </contour>
  </outline>
</glyph>
<glyph name="ring" format="1">
  <advance width="600"/>
  <unicode hex="02DA"/>
  <outline>
    <contour>
      <point x="454" y="611" type="line"/>
      <point x="454" y="656"/>
      <point x="432" y="677"/>
      <point x="388" y="677" type="curve" smooth="yes"/>
      <point x="211" y="677" type="line" smooth="yes"/>
      <point x="167" y="677"/>
      <point x="145" y="656"/>
      <point x="145" y="611" type="curve" smooth="yes"/>
      <point x="145" y="572" type="line" smooth="yes"/>
      <point x="145" y="526"/>
      <point x="167" y="506"/>
      <point x="211" y="506" type="curve" smooth="yes"/>
      <point x="388" y="506" type="line" smooth="yes"/>
      <point x="432" y="506"/>
      <point x="454" y="526"/>
      <point x="454" y="572" type="curve" smooth="yes"/>
    </contour>
    <contour>
      <point x="393" y="581" type="line"/>
      <point x="393" y="558"/>
      <point x="390" y="553"/>
      <point x="365" y="553" type="curve" smooth="yes"/>
      <point x="234" y="553" type="line" smooth="yes"/>
      <point x="209" y="553"/>
      <point x="206" y="558"/>
      <point x="206" y="581" type="curve" smooth="yes"/>
      <point x="206" y="602" type="line" smooth="yes"/>
      <point x="206" y="625"/>
      <point x="209" y="630"/>
      <point x="234" y="630" type="curve" smooth="yes"/>
      <point x="365" y="630" type="line" smooth="yes"/>
      <point x="390" y="630"/>
      <point x="393" y="625"/>
      <point x="393" y="602" type="curve" smooth="yes"/>
    </contour>
  </outline>
</glyph>
<glyph name="tilde" format="1">
  <advance width="600"/>
  <unicode hex="02DC"/>
  <outline>
    <contour>
      <point x="185" y="599" type="curve" smooth="yes"/>
      <point x="232" y="599"/>
      <point x="359" y="520"/>
      <point x="418" y="520" type="curve" smooth="yes"/>
      <point x="436" y="520" type="line" smooth="yes"/>
      <point x="491" y="520"/>
      <point x="507" y="550"/>
      <point x="507" y="597" type="curve" smooth="yes"/>
      <point x="507" y="656" type="line"/>
      <point x="433" y="656" type="line"/>
      <point x="433" y="601" type="line" smooth="yes"/>
      <point x="433" y="581"/>
      <point x="428" y="577"/>
      <point x="414" y="577" type="curve"/>
      <point x="368" y="577"/>
      <point x="238" y="656"/>
      <point x="180" y="656" type="curve" smooth="yes"/>
      <point x="166" y="656" type="line" smooth="yes"/>
      <point x="111" y="656"/>
      <point x="93" y="627"/>
      <point x="93" y="579" type="curve" smooth="yes"/>
      <point x="93" y="520" type="line"/>
      <point x="168" y="520" type="line"/>
      <point x="168" y="576" type="line" smooth="yes"/>
      <point x="168" y="591"/>
      <point x="173" y="599"/>
    </contour>
  </outline>
</glyph>
<glyph name="pi" format="1">
  <advance width="849"/>
  <unicode hex="03C0"/>
  <outline>
    <contour>
      <point x="192" y="95" type="line"/>
      <point x="192" y="69"/>
      <point x="187" y="64"/>
      <point x="161" y="64" type="curve" smooth="yes"/>
      <point x="80" y="64" type="line"/>
      <point x="80" y="0" type="line"/>
      <point x="199" y="0" type="line" smooth="yes"/>
      <point x="252" y="0"/>
      <point x="278" y="26"/>
      <point x="278" y="79" type="curve" smooth="yes"/>
      <point x="278" y="454" type="line"/>
      <point x="192" y="454" type="line"/>
    </contour>
    <contour>
      <point x="581" y="454" type="line"/>
      <point x="581" y="0" type="line"/>
      <point x="666" y="0" type="line"/>
      <point x="666" y="454" type="line"/>
    </contour>
    <contour>
      <point x="789" y="485" type="line"/>
      <point x="80" y="485" type="line"/>
      <point x="80" y="426" type="line"/>
      <point x="789" y="426" type="line"/>
    </contour>
  </outline>
</glyph>
<glyph name="dvCandrabindu" format="1">
  <advance width="0"/>
  <unicode hex="0901"/>
  <outline>
    <contour>
      <point x="-55" y="622" type="move" name="_abvm.candra"/>
    </contour>
    <contour>
      <point x="-262" y="685" type="curve"/>
      <point x="59" y="685" type="line" smooth="yes"/>
      <point x="112" y="685"/>
      <point x="137" y="710"/>
      <point x="137" y="763" type="curve" smooth="yes"/>
      <point x="137" y="852" type="line"/>
      <point x="54" y="852" type="line"/>
      <point x="54" y="775" type="line" smooth="yes"/>
      <point x="54" y="749"/>
      <point x="49" y="744"/>
      <point x="23" y="744" type="curve" smooth="yes"/>
      <point x="-227" y="744" type="line" smooth="yes"/>
      <point x="-253" y="744"/>
      <point x="-258" y="749"/>
      <point x="-258" y="775" type="curve" smooth="yes"/>
      <point x="-258" y="852" type="line"/>
      <point x="-341" y="852" type="line"/>
      <point x="-341" y="763" type="line" smooth="yes"/>
      <point x="-341" y="710"/>
      <point x="-315" y="685"/>
    </contour>
    <contour>
      <point x="-148" y="802" type="line"/>
      <point x="-57" y="802" type="line"/>
      <point x="-57" y="895" type="line"/>
      <point x="-148" y="895" type="line"/>
    </contour>
  </outline>
</glyph>
<glyph name="dvVisarga" format="1">
  <advance width="401"/>
  <unicode hex="0903"/>
  <outline>
    <contour>
      <point x="170" y="440" type="line"/>
      <point x="261" y="440" type="line"/>
      <point x="261" y="533" type="line"/>
      <point x="170" y="533" type="line"/>
    </contour>
    <contour>
      <point x="170" y="118" type="line"/>
      <point x="261" y="118" type="line"/>
      <point x="261" y="211" type="line"/>
      <point x="170" y="211" type="line"/>
    </contour>
  </outline>
</glyph>
<glyph name="dvII" format="1">
  <advance width="758"/>
  <unicode hex="0908"/>
  <outline>
    <contour>
      <point x="726" y="576" type="move" name="abvm.bindu"/>
    </contour>
    <component base="dvReph" xOffset="735"/>
    <component base="dvI" xOffset="2"/>
  </outline>
</glyph>
<glyph name="dvU" format="1">
  <advance width="723"/>
  <unicode hex="0909"/>
  <outline>
    <contour>
      <point x="459" y="622" type="move" name="abvm.candra"/>
    </contour>
    <contour>
      <point x="459" y="622" type="move" name="abvm.bindu"/>
    </contour>
    <contour>
      <point x="583" y="536" type="line"/>
      <point x="583" y="564"/>
      <point x="570" y="570"/>
      <point x="547" y="570" type="curve"/>
      <point x="547" y="563" type="line"/>
      <point x="743" y="563" type="line"/>
      <point x="743" y="622" type="line"/>
      <point x="-20" y="622" type="line"/>
      <point x="-20" y="563" type="line"/>
      <point x="463" y="563" type="line" smooth="yes"/>
      <point x="489" y="563"/>
      <point x="494" y="558"/>
      <point x="494" y="532" type="curve" smooth="yes"/>
      <point x="494" y="401" type="line" smooth="yes"/>
      <point x="494" y="375"/>
      <point x="489" y="369"/>
      <point x="463" y="369" type="curve" smooth="yes"/>
      <point x="329" y="369" type="line"/>
      <point x="329" y="310" type="line"/>
      <point x="463" y="310" type="line" smooth="yes"/>
      <point x="489" y="310"/>
      <point x="494" y="305"/>
      <point x="494" y="279" type="curve" smooth="yes"/>
      <point x="494" y="90" type="line" smooth="yes"/>
      <point x="494" y="64"/>
      <point x="489" y="59"/>
      <point x="463" y="59" type="curve" smooth="yes"/>
      <point x="215" y="59" type="line"/>
      <point x="215" y="0" type="line"/>
      <point x="504" y="0" type="line" smooth="yes"/>
      <point x="557" y="0"/>
      <point x="583" y="26"/>
      <point x="583" y="79" type="curve" smooth="yes"/>
      <point x="583" y="292" type="line" smooth="yes"/>
      <point x="583" y="323"/>
      <point x="568" y="339"/>
      <point x="542" y="341" type="curve"/>
      <point x="542" y="343" type="line"/>
      <point x="568" y="345"/>
      <point x="583" y="361"/>
      <point x="583" y="393" type="curve" smooth="yes"/>
    </contour>
    <contour>
      <point x="220" y="59" type="line"/>
      <point x="200" y="59" type="line" smooth="yes"/>
      <point x="174" y="59"/>
      <point x="169" y="64"/>
      <point x="169" y="90" type="curve" smooth="yes"/>
      <point x="169" y="206" type="line"/>
      <point x="80" y="206" type="line"/>
      <point x="80" y="79" type="line" smooth="yes"/>
      <point x="80" y="26"/>
      <point x="106" y="0"/>
      <point x="159" y="0" type="curve" smooth="yes"/>
      <point x="220" y="0" type="line"/>
    </contour>
  </outline>
</glyph>
<glyph name="dvOcandra" format="1">
  <advance width="1403"/>
  <unicode hex="0911"/>
  <outline>
    <contour>
      <point x="1195" y="714" type="move" name="abvm.bindu"/>
    </contour>
    <component base="dvmEcandra" xOffset="1152"/>
    <component base="dvmAA" xOffset="1034"/>
    <component base="dvA"/>
  </outline>
</glyph>
<glyph name="dvO" format="1">
  <advance width="1404"/>
  <unicode hex="0913"/>
  <outline>
    <contour>
      <point x="1404" y="622" type="move" name="abvm.bindu"/>
    </contour>
    <component base="dvmAA" xOffset="1035"/>
    <component base="dvA"/>
    <component base="dvmE" xOffset="1404"/>
  </outline>
</glyph>
<glyph name="dvGHA" format="1">
  <advance width="899"/>
  <unicode hex="0918"/>
  <outline>
    <contour>
      <point x="670" y="0" type="line"/>
      <point x="759" y="0" type="line"/>
      <point x="759" y="592" type="line"/>
      <point x="670" y="592" type="line"/>
    </contour>
    <contour>
      <point x="120" y="398" type="line"/>
      <point x="120" y="366"/>
      <point x="135" y="352"/>
      <point x="161" y="350" type="curve"/>
      <point x="161" y="346" type="line"/>
      <point x="135" y="344"/>
      <point x="120" y="328"/>
      <point x="120" y="297" type="curve" smooth="yes"/>
      <point x="120" y="157" type="line" smooth="yes"/>
      <point x="120" y="104"/>
      <point x="146" y="78"/>
      <point x="199" y="78" type="curve" smooth="yes"/>
      <point x="460" y="78" type="line"/>
      <point x="460" y="137" type="line"/>
      <point x="240" y="137" type="line" smooth="yes"/>
      <point x="214" y="137"/>
      <point x="209" y="142"/>
      <point x="209" y="168" type="curve" smooth="yes"/>
      <point x="209" y="288" type="line" smooth="yes"/>
      <point x="209" y="314"/>
      <point x="214" y="319"/>
      <point x="240" y="319" type="curve" smooth="yes"/>
      <point x="453" y="319" type="line"/>
      <point x="453" y="378" type="line"/>
      <point x="240" y="378" type="line" smooth="yes"/>
      <point x="214" y="378"/>
      <point x="209" y="383"/>
      <point x="209" y="409" type="curve" smooth="yes"/>
      <point x="209" y="532" type="line" smooth="yes"/>
      <point x="209" y="558"/>
      <point x="214" y="563"/>
      <point x="240" y="563" type="curve" smooth="yes"/>
      <point x="919" y="563" type="line"/>
      <point x="919" y="622" type="line"/>
      <point x="-20" y="622" type="line"/>
      <point x="-20" y="563" type="line"/>
      <point x="156" y="563" type="line"/>
      <point x="156" y="570" type="line"/>
      <point x="133" y="570"/>
      <point x="120" y="564"/>
      <point x="120" y="536" type="curve" smooth="yes"/>
    </contour>
    <contour>
      <point x="443" y="78" type="line"/>
      <point x="638" y="78" type="line" smooth="yes"/>
      <point x="668" y="78"/>
      <point x="681" y="89"/>
      <point x="681" y="125" type="curve"/>
      <point x="670" y="171" type="line"/>
      <point x="670" y="145"/>
      <point x="662" y="137"/>
      <point x="636" y="137" type="curve" smooth="yes"/>
      <point x="443" y="137" type="line"/>
    </contour>
  </outline>
</glyph>
<glyph name="dvNGA" format="1">
  <advance width="854"/>
  <unicode hex="0919"/>
  <outline>
    <contour>
      <point x="603" y="622" type="move" name="abvm.candra"/>
    </contour>
    <contour>
      <point x="345" y="0" type="move" name="blwm.virama"/>
    </contour>
    <contour>
      <point x="366" y="-55" type="move" name="blwm.u"/>
    </contour>
    <contour>
      <point x="603" y="622" type="move" name="abvm.bindu"/>
    </contour>
    <contour>
      <point x="603" y="622" type="move" name="abvm.e"/>
    </contour>
    <contour>
      <point x="697" y="313" type="line"/>
      <point x="774" y="313" type="line"/>
      <point x="774" y="388" type="line"/>
      <point x="697" y="388" type="line"/>
    </contour>
    <contour>
      <point x="874" y="563" type="line"/>
      <point x="874" y="622" type="line"/>
      <point x="-20" y="622" type="line"/>
      <point x="-20" y="563" type="line"/>
    </contour>
    <contour>
      <point x="564" y="485" type="line"/>
      <point x="188" y="485" type="line" smooth="yes"/>
      <point x="135" y="485"/>
      <point x="110" y="459"/>
      <point x="110" y="406" type="curve" smooth="yes"/>
      <point x="110" y="323" type="line" smooth="yes"/>
      <point x="110" y="270"/>
      <point x="135" y="244"/>
      <point x="188" y="244" type="curve" smooth="yes"/>
      <point x="356" y="244" type="line"/>
      <point x="356" y="303" type="line"/>
      <point x="230" y="303" type="line" smooth="yes"/>
      <point x="204" y="303"/>
      <point x="198" y="308"/>
      <point x="198" y="334" type="curve" smooth="yes"/>
      <point x="198" y="395" type="line" smooth="yes"/>
      <point x="198" y="421"/>
      <point x="204" y="426"/>
      <point x="230" y="426" type="curve" smooth="yes"/>
      <point x="564" y="426" type="line"/>
    </contour>
    <contour>
      <point x="603" y="426" type="line"/>
      <point x="603" y="594" type="line"/>
      <point x="515" y="594" type="line"/>
      <point x="515" y="426" type="line"/>
    </contour>
    <contour>
      <point x="349" y="10" type="line"/>
      <point x="548" y="10" type="line" smooth="yes"/>
      <point x="601" y="10"/>
      <point x="627" y="36"/>
      <point x="627" y="89" type="curve" smooth="yes"/>
      <point x="627" y="224" type="line" smooth="yes"/>
      <point x="627" y="277"/>
      <point x="601" y="303"/>
      <point x="548" y="303" type="curve" smooth="yes"/>
      <point x="345" y="303" type="line"/>
      <point x="345" y="244" type="line"/>
      <point x="507" y="244" type="line" smooth="yes"/>
      <point x="533" y="244"/>
      <point x="538" y="239"/>
      <point x="538" y="213" type="curve" smooth="yes"/>
      <point x="538" y="100" type="line" smooth="yes"/>
      <point x="538" y="74"/>
      <point x="533" y="69"/>
      <point x="507" y="69" type="curve" smooth="yes"/>
      <point x="349" y="69" type="line"/>
    </contour>
    <contour>
      <point x="488" y="69" type="line"/>
      <point x="233" y="69" type="line" smooth="yes"/>
      <point x="207" y="69"/>
      <point x="201" y="74"/>
      <point x="201" y="100" type="curve" smooth="yes"/>
      <point x="201" y="170" type="line"/>
      <point x="113" y="170" type="line"/>
      <point x="113" y="89" type="line" smooth="yes"/>
      <point x="113" y="36"/>
      <point x="138" y="10"/>
      <point x="191" y="10" type="curve" smooth="yes"/>
      <point x="488" y="10" type="line"/>
    </contour>
  </outline>
</glyph>
<glyph name="dvCA" format="1">
  <advance width="843"/>
  <unicode hex="091A"/>
  <outline>
    <contour>
      <point x="36" y="426" type="line"/>
      <point x="157" y="426" type="line"/>
      <point x="157" y="433" type="line"/>
      <point x="133" y="433"/>
      <point x="120" y="427"/>
      <point x="120" y="399" type="curve" smooth="yes"/>
      <point x="120" y="157" type="line" smooth="yes"/>
      <point x="120" y="104"/>
      <point x="146" y="78"/>
      <point x="199" y="78" type="curve" smooth="yes"/>
      <point x="424" y="78" type="line"/>
      <point x="424" y="137" type="line"/>
      <point x="240" y="137" type="line" smooth="yes"/>
      <point x="214" y="137"/>
      <point x="209" y="142"/>
      <point x="209" y="168" type="curve" smooth="yes"/>
      <point x="209" y="395" type="line" smooth="yes"/>
      <point x="209" y="420"/>
      <point x="214" y="426"/>
      <point x="239" y="426" type="curve" smooth="yes"/>
      <point x="412" y="426" type="line"/>
      <point x="412" y="485" type="line"/>
      <point x="36" y="485" type="line"/>
    </contour>
    <contour>
      <point x="615" y="0" type="line"/>
      <point x="703" y="0" type="line"/>
      <point x="703" y="594" type="line"/>
      <point x="615" y="594" type="line"/>
    </contour>
    <contour>
      <point x="-20" y="563" type="line"/>
      <point x="863" y="563" type="line"/>
      <point x="863" y="622" type="line"/>
      <point x="-20" y="622" type="line"/>
    </contour>
    <contour>
      <point x="254" y="78" type="line"/>
      <point x="583" y="78" type="line" smooth="yes"/>
      <point x="613" y="78"/>
      <point x="626" y="89"/>
      <point x="626" y="125" type="curve"/>
      <point x="615" y="171" type="line"/>
      <point x="615" y="145"/>
      <point x="607" y="137"/>
      <point x="581" y="137" type="curve" smooth="yes"/>
      <point x="254" y="137" type="line"/>
    </contour>
  </outline>
</glyph>
<glyph name="dvDDHA" format="1">
  <advance width="789"/>
  <unicode hex="0922"/>
  <outline>
    <contour>
      <point x="618" y="622" type="move" name="abvm.candra"/>
    </contour>
    <contour>
      <point x="417" y="0" type="move" name="blwm.virama"/>
    </contour>
    <contour>
      <point x="417" y="-55" type="move" name="blwm.u"/>
    </contour>
    <contour>
      <point x="618" y="622" type="move" name="abvm.bindu"/>
    </contour>
    <contour>
      <point x="618" y="622" type="move" name="abvm.e"/>
    </contour>
    <contour>
      <point x="552" y="59" type="curve"/>
      <point x="412" y="59" type="line"/>
      <point x="412" y="0" type="line"/>
      <point x="591" y="0" type="line" smooth="yes"/>
      <point x="644" y="0"/>
      <point x="669" y="26"/>
      <point x="669" y="79" type="curve" smooth="yes"/>
      <point x="669" y="211" type="line" smooth="yes"/>
      <point x="669" y="264"/>
      <point x="644" y="290"/>
      <point x="591" y="290" type="curve" smooth="yes"/>
      <point x="384" y="290" type="line"/>
      <point x="384" y="231" type="line"/>
      <point x="552" y="231" type="line" smooth="yes"/>
      <point x="578" y="231"/>
      <point x="583" y="226"/>
      <point x="583" y="200" type="curve" smooth="yes"/>
      <point x="583" y="90" type="line" smooth="yes"/>
      <point x="583" y="64"/>
      <point x="578" y="59"/>
    </contour>
    <contour>
      <point x="618" y="426" type="line"/>
      <point x="618" y="604" type="line"/>
      <point x="529" y="604" type="line"/>
      <point x="529" y="426" type="line"/>
    </contour>
    <contour>
      <point x="-20" y="563" type="line"/>
      <point x="809" y="563" type="line"/>
      <point x="809" y="622" type="line"/>
      <point x="-20" y="622" type="line"/>
    </contour>
    <contour>
      <point x="199" y="0" type="curve"/>
      <point x="420" y="0" type="line"/>
      <point x="420" y="59" type="line"/>
      <point x="240" y="59" type="line" smooth="yes"/>
      <point x="214" y="59"/>
      <point x="209" y="64"/>
      <point x="209" y="90" type="curve" smooth="yes"/>
      <point x="209" y="395" type="line" smooth="yes"/>
      <point x="209" y="421"/>
      <point x="214" y="426"/>
      <point x="240" y="426" type="curve" smooth="yes"/>
      <point x="593" y="426" type="line"/>
      <point x="593" y="485" type="line"/>
      <point x="199" y="485" type="line" smooth="yes"/>
      <point x="146" y="485"/>
      <point x="120" y="459"/>
      <point x="120" y="406" type="curve" smooth="yes"/>
      <point x="120" y="79" type="line" smooth="yes"/>
      <point x="120" y="26"/>
      <point x="146" y="0"/>
    </contour>
  </outline>
</glyph>
<glyph name="dvTA" format="1">
  <advance width="807"/>
  <unicode hex="0924"/>
  <outline>
    <contour>
      <point x="578" y="603" type="line"/>
      <point x="578" y="0" type="line"/>
      <point x="667" y="0" type="line"/>
      <point x="667" y="603" type="line"/>
    </contour>
    <contour>
      <point x="-20" y="563" type="line"/>
      <point x="827" y="563" type="line"/>
      <point x="827" y="622" type="line"/>
      <point x="-20" y="622" type="line"/>
    </contour>
    <contour>
      <point x="623" y="485" type="line"/>
      <point x="199" y="485" type="line" smooth="yes"/>
      <point x="146" y="485"/>
      <point x="120" y="459"/>
      <point x="120" y="406" type="curve" smooth="yes"/>
      <point x="120" y="79" type="line" smooth="yes"/>
      <point x="120" y="26"/>
      <point x="146" y="0"/>
      <point x="199" y="0" type="curve" smooth="yes"/>
      <point x="389" y="0" type="line"/>
      <point x="389" y="59" type="line"/>
      <point x="240" y="59" type="line" smooth="yes"/>
      <point x="214" y="59"/>
      <point x="209" y="64"/>
      <point x="209" y="90" type="curve" smooth="yes"/>
      <point x="209" y="395" type="line" smooth="yes"/>
      <point x="209" y="421"/>
      <point x="214" y="426"/>
      <point x="240" y="426" type="curve" smooth="yes"/>
      <point x="623" y="426" type="line"/>
    </contour>
  </outline>
</glyph>
<glyph name="dvMA" format="1">
  <advance width="1083"/>
  <unicode hex="092E"/>
  <outline>
    <contour>
      <point x="889" y="485" type="line"/>
      <point x="199" y="485" type="line" smooth="yes"/>
      <point x="146" y="485"/>
      <point x="120" y="459"/>
      <point x="120" y="406" type="curve" smooth="yes"/>
      <point x="120" y="157" type="line" smooth="yes"/>
      <point x="120" y="104"/>
      <point x="146" y="78"/>
      <point x="199" y="78" type="curve" smooth="yes"/>
      <point x="359" y="78" type="line"/>
      <point x="359" y="137" type="line"/>
      <point x="238" y="137" type="line" smooth="yes"/>
      <point x="212" y="137"/>
      <point x="207" y="142"/>
      <point x="207" y="168" type="curve" smooth="yes"/>
      <point x="207" y="395" type="line" smooth="yes"/>
      <point x="207" y="421"/>
      <point x="212" y="426"/>
      <point x="238" y="426" type="curve" smooth="yes"/>
      <point x="889" y="426" type="line"/>
    </contour>
    <contour>
      <point x="535" y="595" type="line"/>
      <point x="535" y="168" type="line" smooth="yes"/>
      <point x="535" y="142"/>
      <point x="530" y="137"/>
      <point x="504" y="137" type="curve" smooth="yes"/>
      <point x="348" y="137" type="line"/>
      <point x="348" y="78" type="line"/>
      <point x="545" y="78" type="line" smooth="yes"/>
      <point x="598" y="78"/>
      <point x="624" y="104"/>
      <point x="624" y="157" type="curve" smooth="yes"/>
      <point x="624" y="595" type="line"/>
    </contour>
    <contour>
      <point x="854" y="0" type="line"/>
      <point x="943" y="0" type="line"/>
      <point x="943" y="592" type="line"/>
      <point x="854" y="592" type="line"/>
    </contour>
    <contour>
      <point x="-20" y="563" type="line"/>
      <point x="1103" y="563" type="line"/>
      <point x="1103" y="622" type="line"/>
      <point x="-20" y="622" type="line"/>
    </contour>
  </outline>
</glyph>
<glyph name="dvYA" format="1">
  <advance width="963"/>
  <unicode hex="092F"/>
  <outline>
    <contour>
      <point x="735" y="591" type="line"/>
      <point x="735" y="0" type="line"/>
      <point x="823" y="0" type="line"/>
      <point x="823" y="591" type="line"/>
    </contour>
    <contour>
      <point x="264" y="78" type="line"/>
      <point x="698" y="78" type="line" smooth="yes"/>
      <point x="728" y="78"/>
      <point x="742" y="89"/>
      <point x="742" y="125" type="curve"/>
      <point x="735" y="176" type="line"/>
      <point x="735" y="147"/>
      <point x="724" y="137"/>
      <point x="694" y="137" type="curve" smooth="yes"/>
      <point x="264" y="137" type="line"/>
    </contour>
    <contour>
      <point x="278" y="137" type="line"/>
      <point x="200" y="137" type="line" smooth="yes"/>
      <point x="174" y="137"/>
      <point x="169" y="142"/>
      <point x="169" y="168" type="curve" smooth="yes"/>
      <point x="169" y="368" type="line"/>
      <point x="80" y="368" type="line"/>
      <point x="80" y="157" type="line" smooth="yes"/>
      <point x="80" y="104"/>
      <point x="106" y="78"/>
      <point x="159" y="78" type="curve" smooth="yes"/>
      <point x="278" y="78" type="line"/>
    </contour>
    <contour>
      <point x="140" y="309" type="line"/>
      <point x="436" y="309" type="line" smooth="yes"/>
      <point x="489" y="309"/>
      <point x="515" y="335"/>
      <point x="515" y="388" type="curve" smooth="yes"/>
      <point x="515" y="437" type="line"/>
      <point x="426" y="437" type="line"/>
      <point x="426" y="400" type="line" smooth="yes"/>
      <point x="426" y="374"/>
      <point x="421" y="368"/>
      <point x="395" y="368" type="curve" smooth="yes"/>
      <point x="140" y="368" type="line"/>
    </contour>
    <contour>
      <point x="515" y="432" type="line"/>
      <point x="515" y="536" type="line" smooth="yes"/>
      <point x="515" y="564"/>
      <point x="501" y="570"/>
      <point x="478" y="570" type="curve"/>
      <point x="478" y="563" type="line"/>
      <point x="983" y="563" type="line"/>
      <point x="983" y="622" type="line"/>
      <point x="-20" y="622" type="line"/>
      <point x="-20" y="563" type="line"/>
      <point x="395" y="563" type="line" smooth="yes"/>
      <point x="421" y="563"/>
      <point x="426" y="558"/>
      <point x="426" y="532" type="curve" smooth="yes"/>
      <point x="426" y="432" type="line"/>
    </contour>
  </outline>
</glyph>
<glyph name="dvRA" format="1">
  <advance width="764"/>
  <unicode hex="0930"/>
  <outline>
    <contour>
      <point x="624" y="622" type="move" name="abvm.candra"/>
    </contour>
    <contour>
      <point x="342" y="0" type="move" name="blwm.virama"/>
    </contour>
    <contour>
      <point x="393" y="-55" type="move" name="blwm.u"/>
    </contour>
    <contour>
      <point x="624" y="622" type="move" name="abvm.bindu"/>
    </contour>
    <contour>
      <point x="624" y="622" type="move" name="abvm.e"/>
    </contour>
    <contour>
      <point x="171" y="285" type="line"/>
      <point x="545" y="285" type="line" smooth="yes"/>
      <point x="598" y="285"/>
      <point x="624" y="311"/>
      <point x="624" y="364" type="curve" smooth="yes"/>
      <point x="624" y="447" type="line"/>
      <point x="535" y="447" type="line"/>
      <point x="535" y="375" type="line" smooth="yes"/>
      <point x="535" y="349"/>
      <point x="530" y="344"/>
      <point x="504" y="344" type="curve" smooth="yes"/>
      <point x="171" y="344" type="line"/>
    </contour>
    <contour>
      <point x="469" y="0" type="line"/>
      <point x="538" y="0" type="line" smooth="yes"/>
      <point x="591" y="0"/>
      <point x="616" y="26"/>
      <point x="616" y="79" type="curve" smooth="yes"/>
      <point x="616" y="211" type="line"/>
      <point x="528" y="211" type="line"/>
      <point x="528" y="90" type="line" smooth="yes"/>
      <point x="528" y="64"/>
      <point x="522" y="59"/>
      <point x="496" y="59" type="curve" smooth="yes"/>
      <point x="469" y="59" type="line"/>
    </contour>
    <contour>
      <point x="624" y="437" type="line"/>
      <point x="624" y="536" type="line" smooth="yes"/>
      <point x="624" y="564"/>
      <point x="611" y="570"/>
      <point x="587" y="570" type="curve"/>
      <point x="587" y="563" type="line"/>
      <point x="784" y="563" type="line"/>
      <point x="784" y="622" type="line"/>
      <point x="-20" y="622" type="line"/>
      <point x="-20" y="563" type="line"/>
      <point x="504" y="563" type="line" smooth="yes"/>
      <point x="530" y="563"/>
      <point x="535" y="558"/>
      <point x="535" y="532" type="curve" smooth="yes"/>
      <point x="535" y="437" type="line"/>
    </contour>
    <contour>
      <point x="486" y="59" type="line"/>
      <point x="240" y="59" type="line" smooth="yes"/>
      <point x="214" y="59"/>
      <point x="209" y="64"/>
      <point x="209" y="90" type="curve" smooth="yes"/>
      <point x="209" y="432" type="line"/>
      <point x="120" y="432" type="line"/>
      <point x="120" y="79" type="line" smooth="yes"/>
      <point x="120" y="26"/>
      <point x="146" y="0"/>
      <point x="199" y="0" type="curve" smooth="yes"/>
      <point x="486" y="0" type="line"/>
    </contour>
  </outline>
</glyph>
<glyph name="dvVA" format="1">
  <advance width="773"/>
  <unicode hex="0935"/>
  <outline>
    <contour>
      <point x="545" y="0" type="line"/>
      <point x="633" y="0" type="line"/>
      <point x="633" y="601" type="line"/>
      <point x="545" y="601" type="line"/>
    </contour>
    <contour>
      <point x="-20" y="563" type="line"/>
      <point x="793" y="563" type="line"/>
      <point x="793" y="622" type="line"/>
      <point x="-20" y="622" type="line"/>
    </contour>
    <contour>
      <point x="495" y="485" type="line"/>
      <point x="189" y="485" type="line" smooth="yes"/>
      <point x="136" y="485"/>
      <point x="110" y="459"/>
      <point x="110" y="406" type="curve" smooth="yes"/>
      <point x="110" y="157" type="line" smooth="yes"/>
      <point x="110" y="104"/>
      <point x="136" y="78"/>
      <point x="189" y="78" type="curve" smooth="yes"/>
      <point x="359" y="78" type="line"/>
      <point x="359" y="137" type="line"/>
      <point x="230" y="137" type="line" smooth="yes"/>
      <point x="204" y="137"/>
      <point x="199" y="142"/>
      <point x="199" y="168" type="curve" smooth="yes"/>
      <point x="199" y="395" type="line" smooth="yes"/>
      <point x="199" y="421"/>
      <point x="204" y="426"/>
      <point x="230" y="426" type="curve" smooth="yes"/>
      <point x="495" y="426" type="line"/>
    </contour>
    <contour>
      <point x="347" y="78" type="line"/>
      <point x="513" y="78" type="line" smooth="yes"/>
      <point x="543" y="78"/>
      <point x="556" y="89"/>
      <point x="556" y="125" type="curve"/>
      <point x="545" y="171" type="line"/>
      <point x="545" y="145"/>
      <point x="537" y="137"/>
      <point x="511" y="137" type="curve" smooth="yes"/>
      <point x="347" y="137" type="line"/>
    </contour>
  </outline>
</glyph>
<glyph name="dvNukta" format="1">
  <advance width="0"/>
  <unicode hex="093C"/>
  <outline>
    <contour>
      <point x="-266" y="-157" type="line"/>
      <point x="-175" y="-157" type="line"/>
      <point x="-175" y="-65" type="line"/>
      <point x="-266" y="-65" type="line"/>
    </contour>
  </outline>
</glyph>
<glyph name="dvmAA" format="1">
  <advance width="369"/>
  <unicode hex="093E"/>
  <outline>
    <contour>
      <point x="-20" y="563" type="line"/>
      <point x="389" y="563" type="line"/>
      <point x="389" y="622" type="line"/>
      <point x="-20" y="622" type="line"/>
    </contour>
    <contour>
      <point x="140" y="0" type="line"/>
      <point x="229" y="0" type="line"/>
      <point x="229" y="622" type="line"/>
      <point x="140" y="622" type="line"/>
    </contour>
  </outline>
</glyph>
<glyph name="dvmU" format="1">
  <advance width="0"/>
  <unicode hex="0941"/>
  <outline>
    <contour>
      <point x="-229" y="0" type="move" name="_blwm.u"/>
    </contour>
    <contour>
      <point x="-515" y="-90" type="line"/>
      <point x="-445" y="-206" type="line" smooth="yes"/>
      <point x="-409" y="-264"/>
      <point x="-389" y="-270"/>
      <point x="-319" y="-270" type="curve" smooth="yes"/>
      <point x="-160" y="-270" type="line"/>
      <point x="-160" y="-211" type="line"/>
      <point x="-317" y="-211" type="line" smooth="yes"/>
      <point x="-340" y="-211"/>
      <point x="-347" y="-203"/>
      <point x="-359" y="-183" type="curve" smooth="yes"/>
      <point x="-413" y="-90" type="line"/>
    </contour>
    <contour>
      <point x="-307" y="-270" type="line"/>
      <point x="-54" y="-270" type="line" smooth="yes"/>
      <point x="-1" y="-270"/>
      <point x="21" y="-248"/>
      <point x="21" y="-195" type="curve" smooth="yes"/>
      <point x="21" y="-114" type="line"/>
      <point x="-68" y="-114" type="line"/>
      <point x="-68" y="-178" type="line" smooth="yes"/>
      <point x="-68" y="-202"/>
      <point x="-76" y="-211"/>
      <point x="-102" y="-211" type="curve" smooth="yes"/>
      <point x="-307" y="-211" type="line"/>
    </contour>
    <contour>
      <point x="-229" y="-59" type="line"/>
      <point x="-102" y="-59" type="line" smooth="yes"/>
      <point x="-76" y="-59"/>
      <point x="-68" y="-68"/>
      <point x="-68" y="-92" type="curve" smooth="yes"/>
      <point x="-68" y="-146" type="line"/>
      <point x="21" y="-146" type="line"/>
      <point x="21" y="-75" type="line" smooth="yes"/>
      <point x="21" y="-22"/>
      <point x="-1" y="0"/>
      <point x="-54" y="0" type="curve" smooth="yes"/>
      <point x="-229" y="0" type="line"/>
    </contour>
  </outline>
</glyph>
<glyph name="dvmUU" format="1">
  <advance width="0"/>
  <unicode hex="0942"/>
  <outline>
    <contour>
      <point x="-229" y="0" type="move" name="_blwm.u"/>
    </contour>
    <contour>
      <point x="162" y="-270" type="line"/>
      <point x="40" y="-64" type="line" smooth="yes"/>
      <point x="5" y="-5"/>
      <point x="-16" y="0"/>
      <point x="-86" y="0" type="curve" smooth="yes"/>
      <point x="-158" y="0" type="line"/>
      <point x="-158" y="-59" type="line"/>
      <point x="-88" y="-59" type="line" smooth="yes"/>
      <point x="-65" y="-59"/>
      <point x="-58" y="-67"/>
      <point x="-46" y="-87" type="curve" smooth="yes"/>
      <point x="60" y="-270" type="line"/>
    </contour>
    <contour>
      <point x="-98" y="0" type="line"/>
      <point x="-324" y="0" type="line" smooth="yes"/>
      <point x="-377" y="0"/>
      <point x="-399" y="-22"/>
      <point x="-399" y="-75" type="curve" smooth="yes"/>
      <point x="-399" y="-156" type="line"/>
      <point x="-310" y="-156" type="line"/>
      <point x="-310" y="-92" type="line" smooth="yes"/>
      <point x="-310" y="-68"/>
      <point x="-302" y="-59"/>
      <point x="-276" y="-59" type="curve" smooth="yes"/>
      <point x="-98" y="-59" type="line"/>
    </contour>
    <contour>
      <point x="-139" y="-211" type="line"/>
      <point x="-276" y="-211" type="line" smooth="yes"/>
      <point x="-302" y="-211"/>
      <point x="-310" y="-202"/>
      <point x="-310" y="-178" type="curve" smooth="yes"/>
      <point x="-310" y="-124" type="line"/>
      <point x="-399" y="-124" type="line"/>
      <point x="-399" y="-195" type="line" smooth="yes"/>
      <point x="-399" y="-248"/>
      <point x="-377" y="-270"/>
      <point x="-324" y="-270" type="curve" smooth="yes"/>
      <point x="-139" y="-270" type="line"/>
    </contour>
  </outline>
</glyph>
<glyph name="dvmvR" format="1">
  <advance width="0"/>
  <unicode hex="0943"/>
  <outline>
    <contour>
      <point x="-319" y="0" type="move" name="_blwm.u"/>
    </contour>
    <contour>
      <point x="-355" y="-131" type="line"/>
      <point x="-355" y="-92" type="line" smooth="yes"/>
      <point x="-355" y="-68"/>
      <point x="-347" y="-59"/>
      <point x="-321" y="-59" type="curve" smooth="yes"/>
      <point x="-55" y="-59" type="line"/>
      <point x="-55" y="0" type="line"/>
      <point x="-369" y="0" type="line" smooth="yes"/>
      <point x="-422" y="0"/>
      <point x="-444" y="-22"/>
      <point x="-444" y="-75" type="curve" smooth="yes"/>
      <point x="-444" y="-130" type="line"/>
    </contour>
    <contour>
      <point x="-444" y="-120" type="line"/>
      <point x="-444" y="-195" type="line" smooth="yes"/>
      <point x="-444" y="-248"/>
      <point x="-422" y="-270"/>
      <point x="-369" y="-270" type="curve" smooth="yes"/>
      <point x="-10" y="-270" type="line"/>
      <point x="-10" y="-211" type="line"/>
      <point x="-321" y="-211" type="line" smooth="yes"/>
      <point x="-347" y="-211"/>
      <point x="-355" y="-202"/>
      <point x="-355" y="-178" type="curve" smooth="yes"/>
      <point x="-355" y="-121" type="line"/>
    </contour>
  </outline>
</glyph>
<glyph name="dvVirama" format="1">
  <advance width="0"/>
  <unicode hex="094D"/>
  <outline>
    <contour>
      <point x="-229" y="0" type="move" name="_blwm.virama"/>
    </contour>
    <contour>
      <point x="-231" y="-61" type="line"/>
      <point x="-129" y="-198" type="line"/>
      <point x="-34" y="-198" type="line"/>
      <point x="-140" y="-61" type="line"/>
    </contour>
  </outline>
</glyph>
<glyph name="dvDDxA" format="1">
  <advance width="743"/>
  <unicode hex="095C"/>
  <outline>
    <contour>
      <point x="609" y="622" type="move" name="abvm.candra"/>
    </contour>
    <contour>
      <point x="374" y="-157" type="move" name="blwm.virama"/>
    </contour>
    <contour>
      <point x="420" y="-200" type="move" name="blwm.u"/>
    </contour>
    <contour>
      <point x="609" y="622" type="move" name="abvm.bindu"/>
    </contour>
    <contour>
      <point x="609" y="622" type="move" name="abvm.e"/>
    </contour>
    <component base="dvNukta" xOffset="639"/>
    <component base="dvDDA"/>
  </outline>
</glyph>
<glyph name="dvDDHxA" format="1">
  <advance width="789"/>
  <unicode hex="095D"/>
  <outline>
    <contour>
      <point x="618" y="622" type="move" name="abvm.candra"/>
    </contour>
    <contour>
      <point x="391" y="-157" type="move" name="blwm.virama"/>
    </contour>
    <contour>
      <point x="417" y="-200" type="move" name="blwm.u"/>
    </contour>
    <contour>
      <point x="618" y="622" type="move" name="abvm.bindu"/>
    </contour>
    <contour>
      <point x="618" y="622" type="move" name="abvm.e"/>
    </contour>
    <component base="dvNukta" xOffset="657"/>
    <component base="dvDDHA"/>
  </outline>
</glyph>
<glyph name="dvvLL" format="1">
  <advance width="1142"/>
  <unicode hex="0961"/>
  <outline>
    <contour>
      <point x="1031" y="-29" type="line"/>
      <point x="746" y="-29" type="line" smooth="yes"/>
      <point x="720" y="-29"/>
      <point x="712" y="-20"/>
      <point x="712" y="4" type="curve" smooth="yes"/>
      <point x="712" y="91" type="line" smooth="yes"/>
      <point x="712" y="115"/>
      <point x="720" y="124"/>
      <point x="746" y="124" type="curve" smooth="yes"/>
      <point x="1002" y="124" type="line"/>
      <point x="1002" y="183" type="line"/>
      <point x="698" y="183" type="line" smooth="yes"/>
      <point x="645" y="183"/>
      <point x="623" y="161"/>
      <point x="623" y="108" type="curve" smooth="yes"/>
      <point x="623" y="7" type="line" smooth="yes"/>
      <point x="623" y="-46"/>
      <point x="660" y="-78"/>
      <point x="718" y="-78" type="curve" smooth="yes"/>
      <point x="1031" y="-78" type="line"/>
    </contour>
    <contour>
      <point x="913" y="154" type="line"/>
      <point x="1002" y="154" type="line"/>
      <point x="1002" y="592" type="line"/>
      <point x="913" y="592" type="line"/>
    </contour>
    <contour>
      <point x="-20" y="563" type="line"/>
      <point x="1162" y="563" type="line"/>
      <point x="1162" y="622" type="line"/>
      <point x="-20" y="622" type="line"/>
    </contour>
    <contour>
      <point x="1031" y="-241" type="line"/>
      <point x="746" y="-241" type="line" smooth="yes"/>
      <point x="720" y="-241"/>
      <point x="712" y="-232"/>
      <point x="712" y="-208" type="curve" smooth="yes"/>
      <point x="712" y="-121" type="line" smooth="yes"/>
      <point x="712" y="-97"/>
      <point x="720" y="-88"/>
      <point x="746" y="-88" type="curve" smooth="yes"/>
      <point x="1031" y="-88" type="line"/>
      <point x="1031" y="-39" type="line"/>
      <point x="718" y="-39" type="line" smooth="yes"/>
      <point x="660" y="-39"/>
      <point x="623" y="-71"/>
      <point x="623" y="-124" type="curve" smooth="yes"/>
      <point x="623" y="-225" type="line" smooth="yes"/>
      <point x="623" y="-278"/>
      <point x="645" y="-300"/>
      <point x="698" y="-300" type="curve" smooth="yes"/>
      <point x="1031" y="-300" type="line"/>
    </contour>
    <contour>
      <point x="605" y="233" type="line"/>
      <point x="605" y="395" type="line" smooth="yes"/>
      <point x="605" y="421"/>
      <point x="610" y="426"/>
      <point x="636" y="426" type="curve" smooth="yes"/>
      <point x="944" y="426" type="line"/>
      <point x="944" y="485" type="line"/>
      <point x="609" y="485" type="line" smooth="yes"/>
      <point x="580" y="485"/>
      <point x="569" y="472"/>
      <point x="563" y="452" type="curve"/>
      <point x="559" y="452" type="line"/>
      <point x="554" y="475"/>
      <point x="538" y="485"/>
      <point x="502" y="485" type="curve" smooth="yes"/>
      <point x="199" y="485" type="line" smooth="yes"/>
      <point x="146" y="485"/>
      <point x="120" y="459"/>
      <point x="120" y="406" type="curve" smooth="yes"/>
      <point x="120" y="79" type="line" smooth="yes"/>
      <point x="120" y="26"/>
      <point x="146" y="0"/>
      <point x="199" y="0" type="curve" smooth="yes"/>
      <point x="476" y="0" type="line"/>
      <point x="476" y="59" type="line"/>
      <point x="240" y="59" type="line" smooth="yes"/>
      <point x="214" y="59"/>
      <point x="209" y="64"/>
      <point x="209" y="90" type="curve" smooth="yes"/>
      <point x="209" y="395" type="line" smooth="yes"/>
      <point x="209" y="421"/>
      <point x="214" y="426"/>
      <point x="240" y="426" type="curve" smooth="yes"/>
      <point x="484" y="426" type="line" smooth="yes"/>
      <point x="510" y="426"/>
      <point x="517" y="421"/>
      <point x="517" y="395" type="curve" smooth="yes"/>
      <point x="517" y="233" type="line"/>
    </contour>
  </outline>
</glyph>
<glyph name="dvZero" format="1">
  <advance width="742"/>
  <unicode hex="0966"/>
  <outline>
    <contour>
      <point x="622" y="78" type="curve"/>
      <point x="622" y="544" type="line" smooth="yes"/>
      <point x="622" y="592"/>
      <point x="600" y="622"/>
      <point x="544" y="622" type="curve" smooth="yes"/>
      <point x="255" y="622" type="line"/>
      <point x="255" y="563" type="line"/>
      <point x="506" y="563" type="line" smooth="yes"/>
      <point x="532" y="563"/>
      <point x="536" y="555"/>
      <point x="536" y="531" type="curve" smooth="yes"/>
      <point x="536" y="91" type="line" smooth="yes"/>
      <point x="536" y="67"/>
      <point x="532" y="59"/>
      <point x="506" y="59" type="curve" smooth="yes"/>
      <point x="244" y="59" type="line"/>
      <point x="244" y="0" type="line"/>
      <point x="544" y="0" type="line" smooth="yes"/>
      <point x="600" y="0"/>
      <point x="622" y="30"/>
    </contour>
    <contour>
      <point x="505" y="59" type="line"/>
      <point x="237" y="59" type="line" smooth="yes"/>
      <point x="211" y="59"/>
      <point x="208" y="67"/>
      <point x="208" y="91" type="curve" smooth="yes"/>
      <point x="208" y="531" type="line" smooth="yes"/>
      <point x="208" y="555"/>
      <point x="211" y="563"/>
      <point x="237" y="563" type="curve" smooth="yes"/>
      <point x="495" y="563" type="line"/>
      <point x="495" y="622" type="line"/>
      <point x="198" y="622" type="line" smooth="yes"/>
      <point x="142" y="622"/>
      <point x="120" y="592"/>
      <point x="120" y="544" type="curve" smooth="yes"/>
      <point x="120" y="78" type="line" smooth="yes"/>
      <point x="120" y="30"/>
      <point x="142" y="0"/>
      <point x="198" y="0" type="curve" smooth="yes"/>
      <point x="505" y="0" type="line"/>
    </contour>
  </outline>
</glyph>
<glyph name="dvOne" format="1">
  <advance width="519"/>
  <unicode hex="0967"/>
  <outline>
    <contour>
      <point x="338" y="622" type="line"/>
      <point x="107" y="622" type="line"/>
      <point x="107" y="563" type="line"/>
      <point x="338" y="563" type="line"/>
    </contour>
    <contour>
      <point x="291" y="622" type="line"/>
      <point x="291" y="0" type="line"/>
      <point x="379" y="0" type="line"/>
      <point x="379" y="622" type="line"/>
    </contour>
  </outline>
</glyph>
<glyph name="dvFour" format="1">
  <advance width="725"/>
  <unicode hex="096A"/>
  <outline>
    <contour>
      <point x="123" y="124" type="line"/>
      <point x="650" y="124" type="line"/>
      <point x="650" y="183" type="line"/>
      <point x="123" y="183" type="line"/>
    </contour>
    <contour>
      <point x="80" y="124" type="line"/>
      <point x="145" y="124" type="line"/>
      <point x="387" y="622" type="line"/>
      <point x="300" y="622" type="line"/>
      <point x="80" y="184" type="line"/>
    </contour>
    <contour>
      <point x="445" y="326" type="line"/>
      <point x="445" y="0" type="line"/>
      <point x="529" y="0" type="line"/>
      <point x="529" y="326" type="line"/>
    </contour>
  </outline>
</glyph>
<glyph name="dvSeven" format="1">
  <advance width="591"/>
  <unicode hex="096D"/>
  <outline>
    <contour>
      <point x="469" y="622" type="line"/>
      <point x="76" y="622" type="line"/>
      <point x="76" y="563" type="line"/>
      <point x="469" y="563" type="line"/>
    </contour>
    <contour>
      <point x="511" y="622" type="line"/>
      <point x="444" y="622" type="line"/>
      <point x="191" y="0" type="line"/>
      <point x="278" y="0" type="line"/>
      <point x="511" y="573" type="line"/>
    </contour>
  </outline>
</glyph>
<glyph name="dvEight" format="1">
  <advance width="709"/>
  <unicode hex="096E"/>
  <outline>
    <contour>
      <point x="253" y="59" type="line"/>
      <point x="217" y="59" type="line" smooth="yes"/>
      <point x="191" y="59"/>
      <point x="187" y="67"/>
      <point x="187" y="91" type="curve" smooth="yes"/>
      <point x="187" y="250" type="line" smooth="yes"/>
      <point x="187" y="273"/>
      <point x="194" y="283"/>
      <point x="218" y="283" type="curve" smooth="yes"/>
      <point x="251" y="283" type="line"/>
      <point x="251" y="342" type="line"/>
      <point x="221" y="342" type="line" smooth="yes"/>
      <point x="195" y="342"/>
      <point x="187" y="351"/>
      <point x="187" y="375" type="curve" smooth="yes"/>
      <point x="187" y="531" type="line" smooth="yes"/>
      <point x="187" y="555"/>
      <point x="191" y="563"/>
      <point x="217" y="563" type="curve" smooth="yes"/>
      <point x="247" y="563" type="line"/>
      <point x="247" y="622" type="line"/>
      <point x="179" y="622" type="line" smooth="yes"/>
      <point x="123" y="622"/>
      <point x="101" y="591"/>
      <point x="101" y="544" type="curve" smooth="yes"/>
      <point x="101" y="386" type="line" smooth="yes"/>
      <point x="101" y="340"/>
      <point x="113" y="312"/>
      <point x="154" y="312" type="curve"/>
      <point x="154" y="308" type="line"/>
      <point x="114" y="308"/>
      <point x="101" y="287"/>
      <point x="101" y="241" type="curve" smooth="yes"/>
      <point x="101" y="79" type="line" smooth="yes"/>
      <point x="101" y="31"/>
      <point x="123" y="0"/>
      <point x="179" y="0" type="curve" smooth="yes"/>
      <point x="253" y="0" type="line"/>
    </contour>
    <contour>
      <point x="241" y="0" type="line"/>
      <point x="528" y="0" type="line" smooth="yes"/>
      <point x="585" y="0"/>
      <point x="607" y="31"/>
      <point x="607" y="79" type="curve" smooth="yes"/>
      <point x="607" y="241" type="line" smooth="yes"/>
      <point x="607" y="287"/>
      <point x="594" y="308"/>
      <point x="554" y="308" type="curve"/>
      <point x="554" y="312" type="line"/>
      <point x="595" y="312"/>
      <point x="607" y="340"/>
      <point x="607" y="386" type="curve" smooth="yes"/>
      <point x="607" y="544" type="line" smooth="yes"/>
      <point x="607" y="591"/>
      <point x="585" y="622"/>
      <point x="528" y="622" type="curve" smooth="yes"/>
      <point x="237" y="622" type="line"/>
      <point x="237" y="563" type="line"/>
      <point x="490" y="563" type="line" smooth="yes"/>
      <point x="516" y="563"/>
      <point x="520" y="555"/>
      <point x="520" y="531" type="curve" smooth="yes"/>
      <point x="520" y="375" type="line" smooth="yes"/>
      <point x="520" y="352"/>
      <point x="513" y="342"/>
      <point x="489" y="342" type="curve" smooth="yes"/>
      <point x="242" y="342" type="line"/>
      <point x="242" y="283" type="line"/>
      <point x="489" y="283" type="line" smooth="yes"/>
      <point x="513" y="283"/>
      <point x="520" y="273"/>
      <point x="520" y="250" type="curve" smooth="yes"/>
      <point x="520" y="91" type="line" smooth="yes"/>
      <point x="520" y="65"/>
      <point x="514" y="59"/>
      <point x="490" y="59" type="curve" smooth="yes"/>
      <point x="241" y="59" type="line"/>
    </contour>
  </outline>
</glyph>
<glyph name="emdash" format="1">
  <advance width="894"/>
  <unicode hex="2014"/>
  <outline>
    <contour>
      <point x="60" y="262" type="line"/>
      <point x="834" y="262" type="line"/>
      <point x="834" y="321" type="line"/>
      <point x="60" y="321" type="line"/>
    </contour>
  </outline>
</glyph>
<glyph name="quoteleft" format="1">
  <advance width="209"/>
  <unicode hex="2018"/>
  <outline>
    <contour>
      <point x="149" y="369" type="line"/>
      <point x="50" y="369" type="line"/>
      <point x="50" y="429" type="line"/>
      <point x="117" y="622" type="line"/>
      <point x="149" y="622" type="line"/>
    </contour>
  </outline>
</glyph>
<glyph name="quotedblright" format="1">
  <advance width="358"/>
  <unicode hex="201D"/>
  <outline>
    <contour>
      <point x="60" y="622" type="line"/>
      <point x="159" y="622" type="line"/>
      <point x="159" y="562" type="line"/>
      <point x="93" y="369" type="line"/>
      <point x="60" y="369" type="line"/>
    </contour>
    <contour>
      <point x="209" y="622" type="line"/>
      <point x="308" y="622" type="line"/>
      <point x="308" y="562" type="line"/>
      <point x="242" y="369" type="line"/>
      <point x="209" y="369" type="line"/>
    </contour>
  </outline>
</glyph>
<glyph name="quotedblbase" format="1">
  <advance width="358"/>
  <unicode hex="201E"/>
  <outline>
    <contour>
      <point x="60" y="118" type="line"/>
      <point x="159" y="118" type="line"/>
      <point x="159" y="58" type="line"/>
      <point x="93" y="-135" type="line"/>
      <point x="60" y="-135" type="line"/>
    </contour>
    <contour>
      <point x="209" y="118" type="line"/>
      <point x="308" y="118" type="line"/>
      <point x="308" y="58" type="line"/>
      <point x="242" y="-135" type="line"/>
      <point x="209" y="-135" type="line"/>
    </contour>
  </outline>
</glyph>
<glyph name="dagger" format="1">
  <advance width="596"/>
  <unicode hex="2020"/>
  <outline>
    <contour>
      <point x="255" y="622" type="line"/>
      <point x="255" y="-113" type="line"/>
      <point x="342" y="-113" type="line"/>
      <point x="342" y="622" type="line"/>
    </contour>
    <contour>
      <point x="506" y="460" type="line"/>
      <point x="90" y="460" type="line"/>
      <point x="90" y="401" type="line"/>
      <point x="506" y="401" type="line"/>
    </contour>
  </outline>
</glyph>
<glyph name="daggerdbl" format="1">
  <advance width="596"/>
  <unicode hex="2021"/>
  <outline>
    <contour>
      <point x="255" y="622" type="line"/>
      <point x="255" y="-155" type="line"/>
      <point x="342" y="-155" type="line"/>
      <point x="342" y="622" type="line"/>
    </contour>
    <contour>
      <point x="506" y="456" type="line"/>
      <point x="90" y="456" type="line"/>
      <point x="90" y="397" type="line"/>
      <point x="506" y="397" type="line"/>
    </contour>
    <contour>
      <point x="506" y="71" type="line"/>
      <point x="90" y="71" type="line"/>
      <point x="90" y="12" type="line"/>
      <point x="506" y="12" type="line"/>
    </contour>
  </outline>
</glyph>
<glyph name="ellipsis" format="1">
  <advance width="703"/>
  <unicode hex="2026"/>
  <outline>
    <contour>
      <point x="60" y="0" type="line"/>
      <point x="168" y="0" type="line"/>
      <point x="168" y="111" type="line"/>
      <point x="60" y="111" type="line"/>
    </contour>
    <contour>
      <point x="298" y="0" type="line"/>
      <point x="406" y="0" type="line"/>
      <point x="406" y="111" type="line"/>
      <point x="298" y="111" type="line"/>
    </contour>
    <contour>
      <point x="535" y="0" type="line"/>
      <point x="643" y="0" type="line"/>
      <point x="643" y="111" type="line"/>
      <point x="535" y="111" type="line"/>
    </contour>
  </outline>
</glyph>
<glyph name="guilsinglleft" format="1">
  <advance width="317"/>
  <unicode hex="2039"/>
  <outline>
    <contour>
      <point x="182" y="105" type="line"/>
      <point x="277" y="105" type="line"/>
      <point x="151" y="259" type="line"/>
      <point x="277" y="415" type="line"/>
      <point x="182" y="415" type="line"/>
      <point x="59" y="260" type="line"/>
    </contour>
  </outline>
</glyph>
<glyph name="trademark" format="1">
  <advance width="956"/>
  <unicode hex="2122"/>
  <outline>
    <contour>
      <point x="161" y="620" type="line"/>
      <point x="161" y="297" type="line"/>
      <point x="239" y="297" type="line"/>
      <point x="239" y="620" type="line"/>
    </contour>
    <contour>
      <point x="380" y="622" type="line"/>
      <point x="20" y="622" type="line"/>
      <point x="20" y="562" type="line"/>
      <point x="380" y="562" type="line"/>
    </contour>
    <contour>
      <point x="451" y="622" type="line"/>
      <point x="451" y="297" type="line"/>
      <point x="523" y="297" type="line"/>
      <point x="523" y="537" type="line"/>
      <point x="637" y="346" type="line"/>
      <point x="706" y="346" type="line"/>
      <point x="824" y="536" type="line"/>
      <point x="824" y="297" type="line"/>
      <point x="896" y="297" type="line"/>
      <point x="896" y="622" type="line"/>
      <point x="800" y="622" type="line"/>
      <point x="671" y="414" type="line"/>
      <point x="546" y="622" type="line"/>
    </contour>
  </outline>
</glyph>
<glyph name="Omega.math" format="1">
  <advance width="755"/>
  <unicode hex="2126"/>
  <outline>
    <contour>
      <point x="213" y="532" type="line"/>
      <point x="213" y="558"/>
      <point x="218" y="563"/>
      <point x="244" y="563" type="curve" smooth="yes"/>
      <point x="513" y="563" type="line" smooth="yes"/>
      <point x="539" y="563"/>
      <point x="544" y="558"/>
      <point x="544" y="532" type="curve" smooth="yes"/>
      <point x="544" y="90" type="line" smooth="yes"/>
      <point x="544" y="64"/>
      <point x="539" y="59"/>
      <point x="513" y="59" type="curve" smooth="yes"/>
      <point x="502" y="59" type="line"/>
      <point x="502" y="50" type="line"/>
      <point x="551" y="50" type="line" smooth="yes"/>
      <point x="604" y="50"/>
      <point x="630" y="58"/>
      <point x="630" y="111" type="curve" smooth="yes"/>
      <point x="630" y="543" type="line" smooth="yes"/>
      <point x="630" y="596"/>
      <point x="604" y="622"/>
      <point x="551" y="622" type="curve" smooth="yes"/>
      <point x="205" y="622" type="line" smooth="yes"/>
      <point x="152" y="622"/>
      <point x="126" y="596"/>
      <point x="126" y="543" type="curve" smooth="yes"/>
      <point x="126" y="111" type="line" smooth="yes"/>
      <point x="126" y="58"/>
      <point x="152" y="50"/>
      <point x="205" y="50" type="curve" smooth="yes"/>
      <point x="254" y="50" type="line"/>
      <point x="254" y="59" type="line"/>
      <point x="244" y="59" type="line" smooth="yes"/>
      <point x="218" y="59"/>
      <point x="213" y="64"/>
      <point x="213" y="90" type="curve" smooth="yes"/>
    </contour>
    <contour>
      <point x="695" y="59" type="line"/>
      <point x="439" y="59" type="line"/>
      <point x="439" y="0" type="line"/>
      <point x="695" y="0" type="line"/>
    </contour>
    <contour>
      <point x="317" y="59" type="line"/>
      <point x="60" y="59" type="line"/>
      <point x="60" y="0" type="line"/>
      <point x="317" y="0" type="line"/>
    </contour>
  </outline>
</glyph>
<glyph name="estimated" format="1">
  <advance width="751"/>
  <unicode hex="212E"/>
  <outline>
    <contour>
      <point x="578" y="328" type="line"/>
      <point x="149" y="328" type="line"/>
      <point x="149" y="281" type="line"/>
      <point x="683" y="281" type="line"/>
      <point x="685" y="289"/>
      <point x="686" y="302"/>
      <point x="686" y="310" type="curve" smooth="yes"/>
      <point x="686" y="492"/>
      <point x="557" y="621"/>
      <point x="376" y="621" type="curve" smooth="yes"/>
      <point x="195" y="621"/>
      <point x="65" y="492"/>
      <point x="65" y="310" type="curve" smooth="yes"/>
      <point x="65" y="128"/>
      <point x="195" y="0"/>
      <point x="376" y="0" type="curve" smooth="yes"/>
      <point x="506" y="0"/>
      <point x="609" y="60"/>
      <point x="660" y="157" type="curve"/>
      <point x="608" y="185" type="line"/>
      <point x="567" y="107"/>
      <point x="482" y="59"/>
      <point x="376" y="59" type="curve" smooth="yes"/>
      <point x="293" y="59"/>
      <point x="224" y="93"/>
      <point x="179" y="149" type="curve"/>
      <point x="179" y="472" type="line"/>
      <point x="224" y="527"/>
      <point x="293" y="562"/>
      <point x="376" y="562" type="curve" smooth="yes"/>
      <point x="462" y="562"/>
      <point x="533" y="525"/>
      <point x="578" y="466" type="curve"/>
    </contour>
  </outline>
</glyph>
<glyph name="partialdiff" format="1">
  <advance width="652"/>
  <unicode hex="2202"/>
  <outline>
    <contour>
      <point x="212" y="608" type="line"/>
      <point x="518" y="608"/>
      <point x="556" y="496"/>
      <point x="437" y="90" type="curve" smooth="yes"/>
      <point x="429" y="64"/>
      <point x="424" y="59"/>
      <point x="398" y="59" type="curve" smooth="yes"/>
      <point x="153" y="59" type="line" smooth="yes"/>
      <point x="127" y="59"/>
      <point x="123" y="64"/>
      <point x="130" y="90" type="curve" smooth="yes"/>
      <point x="160" y="194" type="line"/>
      <point x="73" y="194" type="line"/>
      <point x="40" y="79" type="line" smooth="yes"/>
      <point x="25" y="26"/>
      <point x="45" y="0"/>
      <point x="98" y="0" type="curve" smooth="yes"/>
      <point x="422" y="0" type="line" smooth="yes"/>
      <point x="475" y="0"/>
      <point x="507" y="26"/>
      <point x="522" y="79" type="curve"/>
      <point x="643" y="501"/>
      <point x="603" y="667"/>
      <point x="229" y="667" type="curve"/>
    </contour>
    <contour>
      <point x="150" y="158" type="line"/>
      <point x="186" y="287" type="line" smooth="yes"/>
      <point x="193" y="313"/>
      <point x="200" y="318"/>
      <point x="226" y="318" type="curve" smooth="yes"/>
      <point x="526" y="318" type="line"/>
      <point x="542" y="377" type="line"/>
      <point x="203" y="377" type="line" smooth="yes"/>
      <point x="150" y="377"/>
      <point x="117" y="351"/>
      <point x="102" y="298" type="curve" smooth="yes"/>
      <point x="63" y="158" type="line"/>
    </contour>
  </outline>
</glyph>
<glyph name="product" format="1">
  <advance width="755"/>
  <unicode hex="220F"/>
  <outline>
    <contour>
      <point x="258" y="-123" type="line"/>
      <point x="258" y="591" type="line"/>
      <point x="172" y="591" type="line"/>
      <point x="172" y="-123" type="line"/>
    </contour>
    <contour>
      <point x="570" y="591" type="line"/>
      <point x="570" y="-123" type="line"/>
      <point x="655" y="-123" type="line"/>
      <point x="655" y="591" type="line"/>
    </contour>
    <contour>
      <point x="655" y="622" type="line"/>
      <point x="172" y="622" type="line"/>
      <point x="172" y="563" type="line"/>
      <point x="655" y="563" type="line"/>
    </contour>
  </outline>
</glyph>
<glyph name="minus" format="1">
  <advance width="640"/>
  <unicode hex="2212"/>
  <outline>
    <contour>
      <point x="60" y="277" type="line"/>
      <point x="580" y="277" type="line"/>
      <point x="580" y="345" type="line"/>
      <point x="60" y="345" type="line"/>
    </contour>
  </outline>
</glyph>
<glyph name="bulletoperator" format="1">
  <advance width="163"/>
  <unicode hex="2219"/>
  <outline>
    <contour>
      <point x="33" y="368" type="line"/>
      <point x="33" y="253" type="line"/>
      <point x="132" y="253" type="line"/>
      <point x="132" y="368" type="line"/>
    </contour>
  </outline>
</glyph>
<glyph name="infinity" format="1">
  <advance width="951"/>
  <unicode hex="221E"/>
  <outline>
    <contour>
      <point x="349" y="207" type="line"/>
      <point x="423" y="207"/>
      <point x="443" y="219"/>
      <point x="484" y="282" type="curve" smooth="yes"/>
      <point x="490" y="291" type="line"/>
      <point x="512" y="263" type="line" smooth="yes"/>
      <point x="549" y="215"/>
      <point x="564" y="207"/>
      <point x="625" y="207" type="curve" smooth="yes"/>
      <point x="812" y="207" type="line" smooth="yes"/>
      <point x="868" y="207"/>
      <point x="891" y="235"/>
      <point x="891" y="283" type="curve" smooth="yes"/>
      <point x="891" y="412" type="line" smooth="yes"/>
      <point x="891" y="458"/>
      <point x="868" y="487"/>
      <point x="812" y="487" type="curve" smooth="yes"/>
      <point x="616" y="487" type="line" smooth="yes"/>
      <point x="557" y="487"/>
      <point x="544" y="475"/>
      <point x="510" y="423" type="curve" smooth="yes"/>
      <point x="490" y="393" type="line"/>
      <point x="461" y="432" type="line" smooth="yes"/>
      <point x="429" y="475"/>
      <point x="413" y="487"/>
      <point x="356" y="487" type="curve" smooth="yes"/>
      <point x="137" y="487" type="line" smooth="yes"/>
      <point x="82" y="487"/>
      <point x="60" y="458"/>
      <point x="60" y="412" type="curve" smooth="yes"/>
      <point x="60" y="283" type="line" smooth="yes"/>
      <point x="60" y="235"/>
      <point x="82" y="207"/>
      <point x="137" y="207" type="curve" smooth="yes"/>
    </contour>
    <contour>
      <point x="566" y="404" type="line"/>
      <point x="578" y="421"/>
      <point x="587" y="432"/>
      <point x="605" y="432" type="curve" smooth="yes"/>
      <point x="784" y="432" type="line" smooth="yes"/>
      <point x="813" y="432"/>
      <point x="816" y="422"/>
      <point x="816" y="397" type="curve" smooth="yes"/>
      <point x="816" y="298" type="line" smooth="yes"/>
      <point x="816" y="272"/>
      <point x="813" y="263"/>
      <point x="784" y="263" type="curve" smooth="yes"/>
      <point x="616" y="263" type="line" smooth="yes"/>
      <point x="594" y="263"/>
      <point x="584" y="270"/>
      <point x="573" y="284" type="curve" smooth="yes"/>
      <point x="525" y="343" type="line"/>
    </contour>
    <contour>
      <point x="420" y="294" type="line"/>
      <point x="409" y="278"/>
      <point x="389" y="263"/>
      <point x="367" y="263" type="curve" smooth="yes"/>
      <point x="168" y="263" type="line" smooth="yes"/>
      <point x="138" y="263"/>
      <point x="135" y="272"/>
      <point x="135" y="298" type="curve" smooth="yes"/>
      <point x="135" y="396" type="line" smooth="yes"/>
      <point x="135" y="421"/>
      <point x="138" y="431"/>
      <point x="168" y="431" type="curve" smooth="yes"/>
      <point x="357" y="431" type="line" smooth="yes"/>
      <point x="385" y="431"/>
      <point x="395" y="420"/>
      <point x="411" y="398" type="curve" smooth="yes"/>
      <point x="453" y="342" type="line"/>
    </contour>
  </outline>
</glyph>
<glyph name="integral" format="1">
  <advance width="367"/>
  <unicode hex="222B"/>
  <outline>
    <contour>
      <point x="227" y="633" type="line"/>
      <point x="227" y="659"/>
      <point x="232" y="664"/>
      <point x="258" y="664" type="curve" smooth="yes"/>
      <point x="347" y="664" type="line"/>
      <point x="347" y="728" type="line"/>
      <point x="219" y="728" type="line" smooth="yes"/>
      <point x="166" y="728"/>
      <point x="140" y="702"/>
      <point x="140" y="649" type="curve" smooth="yes"/>
      <point x="140" y="-24" type="line"/>
      <point x="137" y="-50"/>
      <point x="135" y="-55"/>
      <point x="109" y="-55" type="curve" smooth="yes"/>
      <point x="20" y="-55" type="line"/>
      <point x="20" y="-119" type="line"/>
      <point x="148" y="-119" type="line" smooth="yes"/>
      <point x="201" y="-119"/>
      <point x="227" y="-93"/>
      <point x="227" y="-40" type="curve" smooth="yes"/>
    </contour>
  </outline>
</glyph>
<glyph name="approxequal" format="1">
  <advance width="777"/>
  <unicode hex="2248"/>
  <outline>
    <contour>
      <point x="218" y="203" type="curve" smooth="yes"/>
      <point x="345" y="203"/>
      <point x="413" y="100"/>
      <point x="521" y="100" type="curve" smooth="yes"/>
      <point x="619" y="100" type="line" smooth="yes"/>
      <point x="674" y="100"/>
      <point x="697" y="130"/>
      <point x="697" y="177" type="curve" smooth="yes"/>
      <point x="697" y="261" type="line"/>
      <point x="615" y="261" type="line"/>
      <point x="615" y="203" type="line" smooth="yes"/>
      <point x="615" y="171"/>
      <point x="599" y="158"/>
      <point x="559" y="158" type="curve" smooth="yes"/>
      <point x="424" y="158"/>
      <point x="380" y="261"/>
      <point x="259" y="261" type="curve" smooth="yes"/>
      <point x="157" y="261" type="line" smooth="yes"/>
      <point x="102" y="261"/>
      <point x="80" y="233"/>
      <point x="80" y="185" type="curve" smooth="yes"/>
      <point x="80" y="101" type="line"/>
      <point x="162" y="101" type="line"/>
      <point x="162" y="160" type="line" smooth="yes"/>
      <point x="162" y="192"/>
      <point x="177" y="203"/>
    </contour>
    <contour>
      <point x="218" y="423" type="curve" smooth="yes"/>
      <point x="345" y="423"/>
      <point x="413" y="320"/>
      <point x="521" y="320" type="curve" smooth="yes"/>
      <point x="619" y="320" type="line" smooth="yes"/>
      <point x="674" y="320"/>
      <point x="697" y="350"/>
      <point x="697" y="397" type="curve" smooth="yes"/>
      <point x="697" y="481" type="line"/>
      <point x="615" y="481" type="line"/>
      <point x="615" y="423" type="line" smooth="yes"/>
      <point x="615" y="391"/>
      <point x="599" y="378"/>
      <point x="559" y="378" type="curve" smooth="yes"/>
      <point x="424" y="378"/>
      <point x="380" y="481"/>
      <point x="259" y="481" type="curve" smooth="yes"/>
      <point x="157" y="481" type="line" smooth="yes"/>
      <point x="102" y="481"/>
      <point x="80" y="453"/>
      <point x="80" y="405" type="curve" smooth="yes"/>
      <point x="80" y="321" type="line"/>
      <point x="162" y="321" type="line"/>
      <point x="162" y="380" type="line" smooth="yes"/>
      <point x="162" y="412"/>
      <point x="177" y="423"/>
    </contour>
  </outline>
</glyph>
<glyph name="lessequal" format="1">
  <advance width="722"/>
  <unicode hex="2264"/>
  <outline>
    <contour>
      <point x="652" y="170" type="line"/>
      <point x="60" y="170" type="line"/>
      <point x="60" y="107" type="line"/>
      <point x="652" y="107" type="line"/>
    </contour>
    <contour>
      <point x="652" y="417" type="line"/>
      <point x="652" y="492" type="line"/>
      <point x="61" y="384" type="line"/>
      <point x="61" y="299" type="line"/>
      <point x="652" y="190" type="line"/>
      <point x="652" y="265" type="line"/>
      <point x="137" y="341" type="line"/>
    </contour>
  </outline>
</glyph>
<glyph name="greaterequal" format="1">
  <advance width="722"/>
  <unicode hex="2265"/>
  <outline>
    <contour>
      <point x="70" y="107" type="line"/>
      <point x="662" y="107" type="line"/>
      <point x="662" y="170" type="line"/>
      <point x="70" y="170" type="line"/>
    </contour>
    <contour>
      <point x="585" y="341" type="line"/>
      <point x="70" y="265" type="line"/>
      <point x="70" y="190" type="line"/>
      <point x="661" y="299" type="line"/>
      <point x="661" y="384" type="line"/>
      <point x="70" y="492" type="line"/>
      <point x="70" y="417" type="line"/>
    </contour>
  </outline>
</glyph>
<glyph name="lozenge" format="1">
  <advance width="717"/>
  <unicode hex="25CA"/>
  <outline>
    <contour>
      <point x="662" y="313" type="line"/>
      <point x="391" y="622" type="line"/>
      <point x="315" y="622" type="line"/>
      <point x="55" y="313" type="line"/>
      <point x="315" y="0" type="line"/>
      <point x="391" y="0" type="line"/>
    </contour>
    <contour>
      <point x="563" y="313" type="line"/>
      <point x="354" y="66" type="line"/>
      <point x="155" y="313" type="line"/>
      <point x="354" y="557" type="line"/>
    </contour>
  </outline>
</glyph>
<glyph name="fi" format="1">
  <advance width="610"/>
  <unicode hex="FB01"/>
  <outline>
    <contour>
      <point x="520" y="0" type="line"/>
      <point x="520" y="485" type="line"/>
      <point x="434" y="485" type="line"/>
      <point x="434" y="0" type="line"/>
    </contour>
    <contour>
      <point x="228" y="575" type="line"/>
      <point x="228" y="601"/>
      <point x="233" y="606"/>
      <point x="259" y="606" type="curve" smooth="yes"/>
      <point x="382" y="606" type="line"/>
      <point x="382" y="669" type="line"/>
      <point x="221" y="669" type="line" smooth="yes"/>
      <point x="168" y="669"/>
      <point x="142" y="643"/>
      <point x="142" y="590" type="curve" smooth="yes"/>
      <point x="142" y="0" type="line"/>
      <point x="228" y="0" type="line"/>
    </contour>
    <contour>
      <point x="498" y="485" type="line"/>
      <point x="70" y="485" type="line"/>
      <point x="70" y="426" type="line"/>
      <point x="498" y="426" type="line"/>
    </contour>
    <contour>
      <point x="434" y="599" type="line"/>
      <point x="521" y="599" type="line"/>
      <point x="521" y="669" type="line"/>
      <point x="434" y="669" type="line"/>
    </contour>
  </outline>
</glyph>
<glyph name="dvBH_RA" format="1">
  <advance width="1082"/>
  <outline>
    <contour>
      <point x="854" y="-71" type="move" name="blwm.u"/>
    </contour>
    <contour>
      <point x="898" y="369" type="line"/>
      <point x="198" y="369" type="line" smooth="yes"/>
      <point x="145" y="369"/>
      <point x="119" y="344"/>
      <point x="119" y="291" type="curve" smooth="yes"/>
      <point x="119" y="157" type="line" smooth="yes"/>
      <point x="119" y="104"/>
      <point x="145" y="78"/>
      <point x="198" y="78" type="curve" smooth="yes"/>
      <point x="488" y="78" type="line"/>
      <point x="488" y="136" type="line"/>
      <point x="236" y="136" type="line" smooth="yes"/>
      <point x="210" y="136"/>
      <point x="205" y="142"/>
      <point x="205" y="167" type="curve" smooth="yes"/>
      <point x="205" y="279" type="line" smooth="yes"/>
      <point x="205" y="305"/>
      <point x="210" y="310"/>
      <point x="236" y="310" type="curve" smooth="yes"/>
      <point x="898" y="310" type="line"/>
    </contour>
    <contour>
      <point x="245" y="563" type="line"/>
      <point x="503" y="563" type="line" smooth="yes"/>
      <point x="529" y="563"/>
      <point x="534" y="558"/>
      <point x="534" y="532" type="curve" smooth="yes"/>
      <point x="534" y="167" type="line" smooth="yes"/>
      <point x="534" y="142"/>
      <point x="529" y="136"/>
      <point x="503" y="136" type="curve" smooth="yes"/>
      <point x="251" y="136" type="line"/>
      <point x="251" y="78" type="line"/>
      <point x="544" y="78" type="line" smooth="yes"/>
      <point x="597" y="78"/>
      <point x="623" y="104"/>
      <point x="623" y="157" type="curve" smooth="yes"/>
      <point x="623" y="543" type="line" smooth="yes"/>
      <point x="623" y="596"/>
      <point x="597" y="622"/>
      <point x="544" y="622" type="curve" smooth="yes"/>
      <point x="245" y="622" type="line"/>
    </contour>
    <contour>
      <point x="853" y="563" type="line"/>
      <point x="1102" y="563" type="line"/>
      <point x="1102" y="622" type="line"/>
      <point x="853" y="622" type="line"/>
    </contour>
    <contour>
      <point x="208" y="446" type="line"/>
      <point x="208" y="532" type="line" smooth="yes"/>
      <point x="208" y="558"/>
      <point x="213" y="563"/>
      <point x="239" y="563" type="curve" smooth="yes"/>
      <point x="495" y="563" type="line"/>
      <point x="495" y="622" type="line"/>
      <point x="198" y="622" type="line" smooth="yes"/>
      <point x="145" y="622"/>
      <point x="119" y="596"/>
      <point x="119" y="543" type="curve" smooth="yes"/>
      <point x="119" y="446" type="line"/>
    </contour>
    <contour>
      <point x="854" y="-12" type="line"/>
      <point x="942" y="-12" type="line"/>
      <point x="942" y="591" type="line"/>
      <point x="853" y="591" type="line"/>
      <point x="853" y="209" type="line"/>
      <point x="571" y="-57" type="line"/>
      <point x="682" y="-57" type="line"/>
      <point x="858" y="118" type="line"/>
      <point x="858" y="118"/>
      <point x="854" y="64"/>
      <point x="854" y="16" type="curve" smooth="yes"/>
    </contour>
  </outline>
</glyph>
<glyph name="dvBH_YA" format="1">
  <advance width="1723"/>
  <outline>
    <contour>
      <point x="1495" y="591" type="line"/>
      <point x="1495" y="0" type="line"/>
      <point x="1583" y="0" type="line"/>
      <point x="1583" y="591" type="line"/>
    </contour>
    <contour>
      <point x="1024" y="78" type="line"/>
      <point x="1458" y="78" type="line" smooth="yes"/>
      <point x="1488" y="78"/>
      <point x="1502" y="89"/>
      <point x="1502" y="125" type="curve"/>
      <point x="1495" y="176" type="line"/>
      <point x="1495" y="147"/>
      <point x="1484" y="137"/>
      <point x="1454" y="137" type="curve" smooth="yes"/>
      <point x="1024" y="137" type="line"/>
    </contour>
    <contour>
      <point x="1038" y="137" type="line"/>
      <point x="960" y="137" type="line" smooth="yes"/>
      <point x="934" y="137"/>
      <point x="929" y="142"/>
      <point x="929" y="168" type="curve" smooth="yes"/>
      <point x="929" y="368" type="line"/>
      <point x="840" y="368" type="line"/>
      <point x="840" y="157" type="line" smooth="yes"/>
      <point x="840" y="104"/>
      <point x="866" y="78"/>
      <point x="919" y="78" type="curve" smooth="yes"/>
      <point x="1038" y="78" type="line"/>
    </contour>
    <contour>
      <point x="900" y="309" type="line"/>
      <point x="1196" y="309" type="line" smooth="yes"/>
      <point x="1249" y="309"/>
      <point x="1275" y="335"/>
      <point x="1275" y="388" type="curve" smooth="yes"/>
      <point x="1275" y="437" type="line"/>
      <point x="1186" y="437" type="line"/>
      <point x="1186" y="400" type="line" smooth="yes"/>
      <point x="1186" y="374"/>
      <point x="1181" y="368"/>
      <point x="1155" y="368" type="curve" smooth="yes"/>
      <point x="900" y="368" type="line"/>
    </contour>
    <contour>
      <point x="1275" y="432" type="line"/>
      <point x="1275" y="536" type="line" smooth="yes"/>
      <point x="1275" y="564"/>
      <point x="1261" y="570"/>
      <point x="1238" y="570" type="curve"/>
      <point x="1238" y="563" type="line"/>
      <point x="1743" y="563" type="line"/>
      <point x="1743" y="622" type="line"/>
      <point x="730" y="622" type="line"/>
      <point x="730" y="563" type="line"/>
      <point x="1155" y="563" type="line" smooth="yes"/>
      <point x="1181" y="563"/>
      <point x="1186" y="558"/>
      <point x="1186" y="532" type="curve" smooth="yes"/>
      <point x="1186" y="432" type="line"/>
    </contour>
    <contour>
      <point x="858" y="368" type="line"/>
      <point x="198" y="368" type="line" smooth="yes"/>
      <point x="145" y="368"/>
      <point x="119" y="343"/>
      <point x="119" y="290" type="curve" smooth="yes"/>
      <point x="119" y="157" type="line" smooth="yes"/>
      <point x="119" y="104"/>
      <point x="145" y="78"/>
      <point x="198" y="78" type="curve" smooth="yes"/>
      <point x="488" y="78" type="line"/>
      <point x="488" y="136" type="line"/>
      <point x="236" y="136" type="line" smooth="yes"/>
      <point x="210" y="136"/>
      <point x="205" y="142"/>
      <point x="205" y="167" type="curve" smooth="yes"/>
      <point x="205" y="278" type="line" smooth="yes"/>
      <point x="205" y="304"/>
      <point x="210" y="309"/>
      <point x="236" y="309" type="curve" smooth="yes"/>
      <point x="858" y="309" type="line"/>
    </contour>
    <contour>
      <point x="245" y="563" type="line"/>
      <point x="503" y="563" type="line" smooth="yes"/>
      <point x="529" y="563"/>
      <point x="534" y="558"/>
      <point x="534" y="532" type="curve" smooth="yes"/>
      <point x="534" y="167" type="line" smooth="yes"/>
      <point x="534" y="142"/>
      <point x="529" y="136"/>
      <point x="503" y="136" type="curve" smooth="yes"/>
      <point x="251" y="136" type="line"/>
      <point x="251" y="78" type="line"/>
      <point x="544" y="78" type="line" smooth="yes"/>
      <point x="597" y="78"/>
      <point x="623" y="104"/>
      <point x="623" y="157" type="curve" smooth="yes"/>
      <point x="623" y="543" type="line" smooth="yes"/>
      <point x="623" y="596"/>
      <point x="597" y="622"/>
      <point x="544" y="622" type="curve" smooth="yes"/>
      <point x="245" y="622" type="line"/>
    </contour>
    <contour>
      <point x="208" y="446" type="line"/>
      <point x="208" y="532" type="line" smooth="yes"/>
      <point x="208" y="558"/>
      <point x="213" y="563"/>
      <point x="239" y="563" type="curve" smooth="yes"/>
      <point x="495" y="563" type="line"/>
      <point x="495" y="622" type="line"/>
      <point x="198" y="622" type="line" smooth="yes"/>
      <point x="145" y="622"/>
      <point x="119" y="596"/>
      <point x="119" y="543" type="curve" smooth="yes"/>
      <point x="119" y="446" type="line"/>
    </contour>
  </outline>
</glyph>
<glyph name="dvB_DA" format="1">
  <advance width="1277"/>
  <outline>
    <contour>
      <point x="1127" y="622" type="move" name="abvm.candra"/>
    </contour>
    <contour>
      <point x="1048" y="0" type="move" name="blwm.virama"/>
    </contour>
    <contour>
      <point x="1048" y="0" type="move" name="blwm.u"/>
    </contour>
    <contour>
      <point x="1127" y="622" type="move" name="abvm.bindu"/>
    </contour>
    <contour>
      <point x="1127" y="622" type="move" name="abvm.e"/>
    </contour>
    <contour>
      <point x="-20" y="563" type="line"/>
      <point x="562" y="563" type="line"/>
      <point x="562" y="622" type="line"/>
      <point x="-20" y="622" type="line"/>
    </contour>
    <contour>
      <point x="653" y="170" type="line"/>
      <point x="614" y="170" type="line"/>
      <point x="614" y="146"/>
      <point x="606" y="137"/>
      <point x="580" y="137" type="curve" smooth="yes"/>
      <point x="458" y="137" type="line"/>
      <point x="458" y="78" type="line"/>
      <point x="584" y="78" type="line" smooth="yes"/>
      <point x="637" y="78"/>
      <point x="653" y="101"/>
      <point x="653" y="149" type="curve" smooth="yes"/>
    </contour>
    <contour>
      <point x="625" y="184" type="line"/>
      <point x="217" y="426" type="line"/>
      <point x="562" y="426" type="line"/>
      <point x="562" y="485" type="line"/>
      <point x="179" y="485" type="line" smooth="yes"/>
      <point x="126" y="485"/>
      <point x="100" y="459"/>
      <point x="100" y="406" type="curve" smooth="yes"/>
      <point x="100" y="157" type="line" smooth="yes"/>
      <point x="100" y="104"/>
      <point x="126" y="78"/>
      <point x="179" y="78" type="curve" smooth="yes"/>
      <point x="535" y="78" type="line"/>
      <point x="535" y="137" type="line"/>
      <point x="217" y="137" type="line" smooth="yes"/>
      <point x="191" y="137"/>
      <point x="186" y="143"/>
      <point x="186" y="168" type="curve" smooth="yes"/>
      <point x="186" y="284" type="line" smooth="yes"/>
      <point x="186" y="325"/>
      <point x="183" y="386"/>
      <point x="183" y="386" type="curve"/>
      <point x="625" y="124" type="line"/>
    </contour>
    <component base="dvDA" xOffset="514"/>
  </outline>
</glyph>
<glyph name="dvB_JxA" format="1">
  <advance width="1550"/>
  <outline>
    <contour>
      <point x="-20" y="563" type="line"/>
      <point x="542" y="563" type="line"/>
      <point x="542" y="622" type="line"/>
      <point x="-20" y="622" type="line"/>
    </contour>
    <contour>
      <point x="633" y="170" type="line"/>
      <point x="594" y="170" type="line"/>
      <point x="594" y="146"/>
      <point x="586" y="137"/>
      <point x="560" y="137" type="curve" smooth="yes"/>
      <point x="438" y="137" type="line"/>
      <point x="438" y="78" type="line"/>
      <point x="564" y="78" type="line" smooth="yes"/>
      <point x="617" y="78"/>
      <point x="633" y="101"/>
      <point x="633" y="149" type="curve" smooth="yes"/>
    </contour>
    <contour>
      <point x="605" y="184" type="line"/>
      <point x="217" y="426" type="line"/>
      <point x="542" y="426" type="line"/>
      <point x="542" y="485" type="line"/>
      <point x="179" y="485" type="line" smooth="yes"/>
      <point x="126" y="485"/>
      <point x="100" y="459"/>
      <point x="100" y="406" type="curve" smooth="yes"/>
      <point x="100" y="157" type="line" smooth="yes"/>
      <point x="100" y="104"/>
      <point x="126" y="78"/>
      <point x="179" y="78" type="curve" smooth="yes"/>
      <point x="515" y="78" type="line"/>
      <point x="515" y="137" type="line"/>
      <point x="217" y="137" type="line" smooth="yes"/>
      <point x="191" y="137"/>
      <point x="186" y="143"/>
      <point x="186" y="168" type="curve" smooth="yes"/>
      <point x="186" y="284" type="line" smooth="yes"/>
      <point x="186" y="325"/>
      <point x="183" y="386"/>
      <point x="183" y="386" type="curve"/>
      <point x="605" y="124" type="line"/>
    </contour>
    <component base="dvNukta" xOffset="1061" yOffset="78"/>
    <component base="dvJA" xOffset="475"/>
  </outline>
</glyph>
<glyph name="dvB_NA" format="1">
  <advance width="1576"/>
  <outline>
    <contour>
      <point x="653" y="170" type="line"/>
      <point x="614" y="170" type="line"/>
      <point x="614" y="146"/>
      <point x="606" y="137"/>
      <point x="580" y="137" type="curve" smooth="yes"/>
      <point x="458" y="137" type="line"/>
      <point x="458" y="78" type="line"/>
      <point x="584" y="78" type="line" smooth="yes"/>
      <point x="637" y="78"/>
      <point x="653" y="101"/>
      <point x="653" y="149" type="curve" smooth="yes"/>
    </contour>
    <contour>
      <point x="625" y="187" type="line"/>
      <point x="217" y="426" type="line"/>
      <point x="562" y="426" type="line"/>
      <point x="562" y="485" type="line"/>
      <point x="179" y="485" type="line" smooth="yes"/>
      <point x="126" y="485"/>
      <point x="100" y="459"/>
      <point x="100" y="406" type="curve" smooth="yes"/>
      <point x="100" y="157" type="line" smooth="yes"/>
      <point x="100" y="104"/>
      <point x="126" y="78"/>
      <point x="179" y="78" type="curve" smooth="yes"/>
      <point x="535" y="78" type="line"/>
      <point x="535" y="137" type="line"/>
      <point x="217" y="137" type="line" smooth="yes"/>
      <point x="191" y="137"/>
      <point x="186" y="143"/>
      <point x="186" y="168" type="curve" smooth="yes"/>
      <point x="186" y="288" type="line" smooth="yes"/>
      <point x="186" y="329"/>
      <point x="183" y="390"/>
      <point x="183" y="390" type="curve"/>
      <point x="625" y="131" type="line"/>
    </contour>
    <contour>
      <point x="-20" y="563" type="line"/>
      <point x="562" y="563" type="line"/>
      <point x="562" y="622" type="line"/>
      <point x="-20" y="622" type="line"/>
    </contour>
    <component base="dvNA" xOffset="524"/>
  </outline>
</glyph>
<glyph name="dvB_R" format="1">
  <advance width="475"/>
  <outline>
    <contour>
      <point x="497" y="84" type="line"/>
      <point x="502" y="84" type="line"/>
      <point x="378" y="-57" type="line"/>
      <point x="483" y="-57" type="line"/>
      <point x="612" y="105" type="line"/>
      <point x="639" y="105" type="line"/>
      <point x="639" y="143" type="line"/>
      <point x="497" y="143" type="line"/>
    </contour>
    <contour>
      <point x="625" y="187" type="line"/>
      <point x="217" y="426" type="line"/>
      <point x="562" y="426" type="line"/>
      <point x="562" y="485" type="line"/>
      <point x="179" y="485" type="line" smooth="yes"/>
      <point x="126" y="485"/>
      <point x="100" y="459"/>
      <point x="100" y="406" type="curve" smooth="yes"/>
      <point x="100" y="163" type="line" smooth="yes"/>
      <point x="100" y="110"/>
      <point x="126" y="84"/>
      <point x="179" y="84" type="curve" smooth="yes"/>
      <point x="515" y="84" type="line"/>
      <point x="515" y="143" type="line"/>
      <point x="217" y="143" type="line" smooth="yes"/>
      <point x="191" y="143"/>
      <point x="186" y="149"/>
      <point x="186" y="174" type="curve" smooth="yes"/>
      <point x="186" y="283" type="line" smooth="yes"/>
      <point x="186" y="324"/>
      <point x="183" y="385"/>
      <point x="183" y="385" type="curve"/>
      <point x="625" y="126" type="line"/>
    </contour>
    <contour>
      <point x="-20" y="563" type="line"/>
      <point x="495" y="563" type="line"/>
      <point x="495" y="622" type="line"/>
      <point x="-20" y="622" type="line"/>
    </contour>
  </outline>
</glyph>
<glyph name="dvB_RA" format="1">
  <advance width="832"/>
  <outline>
    <contour>
      <point x="496" y="84" type="line"/>
      <point x="514" y="84" type="line"/>
      <point x="390" y="-57" type="line"/>
      <point x="483" y="-57" type="line"/>
      <point x="612" y="105" type="line"/>
      <point x="617" y="133" type="line"/>
      <point x="606" y="177" type="line"/>
      <point x="606" y="151"/>
      <point x="598" y="143"/>
      <point x="572" y="143" type="curve" smooth="yes"/>
      <point x="496" y="143" type="line"/>
    </contour>
    <contour>
      <point x="603" y="0" type="line"/>
      <point x="692" y="0" type="line"/>
      <point x="692" y="592" type="line"/>
      <point x="603" y="592" type="line"/>
      <point x="603" y="312" type="line" smooth="yes"/>
      <point x="603" y="223"/>
      <point x="611" y="174"/>
      <point x="611" y="174" type="curve"/>
      <point x="217" y="426" type="line"/>
      <point x="562" y="426" type="line"/>
      <point x="562" y="485" type="line"/>
      <point x="179" y="485" type="line" smooth="yes"/>
      <point x="126" y="485"/>
      <point x="100" y="459"/>
      <point x="100" y="406" type="curve" smooth="yes"/>
      <point x="100" y="163" type="line" smooth="yes"/>
      <point x="100" y="110"/>
      <point x="126" y="84"/>
      <point x="179" y="84" type="curve" smooth="yes"/>
      <point x="517" y="84" type="line"/>
      <point x="517" y="143" type="line"/>
      <point x="217" y="143" type="line" smooth="yes"/>
      <point x="191" y="143"/>
      <point x="186" y="149"/>
      <point x="186" y="174" type="curve" smooth="yes"/>
      <point x="186" y="286" type="line" smooth="yes"/>
      <point x="186" y="327"/>
      <point x="183" y="388"/>
      <point x="183" y="388" type="curve"/>
      <point x="608" y="118" type="line"/>
      <point x="603" y="98" type="line"/>
    </contour>
    <contour>
      <point x="-20" y="563" type="line"/>
      <point x="852" y="563" type="line"/>
      <point x="852" y="622" type="line"/>
      <point x="-20" y="622" type="line"/>
    </contour>
  </outline>
</glyph>
<glyph name="dvC_CH_VA" format="1">
  <advance width="1551"/>
  <outline>
    <contour>
      <point x="1259" y="622" type="move" name="abvm.candra"/>
    </contour>
    <contour>
      <point x="1259" y="622" type="move" name="abvm.bindu"/>
    </contour>
    <contour>
      <point x="1259" y="622" type="move" name="abvm.e"/>
    </contour>
    <contour>
      <point x="1178" y="-221" type="move" name="blwm.u"/>
    </contour>
    <contour>
      <point x="1178" y="-221" type="move" name="blwm.virama"/>
    </contour>
    <contour>
      <point x="650" y="170" type="line"/>
      <point x="611" y="170" type="line"/>
      <point x="611" y="146"/>
      <point x="603" y="137"/>
      <point x="577" y="137" type="curve" smooth="yes"/>
      <point x="414" y="137" type="line"/>
      <point x="414" y="78" type="line"/>
      <point x="581" y="78" type="line" smooth="yes"/>
      <point x="634" y="78"/>
      <point x="650" y="101"/>
      <point x="650" y="149" type="curve" smooth="yes"/>
    </contour>
    <contour>
      <point x="36" y="426" type="line"/>
      <point x="157" y="426" type="line"/>
      <point x="157" y="433" type="line"/>
      <point x="133" y="433"/>
      <point x="120" y="427"/>
      <point x="120" y="399" type="curve" smooth="yes"/>
      <point x="120" y="157" type="line" smooth="yes"/>
      <point x="120" y="104"/>
      <point x="146" y="78"/>
      <point x="199" y="78" type="curve" smooth="yes"/>
      <point x="495" y="78" type="line"/>
      <point x="495" y="137" type="line"/>
      <point x="240" y="137" type="line" smooth="yes"/>
      <point x="214" y="137"/>
      <point x="209" y="142"/>
      <point x="209" y="168" type="curve" smooth="yes"/>
      <point x="209" y="395" type="line" smooth="yes"/>
      <point x="209" y="420"/>
      <point x="214" y="426"/>
      <point x="239" y="426" type="curve" smooth="yes"/>
      <point x="412" y="426" type="line"/>
      <point x="412" y="485" type="line"/>
      <point x="36" y="485" type="line"/>
    </contour>
    <contour>
      <point x="-20" y="563" type="line"/>
      <point x="591" y="563" type="line"/>
      <point x="591" y="622" type="line"/>
      <point x="-20" y="622" type="line"/>
    </contour>
    <contour>
      <point x="1143" y="426" type="line"/>
      <point x="1318" y="426" type="line" smooth="yes"/>
      <point x="1344" y="426"/>
      <point x="1350" y="421"/>
      <point x="1350" y="395" type="curve" smooth="yes"/>
      <point x="1350" y="119" type="line" smooth="yes"/>
      <point x="1350" y="93"/>
      <point x="1344" y="88"/>
      <point x="1318" y="88" type="curve" smooth="yes"/>
      <point x="1207" y="88" type="line"/>
      <point x="1207" y="29" type="line"/>
      <point x="1352" y="29" type="line" smooth="yes"/>
      <point x="1405" y="29"/>
      <point x="1431" y="55"/>
      <point x="1431" y="108" type="curve" smooth="yes"/>
      <point x="1431" y="406" type="line" smooth="yes"/>
      <point x="1431" y="459"/>
      <point x="1405" y="485"/>
      <point x="1352" y="485" type="curve" smooth="yes"/>
      <point x="1143" y="485" type="line"/>
    </contour>
    <contour>
      <point x="1153" y="485" type="line"/>
      <point x="1027" y="485" type="line" smooth="yes"/>
      <point x="974" y="485"/>
      <point x="948" y="459"/>
      <point x="948" y="406" type="curve" smooth="yes"/>
      <point x="948" y="280" type="line" smooth="yes"/>
      <point x="948" y="227"/>
      <point x="974" y="201"/>
      <point x="1027" y="201" type="curve" smooth="yes"/>
      <point x="1194" y="201" type="line"/>
      <point x="1194" y="260" type="line"/>
      <point x="1065" y="260" type="line" smooth="yes"/>
      <point x="1039" y="260"/>
      <point x="1033" y="265"/>
      <point x="1033" y="291" type="curve" smooth="yes"/>
      <point x="1033" y="395" type="line" smooth="yes"/>
      <point x="1033" y="421"/>
      <point x="1039" y="426"/>
      <point x="1065" y="426" type="curve" smooth="yes"/>
      <point x="1153" y="426" type="line"/>
    </contour>
    <contour>
      <point x="700" y="173" type="line"/>
      <point x="700" y="249" type="line" smooth="yes"/>
      <point x="700" y="275"/>
      <point x="705" y="280"/>
      <point x="731" y="280" type="curve" smooth="yes"/>
      <point x="902" y="280" type="line"/>
      <point x="902" y="339" type="line"/>
      <point x="731" y="339" type="line" smooth="yes"/>
      <point x="705" y="339"/>
      <point x="700" y="344"/>
      <point x="700" y="370" type="curve" smooth="yes"/>
      <point x="700" y="532" type="line" smooth="yes"/>
      <point x="700" y="558"/>
      <point x="705" y="563"/>
      <point x="731" y="563" type="curve" smooth="yes"/>
      <point x="1571" y="563" type="line"/>
      <point x="1571" y="622" type="line"/>
      <point x="470" y="622" type="line"/>
      <point x="470" y="563" type="line"/>
      <point x="647" y="563" type="line"/>
      <point x="647" y="570" type="line"/>
      <point x="624" y="570"/>
      <point x="611" y="564"/>
      <point x="611" y="536" type="curve" smooth="yes"/>
      <point x="611" y="359" type="line" smooth="yes"/>
      <point x="611" y="328"/>
      <point x="626" y="312"/>
      <point x="652" y="310" type="curve"/>
      <point x="652" y="306" type="line"/>
      <point x="626" y="304"/>
      <point x="611" y="290"/>
      <point x="611" y="258" type="curve" smooth="yes"/>
      <point x="611" y="173" type="line"/>
    </contour>
    <contour>
      <point x="878" y="-77" type="line"/>
      <point x="878" y="-2" type="line" smooth="yes"/>
      <point x="878" y="24"/>
      <point x="883" y="29"/>
      <point x="909" y="29" type="curve" smooth="yes"/>
      <point x="1251" y="29" type="line"/>
      <point x="1251" y="88" type="line"/>
      <point x="731" y="88" type="line" smooth="yes"/>
      <point x="705" y="88"/>
      <point x="700" y="93"/>
      <point x="700" y="119" type="curve" smooth="yes"/>
      <point x="700" y="189" type="line"/>
      <point x="611" y="189" type="line"/>
      <point x="611" y="108" type="line" smooth="yes"/>
      <point x="611" y="55"/>
      <point x="637" y="29"/>
      <point x="690" y="29" type="curve" smooth="yes"/>
      <point x="827" y="29" type="line"/>
      <point x="827" y="36" type="line"/>
      <point x="804" y="36"/>
      <point x="791" y="30"/>
      <point x="791" y="2" type="curve" smooth="yes"/>
      <point x="791" y="-77" type="line"/>
    </contour>
    <contour>
      <point x="791" y="-20" type="line"/>
      <point x="791" y="-104" type="line" smooth="yes"/>
      <point x="791" y="-157"/>
      <point x="816" y="-182"/>
      <point x="869" y="-182" type="curve" smooth="yes"/>
      <point x="962" y="-182" type="line"/>
      <point x="962" y="-123" type="line"/>
      <point x="909" y="-123" type="line" smooth="yes"/>
      <point x="883" y="-123"/>
      <point x="878" y="-118"/>
      <point x="878" y="-92" type="curve" smooth="yes"/>
      <point x="878" y="-20" type="line"/>
    </contour>
    <contour>
      <point x="1178" y="72" type="line"/>
      <point x="1178" y="-221" type="line"/>
      <point x="1259" y="-221" type="line"/>
      <point x="1259" y="72" type="line"/>
    </contour>
    <contour>
      <point x="951" y="-182" type="line"/>
      <point x="1146" y="-182" type="line" smooth="yes"/>
      <point x="1176" y="-182"/>
      <point x="1189" y="-171"/>
      <point x="1189" y="-135" type="curve"/>
      <point x="1178" y="-89" type="line"/>
      <point x="1178" y="-115"/>
      <point x="1170" y="-123"/>
      <point x="1144" y="-123" type="curve" smooth="yes"/>
      <point x="951" y="-123" type="line"/>
    </contour>
    <contour>
      <point x="1259" y="464" type="line"/>
      <point x="1259" y="592" type="line"/>
      <point x="1177" y="592" type="line"/>
      <point x="1177" y="464" type="line"/>
    </contour>
  </outline>
</glyph>
<glyph name="dvC_NA" format="1">
  <advance width="1577"/>
  <outline>
    <contour>
      <point x="36" y="426" type="line"/>
      <point x="157" y="426" type="line"/>
      <point x="157" y="433" type="line"/>
      <point x="133" y="433"/>
      <point x="120" y="427"/>
      <point x="120" y="399" type="curve" smooth="yes"/>
      <point x="120" y="157" type="line" smooth="yes"/>
      <point x="120" y="104"/>
      <point x="146" y="78"/>
      <point x="199" y="78" type="curve" smooth="yes"/>
      <point x="574" y="78" type="line"/>
      <point x="574" y="137" type="line"/>
      <point x="240" y="137" type="line" smooth="yes"/>
      <point x="214" y="137"/>
      <point x="209" y="142"/>
      <point x="209" y="168" type="curve" smooth="yes"/>
      <point x="209" y="395" type="line" smooth="yes"/>
      <point x="209" y="420"/>
      <point x="214" y="426"/>
      <point x="239" y="426" type="curve" smooth="yes"/>
      <point x="412" y="426" type="line"/>
      <point x="412" y="485" type="line"/>
      <point x="36" y="485" type="line"/>
    </contour>
    <contour>
      <point x="-20" y="563" type="line"/>
      <point x="591" y="563" type="line"/>
      <point x="591" y="622" type="line"/>
      <point x="-20" y="622" type="line"/>
    </contour>
    <contour>
      <point x="654" y="170" type="line"/>
      <point x="615" y="170" type="line"/>
      <point x="615" y="146"/>
      <point x="607" y="137"/>
      <point x="581" y="137" type="curve" smooth="yes"/>
      <point x="565" y="137" type="line"/>
      <point x="565" y="78" type="line"/>
      <point x="585" y="78" type="line" smooth="yes"/>
      <point x="638" y="78"/>
      <point x="654" y="101"/>
      <point x="654" y="149" type="curve" smooth="yes"/>
    </contour>
    <contour>
      <point x="1376" y="485" type="line"/>
      <point x="694" y="485" type="line" smooth="yes"/>
      <point x="641" y="485"/>
      <point x="615" y="459"/>
      <point x="615" y="406" type="curve" smooth="yes"/>
      <point x="615" y="157" type="line" smooth="yes"/>
      <point x="615" y="104"/>
      <point x="641" y="78"/>
      <point x="694" y="78" type="curve" smooth="yes"/>
      <point x="990" y="78" type="line"/>
      <point x="990" y="137" type="line"/>
      <point x="734" y="137" type="line" smooth="yes"/>
      <point x="708" y="137"/>
      <point x="703" y="142"/>
      <point x="703" y="168" type="curve" smooth="yes"/>
      <point x="703" y="395" type="line" smooth="yes"/>
      <point x="703" y="421"/>
      <point x="708" y="426"/>
      <point x="734" y="426" type="curve" smooth="yes"/>
      <point x="1376" y="426" type="line"/>
    </contour>
    <contour>
      <point x="1597" y="563" type="line"/>
      <point x="1597" y="622" type="line"/>
      <point x="505" y="622" type="line"/>
      <point x="505" y="563" type="line"/>
    </contour>
    <contour>
      <point x="1348" y="597" type="line"/>
      <point x="1348" y="0" type="line"/>
      <point x="1437" y="0" type="line"/>
      <point x="1437" y="597" type="line"/>
    </contour>
    <contour>
      <point x="982" y="78" type="line"/>
      <point x="1040" y="78" type="line" smooth="yes"/>
      <point x="1093" y="78"/>
      <point x="1118" y="104"/>
      <point x="1118" y="157" type="curve" smooth="yes"/>
      <point x="1118" y="461" type="line"/>
      <point x="1031" y="461" type="line"/>
      <point x="1031" y="168" type="line" smooth="yes"/>
      <point x="1031" y="142"/>
      <point x="1026" y="137"/>
      <point x="1000" y="137" type="curve" smooth="yes"/>
      <point x="982" y="137" type="line"/>
    </contour>
  </outline>
</glyph>
<glyph name="dvC_R" format="1">
  <advance width="479"/>
  <outline>
    <contour>
      <point x="-20" y="563" type="line"/>
      <point x="499" y="563" type="line"/>
      <point x="499" y="622" type="line"/>
      <point x="-20" y="622" type="line"/>
    </contour>
    <contour>
      <point x="36" y="426" type="line"/>
      <point x="129" y="426" type="line"/>
      <point x="123" y="421"/>
      <point x="120" y="412"/>
      <point x="120" y="399" type="curve" smooth="yes"/>
      <point x="120" y="168" type="line" smooth="yes"/>
      <point x="120" y="115"/>
      <point x="146" y="89"/>
      <point x="199" y="89" type="curve" smooth="yes"/>
      <point x="496" y="89" type="line"/>
      <point x="342" y="-54" type="line"/>
      <point x="455" y="-54" type="line"/>
      <point x="624" y="108" type="line"/>
      <point x="661" y="108" type="line"/>
      <point x="661" y="148" type="line"/>
      <point x="240" y="148" type="line" smooth="yes"/>
      <point x="214" y="148"/>
      <point x="209" y="153"/>
      <point x="209" y="179" type="curve" smooth="yes"/>
      <point x="209" y="395" type="line" smooth="yes"/>
      <point x="209" y="420"/>
      <point x="214" y="426"/>
      <point x="239" y="426" type="curve" smooth="yes"/>
      <point x="412" y="426" type="line"/>
      <point x="412" y="485" type="line"/>
      <point x="36" y="485" type="line"/>
    </contour>
  </outline>
</glyph>
